<?xml version="1.0" encoding="UTF-8"?>
<svg width="80px" height="104px" viewBox="0 0 80 104" version="1.1" xmlns="http://www.w3.org/2000/svg" xmlns:xlink="http://www.w3.org/1999/xlink">
    <!-- Generator: Sketch 61.2 (89653) - https://sketch.com -->
    <title></title>
    <desc>Created with Sketch.</desc>
    <g id="file-css" stroke="none" stroke-width="1" fill="none" fill-rule="evenodd">
        <g>
            <path d="M0,2.00767737 C0,0.898867775 0.890373829,0 2.00662552,0 L62.9848633,0 L80,17.0219727 L80,101.999033 C80,103.104137 79.1015625,104 78.0025017,104 L1.99749826,104 C0.894310431,104 0,103.100914 0,101.992323 L0,2.00767737 Z" id="Path" fill="#FFFFFF" fill-rule="nonzero"></path>
            <path d="M61.8183669,1.108773 L61.8183669,14.9935781 C61.8183669,16.6577438 63.1593613,18 64.8135617,18 L78,18" id="Path" stroke="#C4C6CD" stroke-width="2" stroke-linejoin="round" fill-rule="nonzero"></path>
            <path d="M1,3.93045901 C1,2.31274751 2.2927349,1 3.90629424,1 L62.253492,1 L79,17.9567167 L79,100.075993 C79,101.686754 77.7029138,103 76.1023766,103 L3.89762335,103 C2.29348793,103 1,101.684031 1,100.069541 L1,3.93045901 Z" id="Path" stroke="#C4C6CD" stroke-width="2" stroke-linejoin="round"></path>
            <path d="M35.706019,39 L35.706019,42.8081037 L34.1855304,42.8081037 C31.8511243,42.8081037 31.1032604,43.5533156 31.1032604,45.7160267 L31.1032604,50.7023485 C31.1032604,52.6413564 30.5115505,54.0197277 29.3574245,54.7639792 C30.5071044,55.5125804 31.1032604,56.903686 31.1032604,58.8269148 L31.1032604,64.4931896 C31.1032604,66.6622494 31.8568858,67.4185473 34.1855304,67.4185473 L35.706019,67.4185473 L35.706019,71.226651 L33.9937487,71.226651 C29.4741232,71.226651 26.9638976,69.058265 26.9638976,64.6501018 L26.9638976,59.7858228 C26.9638976,57.5842126 26.5682543,57.0696814 24.8056663,57.0696814 L24,57.0696814 L24,52.4770166 L24.8056663,52.4770166 C26.5623151,52.4770166 26.9638976,51.9527834 26.9638976,49.7608752 L26.9638976,45.419637 C26.9638976,41.0494872 29.435338,39 33.9937487,39 L35.706019,39 Z M46.0062513,39 C50.564662,39 53.0361024,41.0494872 53.0361024,45.419637 L53.0361024,49.7608752 C53.0361024,51.9527834 53.4376849,52.4770166 55.1943337,52.4770166 L56,52.4770166 L56,57.0696814 L55.1943337,57.0696814 C53.4317457,57.0696814 53.0361024,57.5842126 53.0361024,59.7858228 L53.0361024,64.6501018 C53.0361024,69.058265 50.5258768,71.226651 46.0062513,71.226651 L44.293981,71.226651 L44.293981,67.4185473 L45.8144696,67.4185473 C48.1431142,67.4185473 48.8967396,66.6622494 48.8967396,64.4931896 L48.8967396,58.8269148 C48.8967396,56.9114831 49.5056962,55.5154 50.6582926,54.7640053 C49.5011814,54.0169977 48.8967396,52.6337991 48.8967396,50.7023485 L48.8967396,45.7160267 C48.8967396,43.5533156 48.1488757,42.8081037 45.8144696,42.8081037 L44.293981,42.8081037 L44.293981,39 L46.0062513,39 Z" id="{}" fill="#C4C6CD" fill-rule="nonzero"></path>
        </g>
    </g>
</svg>
