<?xml version="1.0" encoding="UTF-8"?>
<svg width="80px" height="104px" viewBox="0 0 80 104" version="1.1" xmlns="http://www.w3.org/2000/svg" xmlns:xlink="http://www.w3.org/1999/xlink">
    <title></title>
    <g id="Filetype/Grey/dmg" stroke="none" stroke-width="1" fill="none" fill-rule="evenodd">
        <path d="M0,2.00767737 C0,0.898867775 0.890373829,0 2.00662552,0 L62.9848633,0 L80,17.0219727 L80,101.999033 C80,103.104137 79.1015625,104 78.0025017,104 L1.99749826,104 C0.894310431,104 0,103.100914 0,101.992323 L0,2.00767737 Z" id="Path" fill="#FFFFFF" fill-rule="nonzero"></path>
        <path d="M62.8183669,1.108773 L62.8183669,14.9935781 C62.8183669,16.0542914 63.6316907,16.918172 64.664577,16.994515 L64.8135617,17 L78,17 L78,19 L64.8135617,19 C62.6720572,19 60.9270431,17.3150409 60.8232511,15.1936947 L60.8183669,14.9935781 L60.8183669,1.108773 L62.8183669,1.108773 Z" id="Path" fill="#C4C6CD" fill-rule="nonzero"></path>
        <path d="M61.8356201,0 L3.90629424,0 C1.73698228,0 0,1.76387221 0,3.93045901 L0,100.069541 C0,102.232496 1.73730966,104 3.89762335,104 L76.1023766,104 C78.2579891,104 80,102.236287 80,100.075993 L80,18.3672814 C80,17.8411696 79.7926962,17.336246 79.4230064,16.9619157 L63.2586265,0.594634292 C62.8828621,0.214153103 62.370377,0 61.8356201,0 Z M61.8356201,2 L78,18.3672814 L78,100.075993 C78,101.138593 77.1464844,102 76.1023766,102 L3.89762335,102 C2.84959491,102 2,101.135494 2,100.069541 L2,3.93045901 C2,2.86429594 2.84585514,2 3.90629424,2 L61.8356201,2 Z" id="Path" fill="#C4C6CD" fill-rule="nonzero"></path>
        <g id="Style/Icons/24px/Video" transform="translate(21.500000, 37.500000)" stroke="#C4C6CD" stroke-width="3">
            <path d="M18.5,0 C23.6086339,0 28.2336339,2.07068303 31.5814755,5.41852455 C34.929317,8.7663661 37,13.3913661 37,18.5 C37,23.6086339 34.929317,28.2336339 31.5814755,31.5814755 C28.2336339,34.929317 23.6086339,37 18.5,37 C13.3913661,37 8.7663661,34.929317 5.41852455,31.5814755 C2.07068303,28.2336339 0,23.6086339 0,18.5 C0,13.3913661 2.07068303,8.7663661 5.41852455,5.41852455 C8.7663661,2.07068303 13.3913661,0 18.5,0 Z" id="icon"></path>
        </g>
        <g id="Style/Icons/24px/Video" transform="translate(35.500000, 51.500000)" stroke="#C4C6CD" stroke-width="3">
            <path d="M4.5,0 C5.74264069,0 6.86764069,0.50367966 7.68198052,1.31801948 C8.49632034,2.13235931 9,3.25735931 9,4.5 C9,5.74264069 8.49632034,6.86764069 7.68198052,7.68198052 C6.86764069,8.49632034 5.74264069,9 4.5,9 C3.25735931,9 2.13235931,8.49632034 1.31801948,7.68198052 C0.50367966,6.86764069 0,5.74264069 0,4.5 C0,3.25735931 0.50367966,2.13235931 1.31801948,1.31801948 C2.13235931,0.50367966 3.25735931,0 4.5,0 Z" id="icon"></path>
        </g>
    </g>
</svg>
