<?xml version="1.0" encoding="UTF-8"?>
<svg width="80px" height="104px" viewBox="0 0 80 104" version="1.1" xmlns="http://www.w3.org/2000/svg" xmlns:xlink="http://www.w3.org/1999/xlink">
    <!-- Generator: Sketch 61.2 (89653) - https://sketch.com -->
    <title></title>
    <desc>Created with Sketch.</desc>
    <g id="file-html" stroke="none" stroke-width="1" fill="none" fill-rule="evenodd">
        <g>
            <path d="M0,2.00767737 C0,0.898867775 0.890373829,0 2.00662552,0 L62.9848633,0 L80,17.0219727 L80,101.999033 C80,103.104137 79.1015625,104 78.0025017,104 L1.99749826,104 C0.894310431,104 0,103.100914 0,101.992323 L0,2.00767737 Z" id="Path" fill="#FFFFFF" fill-rule="nonzero"></path>
            <path d="M61.8183669,1.108773 L61.8183669,14.9935781 C61.8183669,16.6577438 63.1593613,18 64.8135617,18 L78,18" id="Path" stroke="#C4C6CD" stroke-width="2" stroke-linejoin="round" fill-rule="nonzero"></path>
            <path d="M1,3.93045901 C1,2.31274751 2.2927349,1 3.90629424,1 L62.253492,1 L79,17.9567167 L79,100.075993 C79,101.686754 77.7029138,103 76.1023766,103 L3.89762335,103 C2.29348793,103 1,101.684031 1,100.069541 L1,3.93045901 Z" id="Path" stroke="#C4C6CD" stroke-width="2" stroke-linejoin="round"></path>
            <g id="Style/Icons/32px/Snippet" transform="translate(16.000000, 32.000000)">
                <g>
                    <rect id="Bounding-area" x="0" y="0" width="48" height="48"></rect>
                    <path d="M27.6594289,14.1149483 C28.4458371,14.4366607 28.8225474,15.33497 28.500835,16.1213782 L21.5777599,33.0444506 C21.2560475,33.8308588 20.3577382,34.2075691 19.57133,33.8858567 C18.7849218,33.5641443 18.4082114,32.665835 18.7299239,31.8794268 L25.6529989,14.9563544 C25.9747114,14.1699462 26.8730207,13.7932359 27.6594289,14.1149483 Z M32.1005237,14.4951224 C32.6769675,13.8709035 33.650297,13.8321741 34.2745159,14.4086179 L34.2745159,14.4086179 L43.5052827,22.9329003 C44.1682248,23.5451037 44.1643512,24.5937877 43.4969045,25.2010769 L43.4969045,25.2010769 L34.2661378,33.5998668 C33.6376774,34.1716835 32.6646606,34.1257648 32.0928439,33.4973044 C31.5210272,32.868844 31.566946,31.8958272 32.1954063,31.3240105 L32.1954063,31.3240105 L40.1847657,24.0547388 L32.1870282,16.6691147 C31.5628092,16.0926709 31.5240799,15.1193414 32.1005237,14.4951224 Z M15.8994763,14.4951224 C16.4759201,15.1193414 16.4371908,16.0926709 15.8129718,16.6691147 L7.81523425,24.0547388 L15.8045937,31.3240105 C16.433054,31.8958272 16.4789728,32.868844 15.9071561,33.4973044 C15.3353394,34.1257648 14.3623226,34.1716835 13.7338622,33.5998668 L4.50309549,25.2010769 C3.83564877,24.5937877 3.83177516,23.5451037 4.49471734,22.9329003 L13.7254841,14.4086179 C14.349703,13.8321741 15.3230325,13.8709035 15.8994763,14.4951224 Z" id="Icon_Snippet" fill="#C4C6CD" fill-rule="nonzero"></path>
                </g>
            </g>
        </g>
    </g>
</svg>
