<?xml version="1.0" encoding="UTF-8"?>
<svg width="80px" height="104px" viewBox="0 0 80 104" version="1.1" xmlns="http://www.w3.org/2000/svg" xmlns:xlink="http://www.w3.org/1999/xlink">
    <!-- Generator: Sketch 61.2 (89653) - https://sketch.com -->
    <title></title>
    <desc>Created with Sketch.</desc>
    <g id="file-gif" stroke="none" stroke-width="1" fill="none" fill-rule="evenodd">
        <g>
            <path d="M0,2.00767737 C0,0.898867775 0.890373829,0 2.00662552,0 L62.9848633,0 L80,17.0219727 L80,101.999033 C80,103.104137 79.1015625,104 78.0025017,104 L1.99749826,104 C0.894310431,104 0,103.100914 0,101.992323 L0,2.00767737 Z" id="Path" fill="#FFFFFF" fill-rule="nonzero"></path>
            <path d="M61.8183669,1.108773 L61.8183669,14.9935781 C61.8183669,16.6577438 63.1593613,18 64.8135617,18 L78,18" id="Path" stroke="#C4C6CD" stroke-width="2" stroke-linejoin="round" fill-rule="nonzero"></path>
            <path d="M1,3.93045901 C1,2.31274751 2.2927349,1 3.90629424,1 L62.253492,1 L79,17.9567167 L79,100.075993 C79,101.686754 77.7029138,103 76.1023766,103 L3.89762335,103 C2.29348793,103 1,101.684031 1,100.069541 L1,3.93045901 Z" id="Path" stroke="#C4C6CD" stroke-width="2" stroke-linejoin="round"></path>
            <g id="Style/Icons/32px/Asset" transform="translate(16.000000, 32.000000)" fill="#C4C6CD">
                <g transform="translate(3.000000, 6.000000)" id="Icon_Asset">
                    <path d="M37.9341749,20.3203125 L37.9341749,5.9765625 C37.9341749,5.1562459 37.6336069,4.45312793 37.0324617,3.8671875 C36.4313165,3.28124707 35.7099531,2.98828125 34.8683499,2.98828125 L7.13165014,2.98828125 C6.29004689,2.98828125 5.5686835,3.28124707 4.96753832,3.8671875 C4.36639315,4.45312793 4.06582507,5.1562459 4.06582507,5.9765625 L4.06582507,21.4804687 L15.1027953,16.4179687 L28.6284941,25.3828125 L37.9341749,20.3203125 Z M37.9341749,23.4140625 L28.2317403,28.40625 L15.1027953,19.5117187 L4.06582507,24.3984375 L4.06582507,30.0234375 C4.06582507,30.8437541 4.36639315,31.5468721 4.96753832,32.1328125 C5.5686835,32.7187529 6.29004689,33.0117187 7.13165014,33.0117187 L34.8683499,33.0117187 C35.7099531,33.0117187 36.4313165,32.7187529 37.0324617,32.1328125 C37.6336069,31.5468721 37.9341749,30.8437541 37.9341749,30.0234375 L37.9341749,23.4140625 Z M1,4.5 C1,3.25780629 1.45085212,2.19727002 2.35256988,1.31835938 C3.25428765,0.43944873 4.34234409,0 5.61677187,0 L36.3832281,0 C37.6576559,0 38.7457124,0.43944873 39.6474301,1.31835938 C40.5491479,2.19727002 41,3.25780629 41,4.5 L41,31.5 C41,32.7421937 40.5491479,33.80273 39.6474301,34.6816406 C38.7457124,35.5605513 37.6576559,36 36.3832281,36 L5.61677187,36 C4.34234409,36 3.25428765,35.5605513 2.35256988,34.6816406 C1.45085212,33.80273 1,32.7421937 1,31.5 L1,4.5 Z M28.7006312,18 C26.9933789,18 25.5386294,17.4140684 24.336339,16.2421875 C23.1340487,15.0703066 22.5329125,13.6523521 22.5329125,11.9882812 C22.5329125,10.347648 23.1340487,8.94141211 24.336339,7.76953125 C25.5386294,6.59765039 26.9933789,6.01171875 28.7006312,6.01171875 C30.4078835,6.01171875 31.862633,6.59765039 33.0649234,7.76953125 C34.2672137,8.94141211 34.8683499,10.347648 34.8683499,11.9882812 C34.8683499,13.6523521 34.2672137,15.0703066 33.0649234,16.2421875 C31.862633,17.4140684 30.4078835,18 28.7006312,18 Z M28.7006312,15.0117187 C29.5422344,15.0117187 30.2635978,14.7187529 30.864743,14.1328125 C31.4658882,13.5468721 31.7664563,12.8320355 31.7664563,11.9882812 C31.7664563,11.1679646 31.4658882,10.4648467 30.864743,9.87890625 C30.2635978,9.29296582 29.5422344,9 28.7006312,9 C27.859028,9 27.1376646,9.29296582 26.5365194,9.87890625 C25.9353742,10.4648467 25.6348061,11.1679646 25.6348061,11.9882812 C25.6348061,12.8320355 25.9353742,13.5468721 26.5365194,14.1328125 C27.1376646,14.7187529 27.859028,15.0117187 28.7006312,15.0117187 Z" fill-rule="nonzero"></path>
                </g>
            </g>
        </g>
    </g>
</svg>
