<?xml version="1.0" encoding="UTF-8"?>
<svg width="80px" height="104px" viewBox="0 0 80 104" version="1.1" xmlns="http://www.w3.org/2000/svg" xmlns:xlink="http://www.w3.org/1999/xlink">
    <!-- Generator: Sketch 61.2 (89653) - https://sketch.com -->
    <title></title>
    <desc>Created with Sketch.</desc>
    <g id="file-sketch" stroke="none" stroke-width="1" fill="none" fill-rule="evenodd">
        <g>
            <path d="M0,2.00767737 C0,0.898867775 0.890373829,0 2.00662552,0 L62.9848633,0 L80,17.0219727 L80,101.999033 C80,103.104137 79.1015625,104 78.0025017,104 L1.99749826,104 C0.894310431,104 0,103.100914 0,101.992323 L0,2.00767737 Z" id="Path" fill="#FFFFFF" fill-rule="nonzero"></path>
            <path d="M61.8183669,1.108773 L61.8183669,14.9935781 C61.8183669,16.6577438 63.1593613,18 64.8135617,18 L78,18" id="Path" stroke="#C4C6CD" stroke-width="2" stroke-linejoin="round" fill-rule="nonzero"></path>
            <path d="M1,3.93045901 C1,2.31274751 2.2927349,1 3.90629424,1 L62.253492,1 L79,17.9567167 L79,100.075993 C79,101.686754 77.7029138,103 76.1023766,103 L3.89762335,103 C2.29348793,103 1,101.684031 1,100.069541 L1,3.93045901 Z" id="Path" stroke="#C4C6CD" stroke-width="2" stroke-linejoin="round"></path>
            <g id="Style/Icons/32px/Sketch" transform="translate(16.000000, 32.000000)" fill="#C4C6CD" fill-rule="nonzero">
                <path d="M30,3.99993219 L30.0428023,4.00051915 C30.0624646,4.0010719 30.0821213,4.00200939 30.10176,4.00333216 L30,3.99993219 C30.0649747,3.99993219 30.1289845,4.00406335 30.191781,4.01207735 C30.2131674,4.0148507 30.2348257,4.01810009 30.2564223,4.02182573 C30.2786592,4.02559472 30.3006812,4.02990496 30.3225249,4.03469122 C30.344537,4.03958569 30.366554,4.04493375 30.3884692,4.05078883 C30.4179602,4.05860934 30.4470339,4.0673524 30.4757216,4.07693868 C30.4907858,4.08200131 30.5057842,4.08727343 30.5207152,4.09279255 C30.5480156,4.10288203 30.5751086,4.11382938 30.6017956,4.12553123 C30.6214821,4.13411939 30.6410922,4.14321806 30.6605445,4.15276644 C30.6782302,4.1615149 30.6957583,4.17056163 30.7130811,4.17993941 C30.738039,4.19336205 30.762953,4.20777892 30.7875354,4.22297738 C30.8086169,4.23609787 30.8288282,4.24928776 30.8486941,4.26294381 C30.9054093,4.3018547 30.9607633,4.34577926 31.0135869,4.39420098 L30.9008675,4.30047439 C30.933375,4.32492839 30.9648563,4.35067316 30.9952354,4.37763258 L31.0135869,4.39420098 L43.0097709,15.3907012 C43.0215448,15.4014256 43.0331473,15.4123349 43.0445738,15.4234245 C43.0604848,15.4385073 43.0757437,15.4539426 43.0906135,15.4696514 C43.1058397,15.4861957 43.1211297,15.5031206 43.1360327,15.520389 C43.1520667,15.538455 43.1669736,15.5565881 43.181407,15.575012 C43.1925675,15.5897776 43.2040784,15.6050366 43.2153008,15.6205183 C43.2267486,15.6358297 43.2375342,15.651355 43.2480035,15.6670521 C43.2565448,15.6800232 43.2611816,15.6871628 43.265752,15.6943339 C43.2710661,15.702997 43.2768719,15.7123127 43.2825776,15.721696 C43.2976839,15.7462486 43.311736,15.7709743 43.3250343,15.7960071 L43.334063,15.8134786 C43.3426764,15.8301842 43.3509853,15.8470725 43.3589822,15.8641361 C43.3671599,15.8819159 43.3751828,15.9000288 43.3828384,15.9182775 L43.3829785,15.9181592 L43.3951636,15.9479171 C43.4012319,15.9632415 43.4070551,15.9786897 43.4126283,15.9942569 C43.4183426,16.0111289 43.4241089,16.0282382 43.4295637,16.0454382 C43.4309731,16.049288 43.4321371,16.0530134 43.4332863,16.0567424 C43.4419395,16.0845911 43.448152,16.1068396 43.4538581,16.1292901 C43.457518,16.1450236 43.4613264,16.16107 43.4648704,16.1771726 C43.4700453,16.2002107 43.4745211,16.2231726 43.4784584,16.2462133 C43.4822706,16.2688283 43.4856466,16.2915968 43.4885008,16.314436 C43.4891678,16.3196825 43.4898043,16.3250427 43.490412,16.3304057 C43.4937212,16.3600301 43.4955849,16.3818939 43.4969746,16.4038864 C43.4980899,16.4210716 43.4988876,16.4377571 43.4994074,16.454459 L43.4993156,16.4545972 L43.5,16.4999322 L43.5,16.4999322 L43.4996265,16.5403814 C43.4992272,16.5557137 43.4985929,16.5710494 43.4977224,16.5863827 C43.4962612,16.6090088 43.4944517,16.6316822 43.4921277,16.6543172 C43.4896064,16.6807192 43.4861972,16.7070573 43.4820782,16.733335 C43.4811338,16.7381915 43.4803294,16.7431682 43.4794998,16.7481418 L43.4771936,16.7619508 C43.4747082,16.7760594 43.4720255,16.7900999 43.4691486,16.8040696 C43.4646249,16.8264633 43.4593065,16.8495028 43.4534266,16.8724554 L43.4532979,16.8725014 L43.4430966,16.9105756 C43.4398148,16.9221308 43.436398,16.9336291 43.432848,16.9450688 C43.4279154,16.960955 43.4225331,16.9772839 43.4168561,16.9935493 C43.4137956,17.0023608 43.4106072,17.0112561 43.4073317,17.0201276 L43.4033818,17.0307214 C43.4023907,17.0333405 43.4013924,17.0359562 43.4003871,17.0385684 L43.3908699,17.0624743 C43.3817732,17.0849058 43.3720986,17.1071932 43.3618425,17.1293162 C43.3523652,17.1501776 43.3423132,17.1706645 43.3317622,17.1909676 C43.3027904,17.2462114 43.2699813,17.3007461 43.2332883,17.3537472 L43.2968862,17.2541353 C43.2821417,17.2794344 43.2666782,17.304263 43.2505236,17.328593 L43.2332883,17.3537472 L25.2332883,43.3537472 C25.2146467,43.3811671 25.1981188,43.4034821 25.1810195,43.4252762 C25.1763082,43.4313608 25.1711504,43.437833 25.1659336,43.444268 L25.1577518,43.4537855 C25.1530254,43.4595307 25.1482555,43.465242 25.1434426,43.4709187 C25.1291641,43.4880474 25.1142647,43.5047875 25.0990163,43.5211665 C25.0905419,43.5301572 25.0873244,43.5335608 25.0840937,43.5369466 L25.0840831,43.5370681 L25.0614745,43.5600593 C25.0563989,43.565151 25.0512851,43.5702079 25.0461334,43.5752294 C25.0320392,43.5888403 25.0185931,43.6014049 25.0049298,43.6137113 C24.9961163,43.6219584 24.9870574,43.6299478 24.9779174,43.6378138 C24.9749845,43.6400058 24.9718391,43.6426817 24.9686803,43.6453467 L24.9608665,43.6521924 C24.9566914,43.6556797 24.9524958,43.6591453 24.9482798,43.6625893 C24.9339355,43.6739211 24.9199976,43.684861 24.9058756,43.695549 C24.8967571,43.7029252 24.8871967,43.7099941 24.8775649,43.7169393 L24.8619679,43.7280207 C24.8524214,43.7347261 24.8427862,43.7413263 24.8330637,43.7478193 C24.8187537,43.7568801 24.8048748,43.7658105 24.7908531,43.7745112 C24.7805087,43.7813731 24.7696482,43.7879165 24.7587165,43.7943147 L24.7341296,43.8084524 C24.7302755,43.8106124 24.7264097,43.8127564 24.7225323,43.8148843 C24.7013933,43.8260864 24.6802079,43.8370898 24.6587631,43.8475884 C24.6509218,43.85166 24.6424631,43.855691 24.6339715,43.8596406 C24.6179303,43.8670874 24.6095472,43.8708348 24.6011181,43.8745096 C24.5812213,43.883237 24.5620228,43.8911678 24.5427228,43.8986748 C24.5301192,43.9033471 24.5172317,43.9081348 24.5042865,43.9127432 C24.4872589,43.9187419 24.4784772,43.9217159 24.4696531,43.9246135 C24.4507468,43.9311629 24.4318678,43.9369765 24.4129208,43.9424023 C24.3988488,43.9460444 24.3847583,43.9498493 24.3706181,43.9534484 L24.3566416,43.9572517 C24.3515855,43.9584933 24.3465212,43.9597089 24.3414488,43.9608984 L24.3372893,43.961519 C24.3127311,43.9674647 24.2964128,43.9708393 24.2800643,43.9739361 C24.2647498,43.9764654 24.2493558,43.9791437 24.2339229,43.9815825 C24.2154257,43.9848363 24.2037576,43.9864851 24.192058,43.9879966 C24.1778048,43.9897255 24.1637998,43.9913176 24.1497865,43.9927109 C24.1315155,43.9943048 24.1133507,43.9958029 24.0951574,43.9969714 L24.0857391,43.9978705 C24.0823725,43.9980617 24.0790039,43.9982415 24.0756334,43.9984099 C24.0448726,43.9997912 24.0180667,44.0003777 23.9913631,44.0002467 L23.9633913,43.9997818 C23.9553318,43.9995767 23.9472642,43.999306 23.9391893,43.9989693 L23.9293496,43.9986505 C23.9243156,43.9984159 23.919286,43.9981558 23.9142609,43.9978705 C23.8932822,43.996339 23.8717933,43.9946381 23.8503576,43.9924786 C23.8385497,43.9915512 23.8268917,43.9902538 23.8152421,43.9888182 L23.8063286,43.9874846 C23.7979935,43.9866827 23.7940189,43.9861365 23.790048,43.9855745 L23.7660771,43.9815825 C23.7506442,43.9791437 23.7352502,43.9764654 23.7199011,43.9735487 C23.7052663,43.9711573 23.6906212,43.968155 23.6760053,43.9649282 L23.671,43.9629322 L23.6627107,43.961519 C23.6541119,43.9598651 23.6477176,43.9583301 23.6413363,43.9567536 C23.6231214,43.95196 23.6050737,43.947165 23.5871151,43.9420345 C23.5708421,43.9377525 23.5546549,43.932818 23.5385247,43.9275973 C23.5215228,43.9217159 23.5127411,43.9187419 23.5040025,43.9156925 C23.4886484,43.9103087 23.4728051,43.9044794 23.4570549,43.8983808 C23.439346,43.8917002 23.4215024,43.8843598 23.4037567,43.8766517 C23.3904528,43.8708348 23.3820697,43.8670874 23.3737333,43.8632684 C23.3712978,43.8620821 23.3686615,43.8608653 23.3660285,43.8596406 L23.3464931,43.8504553 C23.3424827,43.8485191 23.3384834,43.8465662 23.3344954,43.8445967 C23.3158549,43.8350393 23.2966627,43.8250175 23.2776991,43.81459 C23.2735903,43.8127564 23.2697245,43.8106124 23.2658704,43.8084524 L23.2412835,43.7943147 C23.2300102,43.7877165 23.2188125,43.780964 23.2076938,43.7740576 C23.2019551,43.7705209 23.196288,43.766944 23.1906492,43.7633314 C23.1837122,43.7584076 23.1761049,43.7534418 23.1685427,43.7484074 C23.1578619,43.7417702 23.1478997,43.7349516 23.1380321,43.7280207 C23.1328159,43.724374 23.1276152,43.7206745 23.1224351,43.7169393 L23.0921574,43.6940578 C23.0787078,43.683844 23.0654259,43.6734014 23.0523183,43.6627339 C23.0475042,43.6591453 23.0433086,43.6556797 23.0391335,43.6521924 L23.0313197,43.6453467 C23.0281609,43.6426817 23.0250155,43.6400058 23.0218836,43.6373191 C23.0181869,43.6344611 23.0143058,43.6310859 23.0104398,43.6276884 L22.987219,43.6067579 L22.987219,43.6067579 L22.9678331,43.5885641 C22.9637823,43.5847305 22.9597519,43.5808735 22.9557423,43.5769932 C22.9493543,43.5708398 22.9439183,43.5654693 22.9385255,43.5600593 L22.9159063,43.5369466 C22.9126756,43.5335608 22.9094581,43.5301572 22.9062542,43.5267359 C22.8828341,43.5016711 22.8651787,43.4816642 22.8480429,43.4611615 C22.8377808,43.4489581 22.8280845,43.4369681 22.818593,43.4248524 C22.8018812,43.4034821 22.7853533,43.3811671 22.7694249,43.3583489 L22.7667117,43.3537472 L4.76671171,17.3537472 L4.7507653,17.3305308 C4.74057961,17.3152419 4.7306671,17.2997554 4.72103477,17.2840783 C4.71521755,17.2747397 4.7096465,17.2654475 4.70418564,17.2561105 L4.69012928,17.2310647 L4.69012928,17.2310647 L4.67399115,17.2017865 C4.66964949,17.1936008 4.66538141,17.1853701 4.66118779,17.1770953 L4.64834707,17.1512551 C4.64486338,17.1440326 4.64144136,17.1367887 4.63808097,17.1295244 C4.63425593,17.1209003 4.6304385,17.1124605 4.62670502,17.1039981 L4.61691483,17.0815188 C4.6100707,17.0652622 4.60350482,17.0488597 4.59722315,17.0323173 C4.59233171,17.0193998 4.58762485,17.0064453 4.5831032,16.993443 C4.58080598,16.9868508 4.578518,16.9801414 4.57627991,16.9734219 L4.57043963,16.9555268 C4.56401022,16.9353352 4.55799676,16.914958 4.55240931,16.8944053 C4.55051126,16.8871811 4.54857834,16.8798467 4.54670211,16.8725014 C4.54382465,16.8617255 4.54119861,16.8509766 4.53869492,16.8402107 L4.52985548,16.7991925 C4.52797265,16.7898929 4.52617585,16.780562 4.52446595,16.7712009 C4.52223444,16.7586458 4.52007841,16.7459385 4.51808703,16.7332118 C4.51645492,16.723977 4.51507808,16.7146113 4.51379102,16.7052392 L4.50893332,16.6645829 C4.50773321,16.6535908 4.50665185,16.642563 4.50569057,16.6315008 C4.50438035,16.6163049 4.50329956,16.6013147 4.50244321,16.5863158 C4.50095299,16.5630493 4.50017516,16.5397106 4.49994047,16.5163865 L4.50007801,16.516525 L4.5,16.4999322 L4.5,16.4999322 L4.50030303,16.4696569 C4.50040511,16.4646363 4.50053225,16.4596164 4.50068442,16.4545972 C4.50080999,16.4474742 4.50107597,16.4404923 4.50139044,16.4335138 L4.504,16.3949322 L4.50651619,16.3591876 C4.50701976,16.3537762 4.50755208,16.3483731 4.508113,16.3429785 C4.50918747,16.3336923 4.51029552,16.3240038 4.51149761,16.3143255 C4.51435336,16.2915968 4.51772942,16.2688283 4.52162391,16.2461498 L4.52154159,16.2462133 L4.52567758,16.2221129 C4.52662835,16.217036 4.52760469,16.211968 4.52860647,16.2069093 C4.53069299,16.1973299 4.53277926,16.1873296 4.534968,16.1773481 C4.53600555,16.1731925 4.53689769,16.1692159 4.53780595,16.1652428 L4.54452676,16.1357046 C4.55012764,16.1132507 4.55623451,16.0909972 4.56283456,16.0689567 C4.56521194,16.0615648 4.56767477,16.0535568 4.57020577,16.0455665 C4.57158447,16.0418178 4.57274643,16.0382015 4.57392218,16.0345892 L4.58824665,15.9918197 C4.59415231,15.9754137 4.60033583,15.9591405 4.60679151,15.9430055 C4.61013658,15.9347644 4.61354038,15.9264489 4.61702148,15.9181592 C4.61868171,15.914654 4.6202163,15.9110359 4.62176536,15.9074232 L4.63826058,15.870053 C4.64571359,15.8539673 4.65344322,15.8380359 4.66144339,15.8222649 C4.67429328,15.796713 4.68767575,15.7720412 4.70179446,15.7476917 C4.71058429,15.7328622 4.71945373,15.7181776 4.72856493,15.7036601 C4.7346168,15.6936601 4.74131739,15.6832538 4.74815844,15.6729157 C4.75927947,15.6561324 4.76671553,15.6452958 4.77430402,15.6345458 C4.78665879,15.6175774 4.79900682,15.6008709 4.81168825,15.5844348 C4.82451865,15.5672322 4.8384745,15.5499213 4.85285387,15.532885 C4.86887147,15.5144517 4.8845808,15.4967192 4.90069588,15.4793688 C4.91577033,15.4626939 4.93183696,15.4461883 4.94834038,15.4300051 C4.95852429,15.4203463 4.96805294,15.411232 4.97770021,15.4022433 L4.98641306,15.394201 L16.9864131,4.39420098 L17.017354,4.36658466 C17.0396315,4.34725271 17.0624846,4.32856667 17.0858842,4.31055569 L16.9864131,4.39420098 C17.0343513,4.35025757 17.0843735,4.31001794 17.1361278,4.2734668 C17.1556141,4.25975197 17.1759765,4.24610193 17.1966834,4.23294555 C17.2206025,4.21768104 17.2442986,4.20354566 17.2682745,4.19012467 C17.2825075,4.18222675 17.2975224,4.17414387 17.312688,4.16631207 C17.3360686,4.15418654 17.3591549,4.14303293 17.382447,4.13250889 C17.4094852,4.12031598 17.437079,4.10881189 17.4650752,4.09812237 C17.4795127,4.09262412 17.49391,4.08738971 17.5083661,4.08238408 C17.5360566,4.07275094 17.5642557,4.0638948 17.5927998,4.05586219 C17.6124074,4.05041974 17.6315162,4.04546298 17.6506939,4.0408901 C17.6777151,4.0343615 17.7056393,4.02852413 17.7338368,4.02347473 C17.7508986,4.02048832 17.7672832,4.01783864 17.7836974,4.01546204 C17.787652,4.01484013 17.7920524,4.01422321 17.7964589,4.01362542 L17.8304264,4.00944192 C17.8782181,4.00404424 17.9262002,4.00094523 17.974195,4.00013716 L18,3.99993219 L30,3.99993219 Z M28.114,17.9999322 L19.885,17.9999322 L23.999,35.8289322 L28.114,17.9999322 Z M39.137,17.9999322 L31.193,17.9999322 L27.221,35.2119322 L39.137,17.9999322 Z M16.806,17.9999322 L8.862,17.9999322 L20.778,35.2109322 L16.806,17.9999322 Z M28.5,6.99993219 L19.5,6.99993219 L19.5,14.9999322 L28.5,14.9999322 L28.5,6.99993219 Z M16.5,8.90893219 L9.855,14.9999322 L16.5,14.9999322 L16.5,8.90893219 Z M31.5,8.90993219 L31.5,14.9999322 L38.144,14.9999322 L31.5,8.90993219 Z"></path>
            </g>
        </g>
    </g>
</svg>
