<?xml version="1.0" encoding="UTF-8"?>
<svg width="80px" height="104px" viewBox="0 0 80 104" version="1.1" xmlns="http://www.w3.org/2000/svg" xmlns:xlink="http://www.w3.org/1999/xlink">
    <!-- Generator: Sketch 61.2 (89653) - https://sketch.com -->
    <title></title>
    <desc>Created with Sketch.</desc>
    <g id="file-eps" stroke="none" stroke-width="1" fill="none" fill-rule="evenodd">
        <g>
            <path d="M0,2.00767737 C0,0.898867775 0.890373829,0 2.00662552,0 L62.9848633,0 L80,17.0219727 L80,101.999033 C80,103.104137 79.1015625,104 78.0025017,104 L1.99749826,104 C0.894310431,104 0,103.100914 0,101.992323 L0,2.00767737 Z" id="Path" fill="#FFFFFF" fill-rule="nonzero"></path>
            <path d="M61.8183669,1.108773 L61.8183669,14.9935781 C61.8183669,16.6577438 63.1593613,18 64.8135617,18 L78,18" id="Path" stroke="#C4C6CD" stroke-width="2" stroke-linejoin="round" fill-rule="nonzero"></path>
            <path d="M1,3.93045901 C1,2.31274751 2.2927349,1 3.90629424,1 L62.253492,1 L79,17.9567167 L79,100.075993 C79,101.686754 77.7029138,103 76.1023766,103 L3.89762335,103 C2.29348793,103 1,101.684031 1,100.069541 L1,3.93045901 Z" id="Path" stroke="#C4C6CD" stroke-width="2" stroke-linejoin="round"></path>
            <path d="M20,61.0601504 L20,38.8045113 L42.2556391,38.8045113 L42.2557904,47.3896713 C43.4078281,47.0863591 44.6173792,46.924812 45.8646617,46.924812 C53.6713935,46.924812 60,53.2534186 60,61.0601504 C60,68.8668822 53.6713935,75.1954887 45.8646617,75.1954887 C38.0579299,75.1954887 31.7293233,68.8668822 31.7293233,61.0601504 L31.7293233,61.0601504 L20,61.0601504 Z M45.8646617,49.9323308 C44.6013181,49.9323308 43.3871458,50.1428582 42.255314,50.530744 L42.2556391,61.0601504 L34.7368421,61.0601504 C34.7368421,67.2058754 39.7189366,72.1879699 45.8646617,72.1879699 C52.0103867,72.1879699 56.9924812,67.2058754 56.9924812,61.0601504 C56.9924812,54.9144253 52.0103867,49.9323308 45.8646617,49.9323308 Z M39.2481203,41.8120301 L23.0075188,41.8120301 L23.0075188,58.0526316 L32.0499265,58.0527161 C32.9420277,53.9355656 35.6278775,50.4868417 39.2483449,48.5656755 L39.2481203,41.8120301 Z M39.2481496,52.1121926 C37.2889214,53.5633297 35.8230091,55.6426378 35.1480723,58.052457 L39.2481203,58.0526316 Z" id="Combined-Shape" fill="#C4C6CD" fill-rule="nonzero"></path>
        </g>
    </g>
</svg>
