<?xml version="1.0" encoding="UTF-8"?>
<svg width="80px" height="104px" viewBox="0 0 80 104" version="1.1" xmlns="http://www.w3.org/2000/svg" xmlns:xlink="http://www.w3.org/1999/xlink">
    <!-- Generator: Sketch 61.2 (89653) - https://sketch.com -->
    <title></title>
    <desc>Created with Sketch.</desc>
    <g id="file-mp3" stroke="none" stroke-width="1" fill="none" fill-rule="evenodd">
        <g>
            <path d="M0,2.00767737 C0,0.898867775 0.890373829,0 2.00662552,0 L62.9848633,0 L80,17.0219727 L80,101.999033 C80,103.104137 79.1015625,104 78.0025017,104 L1.99749826,104 C0.894310431,104 0,103.100914 0,101.992323 L0,2.00767737 Z" id="Path" fill="#FFFFFF" fill-rule="nonzero"></path>
            <path d="M61.8183669,1.108773 L61.8183669,14.9935781 C61.8183669,16.6577438 63.1593613,18 64.8135617,18 L78,18" id="Path" stroke="#C4C6CD" stroke-width="2" stroke-linejoin="round" fill-rule="nonzero"></path>
            <path d="M1,3.93045901 C1,2.31274751 2.2927349,1 3.90629424,1 L62.253492,1 L79,17.9567167 L79,100.075993 C79,101.686754 77.7029138,103 76.1023766,103 L3.89762335,103 C2.29348793,103 1,101.684031 1,100.069541 L1,3.93045901 Z" id="Path" stroke="#C4C6CD" stroke-width="2" stroke-linejoin="round"></path>
            <g id="Style/Icons/32px/Video" transform="translate(16.000000, 32.000000)">
                <g>
                    <rect id="Bounding-area" x="0" y="0" width="48" height="48"></rect>
                    <path d="M18.2857143,29.4107818 L18.2857143,19.6266092 C18.2857143,18.610027 18.8437604,17.7131671 19.8350556,17.142474 C20.7545746,16.7180806 21.7798872,16.7567716 22.6262946,17.3210477 L29.8697399,22.1264144 C30.6711172,22.6363818 31.1428571,23.5183304 31.1428571,24.446753 C31.1428571,25.3457277 30.6988324,26.2135943 29.9445999,26.741444 L22.7871082,31.6233487 C22.3110371,32.0200747 21.7111075,32.2062597 21.1171634,32.2062597 C20.6764541,32.2062597 20.2560069,32.1201387 19.8506105,31.9213634 C18.9034504,31.4747352 18.3587213,30.5531154 18.2857143,29.4107818 Z M28.2193708,24.4599429 L21.1428118,19.7655875 L21.1396994,29.2964406 L28.2193708,24.4599429 Z M24,44 C12.954305,44 4,35.045695 4,24 C4,12.954305 12.954305,4 24,4 C35.045695,4 44,12.954305 44,24 C44,35.045695 35.045695,44 24,44 Z M24,41.1428571 C33.4677386,41.1428571 41.1428571,33.4677386 41.1428571,24 C41.1428571,14.5322614 33.4677386,6.85714286 24,6.85714286 C14.5322614,6.85714286 6.85714286,14.5322614 6.85714286,24 C6.85714286,33.4677386 14.5322614,41.1428571 24,41.1428571 Z" id="Icon_Video" fill="#C4C6CD" fill-rule="nonzero"></path>
                </g>
            </g>
        </g>
    </g>
</svg>
