<svg width="180" height="180" viewBox="0 0 180 180" fill="none" xmlns="http://www.w3.org/2000/svg">
<g clip-path="url(#clip0_2216_168)">
<circle cx="90" cy="90" r="89.5" fill="white" stroke="#DDDDDE"/>
<path d="M120.122 63C113.615 63 106.523 66.3341 99.0259 72.9013C95.4696 76.0132 92.3981 79.3473 90.0945 82.0146C90.0945 82.0146 90.0945 82.0146 90.1148 82.0348V82.0146C90.1148 82.0146 93.752 85.9751 97.7731 90.2185C99.9352 87.6523 103.047 84.1565 106.624 81.0042C113.292 75.1645 117.636 73.9319 120.122 73.9319C129.478 73.9319 137.075 81.3478 137.075 90.461C137.075 99.5137 129.457 106.93 120.122 106.99C119.697 106.99 119.152 106.93 118.465 106.788C121.193 107.96 124.123 108.809 126.911 108.809C144.047 108.809 147.401 97.6344 147.623 96.8262C148.128 94.7853 148.391 92.6434 148.391 90.4408C148.391 75.3261 135.701 63 120.122 63Z" fill="url(#paint0_linear_2216_168)"/>
<path d="M60.2693 117.963C66.7759 117.963 73.8684 114.628 81.3652 108.061C84.9215 104.949 87.993 101.615 90.2965 98.9479C90.2965 98.9479 90.2965 98.9479 90.2763 98.9277V98.9479C90.2763 98.9479 86.6391 94.9874 82.618 90.744C80.4558 93.3103 77.344 96.806 73.7674 99.9583C67.0992 105.798 62.7547 107.031 60.2693 107.031C50.9135 107.01 43.3158 99.5946 43.3158 90.4813C43.3158 81.4287 50.9337 74.0128 60.2693 73.9522C60.6936 73.9522 61.2392 74.0128 61.9262 74.1542C59.1983 72.9822 56.2683 72.1335 53.4798 72.1335C36.3445 72.1335 33.0103 83.3079 32.7679 84.096C32.2627 86.1571 32 88.2788 32 90.4813C32 105.636 44.6899 117.963 60.2693 117.963Z" fill="url(#paint1_linear_2216_168)"/>
<path d="M126.871 108.566C118.101 108.344 108.988 101.433 107.129 99.7157C102.32 95.2702 91.2261 83.2472 90.3572 82.2975C82.2341 73.1842 71.2214 63 60.2693 63H60.2491H60.2289C46.9328 63.0606 35.7585 72.0728 32.7679 84.0959C32.9902 83.3078 37.375 71.9112 53.4596 72.3153C62.2294 72.5376 71.383 79.5494 73.2623 81.2669C78.0715 85.7124 89.165 97.7355 90.0339 98.6852C98.157 107.778 109.17 117.962 120.122 117.962H120.142H120.162C133.458 117.902 144.653 108.89 147.623 96.8666C147.381 97.6546 142.976 108.95 126.871 108.566Z" fill="#29ABE2"/>
</g>
<defs>
<linearGradient id="paint0_linear_2216_168" x1="105.406" y1="66.624" x2="143.842" y2="106.425" gradientUnits="userSpaceOnUse">
<stop offset="0.21" stop-color="#F15A24"/>
<stop offset="0.6841" stop-color="#FBB03B"/>
</linearGradient>
<linearGradient id="paint1_linear_2216_168" x1="74.985" y1="114.339" x2="36.5495" y2="74.5375" gradientUnits="userSpaceOnUse">
<stop offset="0.21" stop-color="#ED1E79"/>
<stop offset="0.8929" stop-color="#522785"/>
</linearGradient>
<clipPath id="clip0_2216_168">
<rect width="180" height="180" fill="white"/>
</clipPath>
</defs>
</svg>
