<?xml version="1.0" standalone="no"?>
<!DOCTYPE svg PUBLIC "-//W3C//DTD SVG 20010904//EN"
 "http://www.w3.org/TR/2001/REC-SVG-20010904/DTD/svg10.dtd">
<svg version="1.0" xmlns="http://www.w3.org/2000/svg"
 width="700.000000pt" height="700.000000pt" viewBox="0 0 700.000000 700.000000"
 preserveAspectRatio="xMidYMid meet">
<metadata>
Created by potrace 1.14, written by Peter Selinger 2001-2017
</metadata>
<g transform="translate(0.000000,700.000000) scale(0.100000,-0.100000)"
fill="#000000" stroke="none">
<path d="M1175 6974 c-152 -81 -270 -199 -368 -369 -34 -60 -101 -218 -111
-265 -26 -115 -46 -226 -51 -285 -6 -79 -7 -247 -1 -285 3 -14 7 -51 11 -82 3
-31 13 -83 21 -115 9 -32 18 -69 20 -82 9 -44 75 -214 116 -296 104 -209 224
-373 402 -550 356 -353 805 -576 1371 -680 29 -5 139 -20 220 -29 22 -3 60 -5
83 -5 24 -1 42 -5 40 -10 -1 -5 -35 -44 -75 -87 -39 -44 -103 -119 -142 -169
-39 -49 -75 -95 -79 -100 -19 -24 -202 -303 -202 -309 0 -4 -12 -25 -26 -47
-33 -53 -114 -215 -149 -299 -15 -36 -33 -78 -40 -95 -67 -153 -200 -594 -221
-735 -3 -19 -7 -43 -10 -52 -5 -19 -12 -49 -19 -93 -37 -213 -46 -270 -61
-410 -4 -38 -8 -79 -10 -90 -1 -11 -3 -27 -4 -35 -1 -8 -8 8 -16 35 -13 47
-16 62 -29 133 -3 15 -7 36 -9 47 -2 11 -7 40 -10 65 -3 25 -8 54 -10 65 -8
43 -19 226 -20 337 -1 100 -3 117 -16 114 -8 -3 -50 -14 -92 -26 -285 -78
-590 -211 -795 -346 -108 -72 -257 -218 -307 -301 -87 -146 -113 -303 -70
-421 75 -203 363 -423 764 -585 87 -35 258 -94 292 -101 12 -3 48 -12 78 -21
53 -16 237 -60 290 -70 112 -22 257 -45 315 -50 39 -4 72 -9 75 -10 3 -2 41
-6 85 -10 44 -4 94 -9 110 -11 171 -23 797 -22 1035 1 19 1 71 6 115 10 44 3
94 8 110 10 17 3 55 7 85 9 30 3 89 10 130 16 41 6 92 13 114 15 21 3 46 7 55
9 9 3 36 8 61 11 25 3 68 10 95 15 28 5 64 12 81 15 17 2 66 12 110 20 105 20
107 20 49 -17 -166 -105 -466 -228 -825 -337 l-65 -20 255 5 c140 3 273 7 295
8 135 10 245 18 280 21 22 3 65 7 95 10 30 3 71 8 90 10 19 3 76 9 125 15 50
6 144 20 210 31 66 11 136 22 155 25 19 3 37 7 40 9 3 2 26 6 50 10 85 13 340
74 485 117 590 174 967 405 1115 681 92 171 96 357 11 525 -41 82 -112 172
-186 238 -100 88 -85 83 -189 57 -50 -13 -111 -26 -136 -29 -25 -3 -48 -8 -51
-10 -11 -6 -206 -18 -309 -18 -216 0 -410 28 -580 84 -75 25 -180 67 -180 73
0 1 35 3 78 4 100 3 257 12 302 18 19 2 58 7 85 11 103 13 289 56 387 90 381
133 622 344 806 709 79 155 94 202 88 258 -15 119 -95 417 -136 502 -5 11 -30
65 -55 119 -199 428 -571 786 -1024 986 -169 74 -364 131 -531 155 -69 10
-125 23 -193 46 -65 22 -259 116 -305 147 -15 10 -38 23 -52 30 -24 12 -217
150 -319 229 -110 84 -313 278 -449 430 -312 346 -606 848 -746 1269 -26 80
-73 121 -150 130 -39 5 -56 1 -108 -26 -180 -93 -312 -230 -419 -433 -99 -190
-148 -392 -150 -625 l0 -92 -92 77 c-89 76 -342 322 -423 413 -137 153 -291
360 -394 528 -73 120 -110 153 -178 158 -37 4 -58 -1 -97 -22z m58 -423 c10
-16 54 -81 99 -143 476 -663 1171 -1210 1986 -1564 70 -31 163 -69 207 -85 44
-16 89 -34 100 -39 103 -47 656 -204 828 -234 15 -3 35 -7 45 -10 21 -7 358
-63 432 -72 30 -4 66 -8 80 -10 14 -1 52 -6 85 -9 103 -11 285 -52 396 -89
602 -202 1032 -677 1156 -1280 l17 -83 -32 -64 c-105 -213 -280 -387 -502
-501 -132 -67 -283 -114 -465 -144 -67 -11 -386 -13 -445 -4 -102 17 -115 20
-140 25 -14 3 -38 8 -53 10 -115 21 -373 129 -509 213 -39 24 -68 36 -68 29 0
-19 44 -136 73 -192 62 -124 184 -248 315 -321 34 -20 62 -41 62 -47 0 -40 59
-395 87 -527 3 -14 6 -41 7 -60 1 -33 -2 -36 -69 -70 -171 -86 -375 -145 -620
-181 -210 -30 -515 -30 -687 1 -29 5 -64 11 -78 14 -158 27 -390 118 -516 203
-93 62 -87 61 -79 12 16 -93 77 -200 174 -303 l56 -58 -45 7 c-70 11 -82 14
-131 25 -26 6 -53 13 -60 14 -100 20 -297 87 -416 142 -85 40 -155 81 -241
143 l-63 46 6 110 c3 60 7 121 10 135 2 14 6 56 10 95 4 38 8 72 10 75 1 3 6
28 9 55 4 28 9 57 11 65 2 8 7 31 10 50 14 86 81 337 125 470 82 250 208 523
339 735 59 96 182 272 216 309 11 12 33 40 50 62 37 49 244 257 310 311 87 72
132 107 173 136 47 32 82 97 82 151 0 22 -11 58 -26 87 -32 58 -75 82 -154 85
-199 9 -380 31 -490 59 -30 8 -66 16 -80 19 -14 2 -49 12 -79 21 -30 9 -62 18
-70 20 -16 3 -140 48 -176 64 -11 5 -49 21 -85 36 -95 40 -262 130 -360 193
-75 49 -196 136 -210 152 -3 3 -32 28 -66 57 -113 96 -227 218 -336 361 -39
50 -73 92 -76 92 -10 0 9 -170 28 -250 11 -46 41 -127 66 -180 l44 -95 -78 80
c-242 246 -392 518 -448 815 -11 58 -13 301 -3 355 5 28 12 64 15 80 18 101
62 220 109 295 34 54 95 130 104 130 4 0 14 -13 24 -29z m1751 -84 c21 -50 76
-164 121 -252 161 -315 316 -544 559 -829 76 -90 305 -319 406 -408 l65 -57
-60 18 c-33 11 -98 31 -145 46 -47 14 -94 30 -105 34 -11 5 -60 23 -110 41
-264 95 -622 267 -878 424 -41 25 -115 179 -134 277 -12 67 -9 297 6 359 17
74 48 164 79 230 34 72 133 210 151 210 3 0 23 -42 45 -93z"/>
<path d="M5299 3684 c-27 -8 -68 -33 -97 -59 -182 -164 -82 -463 163 -483 120
-9 222 44 283 146 24 41 27 57 27 132 0 75 -3 91 -27 132 -72 122 -211 175
-349 132z"/>
<path d="M745 4870 c4 -19 11 -55 17 -80 5 -25 12 -54 14 -64 7 -37 47 -151
71 -206 21 -48 93 -176 115 -205 4 -5 27 -35 50 -65 178 -233 446 -406 758
-489 72 -20 89 -23 172 -36 185 -30 501 -27 648 4 31 6 25 8 -45 15 -44 4 -87
9 -95 11 -8 1 -55 10 -105 20 -483 90 -925 309 -1226 606 -142 140 -230 256
-327 429 -41 75 -51 87 -47 60z"/>
<path d="M625 1857 c-67 -34 -161 -89 -210 -122 -404 -268 -518 -595 -314
-899 55 -83 176 -202 265 -260 32 -21 70 -47 84 -56 91 -62 429 -196 542 -215
18 -3 60 -12 93 -20 59 -13 87 -18 175 -30 87 -11 120 -14 120 -10 0 2 -30 13
-67 26 -167 55 -446 182 -537 244 -21 14 -39 25 -42 25 -3 0 -40 26 -82 57
-161 119 -274 260 -323 403 -32 94 -32 246 0 350 57 184 185 363 374 521 32
27 54 49 50 49 -4 -1 -62 -29 -128 -63z"/>
</g>
</svg>
