<svg xmlns="http://www.w3.org/2000/svg" width="40" height="52" viewBox="0 0 40 52">
    <g fill="none" fill-rule="evenodd">
        <path fill="#F60" d="M5 0h23l12 12.002V47a5 5 0 0 1-5 5H5a5 5 0 0 1-5-5V5a5 5 0 0 1 5-5Z"/>
        <path fill="#FFF" fill-opacity=".302" d="M28 0v12.002h12z"/>
        <path fill="#FFF" fill-rule="nonzero" d="M12.165 39h2.723c.073 0 .138-.05.153-.112l.799-2.769h3.086l.856 2.769a.172.172 0 0 0 .16.112h2.825c.094 0 .167-.07.167-.154 0-.028-.008-.05-.015-.07l-3.601-11.201a.157.157 0 0 0-.153-.105h-3.449c-.072 0-.138.042-.152.105l-3.558 11.222c-.015.049 0 .098.029.14.029.035.08.063.13.063Zm13.26-9.14c.914 0 1.575-.596 1.575-1.423-.022-.848-.66-1.437-1.561-1.437-.458 0-.864.154-1.147.428-.262.259-.4.623-.393 1.009-.007.378.131.729.4.988.276.28.675.435 1.125.435Zm-1.293.687c-.095 0-.167.07-.167.154v8.145c0 .084.072.154.167.154h2.621c.087 0 .16-.07.16-.154V30.7a.158.158 0 0 0-.16-.154h-2.621Zm-5.686 3.364h-2.134l.631-2.187c.11-.392.218-.855.327-1.303.022-.106.044-.204.073-.309.138.54.29 1.122.443 1.62l.66 2.18Z"/>
    </g>
</svg>
