<svg xmlns="http://www.w3.org/2000/svg" width="40" height="52" viewBox="0 0 40 52">
    <g fill="none" fill-rule="evenodd">
        <path fill="#0AC963" d="M5 0h23l12 12.002V47a5 5 0 0 1-5 5H5a5 5 0 0 1-5-5V5a5 5 0 0 1 5-5Z"/>
        <path fill="#FFF" fill-opacity=".302" d="M28 0v12.002h12z"/>
        <path fill="#FFF" fill-rule="nonzero" d="M13.144 30.004A1.13 1.13 0 0 0 12 31.124v5.251a1.132 1.132 0 0 0 2.265 0v-5.25c0-.616-.505-1.121-1.121-1.121Zm9.083-4.439.924-.922c.154-.132.154-.374 0-.528-.132-.153-.374-.153-.528 0l-1.078 1.077a5.097 5.097 0 0 0-4.09 0l-1.056-1.077c-.154-.131-.396-.131-.528.022a.373.373 0 0 0 0 .506l.902.922a3.915 3.915 0 0 0-1.76 3.318.37.37 0 0 0 .374.374h8.248a.385.385 0 0 0 .374-.374c0-1.34-.66-2.592-1.782-3.318Zm-4.245 1.473c.088.087.132.22.132.351a.447.447 0 0 1-.132.33.5.5 0 0 1-.352.131.448.448 0 0 1-.33-.131.468.468 0 0 1-.153-.33c0-.132.066-.264.154-.351a.448.448 0 0 1 .33-.132.5.5 0 0 1 .351.132Zm3.74 0c.087.087.153.22.153.351a.467.467 0 0 1-.154.33.448.448 0 0 1-.33.131.5.5 0 0 1-.351-.131.448.448 0 0 1-.132-.33c0-.132.044-.264.132-.351a.5.5 0 0 1 .351-.132c.132 0 .242.044.33.132Zm1.913 2.966h-8.248a.37.37 0 0 0-.374.373v5.998c0 .88.616 1.648 1.496 1.824v2.658A1.13 1.13 0 0 0 17.63 42a1.13 1.13 0 0 0 1.122-1.143v-2.614h1.496v2.614a1.131 1.131 0 0 0 1.699.98c.35-.202.566-.575.566-.98V38.2a1.88 1.88 0 0 0 1.496-1.824v-5.998a.385.385 0 0 0-.374-.373Zm2.243 0c-.616 0-1.121.505-1.121 1.12v5.251c0 .616.505 1.12 1.121 1.12S27 36.992 27 36.376v-5.25c0-.616-.506-1.121-1.122-1.121Z"/>
    </g>
</svg>
