<svg xmlns="http://www.w3.org/2000/svg" width="40" height="52" viewBox="0 0 40 52">
    <g fill="none" fill-rule="evenodd">
        <path fill="#092F41" d="M5 0h23l12 12.002V47a5 5 0 0 1-5 5H5a5 5 0 0 1-5-5V5a5 5 0 0 1 5-5Z"/>
        <path fill="#FFF" fill-opacity=".302" d="M28 0v12.002h12z"/>
        <path fill="#FFF" fill-rule="nonzero" d="m14.302 37-.563-1.707h-2.87L10.307 37H8l3.245-9h2.1l3.245 9h-2.288Zm-2.795-3.608h1.594l-.806-2.386-.788 2.386ZM17.284 37v-9h3.713c.9 0 1.632.272 2.176.795.562.524.825 1.222.825 2.095 0 .873-.263 1.571-.825 2.095-.544.524-1.276.776-2.176.776h-1.482V37h-2.231Zm2.231-5.198h1.238c.319 0 .582-.078.77-.233a.921.921 0 0 0 .262-.679c0-.29-.094-.524-.263-.679-.187-.174-.45-.252-.769-.252h-1.238v1.843ZM30.205 37l-2.325-3.705-.731.815V37h-2.232v-9h2.232v3.045l2.7-3.045h2.888l-3.3 3.627L33 37h-2.794Z"/>
    </g>
</svg>
