<svg xmlns="http://www.w3.org/2000/svg" width="40" height="52" viewBox="0 0 40 52">
    <g fill="none" fill-rule="evenodd">
        <path fill="#00A1E0" d="M5 0h23l12 12.002V47a5 5 0 0 1-5 5H5a5 5 0 0 1-5-5V5a5 5 0 0 1 5-5Z"/>
        <path fill="#FFF" fill-opacity=".302" d="M28 0v12.002h12z"/>
        <path fill="#FFF" fill-rule="nonzero" d="M23.875 38.999h-.962v-1.88h.204c.48 0 .72-.266.72-.798v-2.754c0-.437.112-.779.297-1.007.203-.209.499-.399.887-.57-.37-.151-.665-.341-.869-.57-.203-.227-.314-.55-.314-.987V27.68c0-.532-.24-.798-.721-.798h-.204v-1.88h.962a1.869 1.869 0 0 1 1.4.563c.37.377.573.895.56 1.431v2.944c0 .722.388 1.083 1.165 1.083v1.956c-.777 0-1.165.361-1.165 1.102v2.925a1.975 1.975 0 0 1-.56 1.431 1.869 1.869 0 0 1-1.4.563Zm-6.75 0c-.555 0-1.035-.19-1.405-.57-.37-.38-.555-.855-.555-1.424V34.08c0-.741-.388-1.102-1.165-1.102v-1.956c.777 0 1.165-.361 1.165-1.083v-2.944c0-.57.185-1.044.555-1.424.37-.38.85-.57 1.405-.57h.98v1.88h-.222c-.48 0-.72.266-.72.798v2.754c0 .437-.093.76-.297.988-.203.228-.499.418-.887.57.388.17.684.36.887.57.204.227.296.57.296 1.006v2.754c0 .532.24.798.721.798h.222v1.88h-.98Z"/>
    </g>
</svg>
