<svg xmlns="http://www.w3.org/2000/svg" width="40" height="52" viewBox="0 0 40 52">
    <g fill="none" fill-rule="evenodd">
        <path fill="#008BF5" d="M5 0h23l12 12.002V47a5 5 0 0 1-5 5H5a5 5 0 0 1-5-5V5a5 5 0 0 1 5-5Z"/>
        <path fill="#FFF" fill-opacity=".302" d="M28 0v12.002h12z"/>
        <path fill="#FFF" fill-rule="nonzero" d="M26.521 26.491a8.504 8.504 0 0 0-12.028 0 8.49 8.49 0 0 0 0 12.018 8.504 8.504 0 0 0 12.028 0 8.523 8.523 0 0 0 0-12.018ZM15.877 38.432a6.016 6.016 0 0 1-1.307-1.305c1.114-.845 2.248-1.67 3.362-2.515.154.211.25.307.462.46-.846 1.114-1.672 2.247-2.517 3.36Zm6.36-4.204c-.961.96-2.518.96-3.46 0a2.432 2.432 0 0 1 0-3.456c.942-.94 2.499-.94 3.46 0 .94.96.94 2.496 0 3.456Zm.826-3.84c-.154-.211-.25-.288-.442-.441.826-1.133 1.671-2.247 2.498-3.38.5.366.941.826 1.325 1.325-1.133.826-2.248 1.67-3.381 2.496Z"/>
    </g>
</svg>
