<svg xmlns="http://www.w3.org/2000/svg" width="40" height="52" viewBox="0 0 40 52">
    <g fill="none" fill-rule="evenodd">
        <path fill="#0263D1" d="M5 0h23l12 12.002V47a5 5 0 0 1-5 5H5a5 5 0 0 1-5-5V5a5 5 0 0 1 5-5Z"/>
        <path fill="#FFF" fill-opacity=".302" d="M28 0v12.002h12z"/>
        <path fill="#FFF" fill-rule="nonzero" d="M7 36.9v-8.8h3.011c.602 0 1.163.093 1.682.265.52.18.99.438 1.412.781.423.344.755.803.997 1.376.243.574.367 1.233.367 1.978 0 .745-.124 1.404-.367 1.978-.242.573-.574 1.032-.997 1.376a4.578 4.578 0 0 1-1.412.78c-.519.173-1.08.266-1.682.266H7Zm2.125-1.914h.63c.34 0 .658-.043.941-.121.291-.086.554-.222.803-.402.25-.179.443-.437.582-.774.145-.33.215-.73.215-1.189 0-.459-.07-.86-.215-1.197a1.753 1.753 0 0 0-.582-.766 2.5 2.5 0 0 0-.803-.402 3.534 3.534 0 0 0-.94-.121h-.63v4.972ZM19.626 37c-1.28 0-2.34-.43-3.177-1.283-.838-.852-1.253-1.927-1.253-3.217s.415-2.365 1.253-3.217C17.286 28.43 18.346 28 19.626 28c1.26 0 2.305.43 3.143 1.283.83.852 1.246 1.927 1.246 3.217s-.415 2.365-1.246 3.217C21.93 36.57 20.886 37 19.626 37Zm-1.633-2.644c.422.487.962.73 1.62.73.657 0 1.19-.243 1.612-.73.422-.495.63-1.11.63-1.856 0-.745-.208-1.361-.63-1.856-.422-.487-.955-.73-1.613-.73-.657 0-1.197.243-1.62.73-.422.495-.636 1.11-.636 1.856 0 .745.214 1.361.637 1.856ZM29.068 37c-1.239 0-2.27-.401-3.087-1.19-.824-.795-1.232-1.898-1.232-3.31 0-1.404.415-2.508 1.246-3.303C26.832 28.4 27.85 28 29.068 28c1.1 0 2 .28 2.714.846.706.558 1.114 1.304 1.218 2.235l-2.146.452c-.09-.488-.304-.882-.637-1.176a1.704 1.704 0 0 0-1.163-.444c-.609 0-1.114.222-1.523.674-.408.458-.616 1.089-.616 1.913 0 .824.208 1.455.61 1.906.408.459.913.68 1.53.68.442 0 .823-.128 1.135-.386.311-.258.505-.602.588-1.032l2.194.516c-.2.888-.643 1.576-1.336 2.07-.685.495-1.543.746-2.568.746Z"/>
    </g>
</svg>
