<svg xmlns="http://www.w3.org/2000/svg" width="40" height="52" viewBox="0 0 40 52">
    <g fill="none" fill-rule="evenodd">
        <path fill="#008BF5" d="M5 0h23l12 12.002V47a5 5 0 0 1-5 5H5a5 5 0 0 1-5-5V5a5 5 0 0 1 5-5Z"/>
        <path fill="#FFF" fill-opacity=".302" d="M28 0v12.002h12z"/>
        <path fill="#FFF" fill-rule="nonzero" d="M10 37.884v-9.768h2.361v9.768H10Zm7.052.116a3.652 3.652 0 0 1-2.44-.91c-.703-.61-1.078-1.354-1.14-2.23l2.032-.629c.047.48.219.876.547 1.19.329.315.704.48 1.11.48.345 0 .626-.083.83-.232a.748.748 0 0 0 .312-.628.687.687 0 0 0-.25-.545 1.638 1.638 0 0 0-.641-.364c-.282-.099-.579-.182-.907-.28a7.909 7.909 0 0 1-.985-.364 6.12 6.12 0 0 1-.892-.53c-.265-.198-.484-.495-.64-.859-.173-.363-.25-.793-.25-1.29 0-.792.312-1.47.969-2 .64-.528 1.423-.809 2.33-.809.906 0 1.704.248 2.376.71.673.464 1.095 1.075 1.251 1.819l-2.11.942c-.095-.43-.267-.76-.532-1.008a1.382 1.382 0 0 0-.986-.364 1.243 1.243 0 0 0-.703.182.604.604 0 0 0-.25.512c0 .215.11.38.344.513.219.115.516.215.844.28.344.067.704.166 1.11.298.391.133.75.314 1.095.513.344.215.625.529.86.975.219.446.328.975.328 1.587 0 .909-.328 1.636-.985 2.198-.672.562-1.548.843-2.627.843Zm9.179 0c-1.392 0-2.549-.48-3.456-1.438-.907-.942-1.36-2.132-1.36-3.554 0-1.438.453-2.628 1.36-3.57.907-.959 2.064-1.438 3.456-1.438 1.36 0 2.502.48 3.409 1.438.907.942 1.36 2.132 1.36 3.57 0 1.422-.453 2.612-1.36 3.554-.907.959-2.049 1.438-3.41 1.438Zm-1.783-2.942c.47.545 1.048.81 1.767.81.704 0 1.298-.265 1.751-.81.454-.546.689-1.223.689-2.05 0-.843-.235-1.52-.689-2.066-.453-.545-1.047-.81-1.75-.81-.72 0-1.299.265-1.768.81-.453.546-.688 1.223-.688 2.066 0 .827.235 1.504.688 2.05Z"/>
    </g>
</svg>
