<svg xmlns="http://www.w3.org/2000/svg" width="40" height="52" viewBox="0 0 40 52">
    <g fill="none" fill-rule="evenodd">
        <path fill="#60A313" d="M5 0h23l12 12.002V47a5 5 0 0 1-5 5H5a5 5 0 0 1-5-5V5a5 5 0 0 1 5-5Z"/>
        <path fill="#FFF" fill-opacity=".302" d="M28 0v12.002h12z"/>
        <path fill="#FFF" fill-rule="nonzero" d="M14.25 39c-.307 0-.57-.044-.812-.156a2.087 2.087 0 0 1-1.142-1.133 2.389 2.389 0 0 1-.132-.822v-2.867c0-.31-.088-.533-.241-.689a1.222 1.222 0 0 0-.77-.222H11V30.89h.154c.351 0 .593-.067.769-.222.153-.156.241-.378.241-.69v-2.866c0-.289.044-.578.132-.822.11-.245.264-.489.461-.689.19-.2.423-.353.681-.444.242-.112.505-.156.813-.156h1.12v2.156h-.373c-.198 0-.33.044-.418.133-.088.111-.131.267-.131.489v2.689c0 .222-.044.444-.088.622-.062.17-.15.327-.264.467-.11.11-.242.222-.395.333l-.22.111.22.111c.153.111.285.222.395.333.242.245.352.623.352 1.09v2.71c0 .2.043.378.131.467a.56.56 0 0 0 .418.156h.373V39h-1.12Zm12.5 0h-1.121v-2.133h.373c.176 0 .33-.067.418-.156.088-.089.131-.267.131-.467v-2.71c0-.223.022-.445.088-.623.045-.172.128-.331.242-.467.11-.11.242-.222.417-.333l.198-.111-.198-.111a3.146 3.146 0 0 1-.395-.333.992.992 0 0 1-.264-.467 1.853 1.853 0 0 1-.088-.622v-2.69c0-.221-.043-.377-.131-.488-.088-.089-.242-.133-.418-.133h-.373V25h1.12c.286 0 .571.044.813.156.263.088.483.244.68.444.198.2.352.422.44.689.11.244.154.533.154.822v2.867c0 .31.088.533.241.689.154.155.418.222.77.222H30v2.222h-.154c-.351 0-.615.089-.769.222-.153.156-.241.378-.241.69v2.866c0 .6-.198 1.111-.593 1.511-.19.2-.423.353-.681.444a1.966 1.966 0 0 1-.813.156Zm-6.81-9.711h2.394v2.489h-2.548v-2.49h.154Zm-1.318 9.222 1.01-4.222h2.856a274.956 274.956 0 0 0-2.197 4.422h-1.713l.044-.2Z"/>
    </g>
</svg>
