<svg xmlns="http://www.w3.org/2000/svg" width="40" height="52" viewBox="0 0 40 52">
    <g fill="none" fill-rule="evenodd">
        <path fill="#0AC963" d="M5 0h23l12 12.002V47a5 5 0 0 1-5 5H5a5 5 0 0 1-5-5V5a5 5 0 0 1 5-5Z"/>
        <path fill="#FFF" fill-opacity=".302" d="M28 0v12.002h12z"/>
        <path fill="#FFF" d="M27.198 26H13.825C12.823 26 12 26.813 12 27.802v8.396c0 .989.823 1.802 1.825 1.802h13.373A1.803 1.803 0 0 0 29 36.198v-8.396c0-.989-.801-1.802-1.802-1.802Zm-9.724 2.264c1.09 0 1.958.879 1.958 1.934a1.954 1.954 0 0 1-1.958 1.956c-1.09 0-1.98-.88-1.98-1.956 0-1.055.89-1.934 1.98-1.934Zm10.324 7.934c0 .33-.267.615-.6.615H13.825a.614.614 0 0 1-.601-.615v-.352l2.425-2.395 2.003 1.978a.61.61 0 0 0 .868 0l5.028-4.967 4.25 4.197v1.539Z"/>
    </g>
</svg>
