<svg xmlns="http://www.w3.org/2000/svg" width="40" height="52" viewBox="0 0 40 52">
    <g fill="none" fill-rule="evenodd">
        <path fill="#E0C600" d="M5 0h23l12 12.002V47a5 5 0 0 1-5 5H5a5 5 0 0 1-5-5V5a5 5 0 0 1 5-5Z"/>
        <path fill="#FFF" fill-opacity=".302" d="M28 0v12.002h12z"/>
        <path fill="#FFF" fill-rule="nonzero" d="M13 35.506c.209.039.418.058.627.058.874 0 1.31-.425 1.31-1.256v-7.192h2.546v7.346c0 1.14-.285 2.01-.855 2.61-.55.58-1.33.89-2.317.89-.4 0-.836-.04-1.311-.136v-2.32ZM22.878 38c-1.064 0-2.014-.329-2.812-.986-.797-.677-1.234-1.489-1.291-2.474l2.317-.677c.057.522.266.967.627 1.315.38.347.798.521 1.273.521.399 0 .703-.096.95-.27.247-.174.36-.387.36-.677a.755.755 0 0 0-.284-.6 1.958 1.958 0 0 0-.741-.405c-.304-.097-.646-.213-1.026-.31a6.71 6.71 0 0 1-1.14-.405 4.732 4.732 0 0 1-1.007-.58c-.303-.213-.55-.542-.76-.948-.19-.406-.284-.87-.284-1.41 0-.89.38-1.625 1.12-2.205.741-.599 1.634-.889 2.679-.889 1.026 0 1.937.251 2.716.773.76.503 1.235 1.18 1.425 2.01l-2.412 1.025c-.114-.464-.304-.83-.608-1.101a1.635 1.635 0 0 0-1.121-.406c-.342 0-.608.077-.817.212a.658.658 0 0 0-.285.56c0 .233.133.407.399.561.247.136.57.252.969.31.883.16 1.735.46 2.526.889.38.232.703.6.97 1.083.265.483.379 1.063.379 1.759 0 .986-.38 1.798-1.14 2.416-.76.6-1.747.909-2.982.909Z"/>
    </g>
</svg>
