<svg xmlns="http://www.w3.org/2000/svg" width="40" height="52" viewBox="0 0 40 52">
    <g fill="none" fill-rule="evenodd">
        <path fill="#0067BD" d="M5 0h23l12 12.002V47a5 5 0 0 1-5 5H5a5 5 0 0 1-5-5V5a5 5 0 0 1 5-5Z"/>
        <path fill="#FFF" fill-opacity=".302" d="M28 0v12.002h12z"/>
        <path fill="#FFF" fill-rule="nonzero" d="m23.28 32.48 5.89 3.72v-7.59l-5.89 3.87Zm-.99.66-1.55 1.02a.53.53 0 0 1-.3.09c-.1 0-.21-.03-.3-.09l-1.54-1.02-6.85 4.33c.09.52.52.92 1.06.92h15.27c.54 0 .97-.4 1.05-.92l-6.84-4.33Zm5.79-6.75H12.81c-.55 0-.98.41-1.06.93l8.69 5.73 8.69-5.73c-.08-.52-.51-.93-1.05-.93Zm-16.36 2.22v7.59l5.88-3.72-5.88-3.87Z"/>
    </g>
</svg>
