<svg xmlns="http://www.w3.org/2000/svg" width="40" height="52" viewBox="0 0 40 52">
    <g fill="none" fill-rule="evenodd">
        <path fill="#008BF5" d="M5 0h23l12 12.002V47a5 5 0 0 1-5 5H5a5 5 0 0 1-5-5V5a5 5 0 0 1 5-5Z"/>
        <path fill="#FFF" fill-opacity=".302" d="M28 0v12.002h12z"/>
        <path fill="#FFF" fill-rule="nonzero" d="M13.644 26.638A9.006 9.006 0 0 1 20.01 24a8.929 8.929 0 0 1 6.347 2.638A8.942 8.942 0 0 1 29 32.996v4.043a1.88 1.88 0 0 1-.567 1.367c-.34.36-.83.57-1.36.57h-.925v-5.904h1.001v-.076a7.137 7.137 0 0 0-2.097-5.03A7.122 7.122 0 0 0 20 25.862a7.122 7.122 0 0 0-5.052 2.106 7.12 7.12 0 0 0-2.078 5.03v.075h1v5.903h-.925c-.547 0-1.02-.209-1.378-.57A1.958 1.958 0 0 1 11 37.04v-4.043a9.022 9.022 0 0 1 2.644-6.358Zm9.557 5.428h.51c.379.003.74.156 1.006.427.266.27.414.636.411 1.016v5.049c0 .398-.151.759-.416 1.005a1.364 1.364 0 0 1-1 .437h-.51a.923.923 0 0 1-.662-.28.932.932 0 0 1-.264-.669v-6.055c0-.246.094-.493.264-.645a.923.923 0 0 1 .661-.285Zm-6.894 0h.492c.264 0 .49.114.66.285.17.152.265.399.265.645v6.055a.932.932 0 0 1-.264.67.923.923 0 0 1-.661.279h-.492a1.44 1.44 0 0 1-1.02-.437 1.362 1.362 0 0 1-.415-1.005v-5.05c0-.398.151-.758.416-1.024.275-.263.64-.412 1.02-.418Z"/>
    </g>
</svg>
