<svg xmlns="http://www.w3.org/2000/svg" width="40" height="52" viewBox="0 0 40 52">
    <g fill="none" fill-rule="evenodd">
        <path fill="#FA0000" d="M5 0h23l12 12.002V47a5 5 0 0 1-5 5H5a5 5 0 0 1-5-5V5a5 5 0 0 1 5-5Z"/>
        <path fill="#FFF" fill-opacity=".302" d="M28 0v12.002h12z"/>
        <path fill="#FFF" fill-rule="nonzero" d="M20.507 24C15.813 24 12 27.813 12 32.507 12 37.2 15.813 41 20.507 41A8.49 8.49 0 0 0 29 32.507c0-4.694-3.813-8.494-8.493-8.507Zm3.576 8.77a.697.697 0 0 1-.276.276l-4.852 2.432a.61.61 0 0 1-.815-.276.479.479 0 0 1-.066-.276v-4.852c0-.342.276-.605.605-.605.092 0 .184.014.276.066l4.852 2.42c.302.157.42.512.276.815Z"/>
    </g>
</svg>
