<svg xmlns="http://www.w3.org/2000/svg" width="40" height="52" viewBox="0 0 40 52">
    <g fill="none" fill-rule="evenodd">
        <path fill="#90C" d="M5 0h23l12 12.002V47a5 5 0 0 1-5 5H5a5 5 0 0 1-5-5V5a5 5 0 0 1 5-5Z"/>
        <path fill="#FFF" fill-opacity=".302" d="M28 0v12.002h12z"/>
        <path fill="#FFF" fill-rule="nonzero" d="M24.107 34.182a6.71 6.71 0 0 0 .889-2.925 4.223 4.223 0 0 0-.429-2.03c-.507-1.039-1.364-1.614-2.205-2.19-.619-.415-1.206-.815-1.619-1.374l-.079-.096c-.238-.335-.524-.72-.571-1.039-.032-.32-.333-.543-.635-.527a.613.613 0 0 0-.571.623V35.59a3.451 3.451 0 0 0-1.84-.512C15.364 35.077 14 36.18 14 37.54 14 38.897 15.365 40 17.046 40c1.682 0 3.063-1.103 3.063-2.461v-7.177c.92.368 2.411 1.263 2.824 3.357-.08.111-.143.24-.238.335-.222.256-.19.64.063.88a.602.602 0 0 0 .857-.065c.159-.191.318-.4.445-.639l.047-.048Z"/>
    </g>
</svg>
