<svg xmlns="http://www.w3.org/2000/svg" width="40" height="52" viewBox="0 0 40 52">
    <g fill="none" fill-rule="evenodd">
        <path fill="#E5252A" d="M5 0h23l12 12.002V47a5 5 0 0 1-5 5H5a5 5 0 0 1-5-5V5a5 5 0 0 1 5-5Z"/>
        <path fill="#FFF" fill-opacity=".302" d="M28 0v12.002h12z"/>
        <path fill="#FFF" fill-rule="nonzero" d="M8 39v-9h4.099c1.014 0 1.818.259 2.424.788.607.517.91 1.219.91 2.093 0 .874-.303 1.576-.91 2.093-.606.53-1.41.788-2.424.788h-1.635V39H8Zm2.464-5.196h1.358c.369 0 .659-.073.856-.246.198-.16.304-.382.304-.677 0-.296-.106-.517-.304-.677-.197-.173-.487-.246-.856-.246h-1.358v1.846ZM16.448 39v-9h3.413c.672 0 1.305.086 1.898.27a5.228 5.228 0 0 1 1.607.801c.475.345.857.813 1.134 1.404.263.59.408 1.268.408 2.031 0 .751-.145 1.428-.408 2.02a3.572 3.572 0 0 1-1.134 1.403 5.228 5.228 0 0 1-1.607.8A6.348 6.348 0 0 1 19.86 39h-3.413Zm2.411-1.958h.712c.382 0 .738-.037 1.067-.123.317-.086.62-.221.91-.406.276-.185.5-.443.659-.788.158-.345.237-.751.237-1.219 0-.48-.08-.886-.237-1.231a1.85 1.85 0 0 0-.66-.788 3.303 3.303 0 0 0-.909-.406 4.213 4.213 0 0 0-1.067-.123h-.712v5.084ZM26.147 39v-9H33v1.958h-4.389v1.44h3.506v1.945h-3.506V39h-2.464Z"/>
    </g>
</svg>
