<svg xmlns="http://www.w3.org/2000/svg" width="40" height="52" viewBox="0 0 40 52">
    <g fill="none" fill-rule="evenodd">
        <path fill="#7542ED" d="M5 0h23l12 12.002V47a5 5 0 0 1-5 5H5a5 5 0 0 1-5-5V5a5 5 0 0 1 5-5Z"/>
        <path fill="#FFF" fill-opacity=".302" d="M28 0v12.002h12z"/>
        <path fill="#FFF" fill-rule="nonzero" d="M11.93 36.572a1.012 1.012 0 0 1-.353-.234l-4.245-4.092c-.11-.085-.177-.213-.244-.341C7.044 31.777 7 31.649 7 31.5c0-.15.044-.277.088-.405.067-.128.133-.256.244-.34l4.245-4.093c.088-.106.22-.17.353-.234.133-.043.266-.085.42-.085.31 0 .575.127.774.32a.983.983 0 0 1 .332.745c0 .15-.022.277-.089.426a.892.892 0 0 1-.243.341L9.675 31.5l3.45 3.325c.11.106.198.213.242.34.067.15.089.278.089.427 0 .277-.11.554-.332.746a1.103 1.103 0 0 1-.774.32c-.154 0-.287-.043-.42-.086Zm6.036-7.033c-.208.193-.485.3-.774.299-.31 0-.597-.107-.796-.299a1.057 1.057 0 0 1-.31-.767c0-1.044.42-1.982 1.15-2.664C17.944 25.405 18.916 25 20 25c1.083 0 2.078.405 2.786 1.108a3.686 3.686 0 0 1 .265 5.072 3.84 3.84 0 0 1-1.946 1.236v1.812c.002.278-.109.546-.31.746a1.16 1.16 0 0 1-.795.32c-.606-.012-1.094-.482-1.105-1.066V31.5c0-.298.132-.554.331-.746.206-.199.483-.313.774-.32.486 0 .906-.191 1.216-.49.327-.308.51-.73.51-1.172 0-.44-.183-.863-.51-1.172A1.719 1.719 0 0 0 20 27.131c-.464 0-.906.17-1.216.469-.31.298-.486.725-.486 1.172 0 .298-.133.576-.332.767Zm2.83 6.65c.2.2.311.467.31.745 0 .299-.111.576-.31.768A1.143 1.143 0 0 1 20 38a1.128 1.128 0 0 1-.774-.298c-.21-.204-.33-.48-.331-.768.011-.583.5-1.054 1.105-1.065.31 0 .597.128.796.32Zm6.456.383a1.11 1.11 0 0 1-.376-.234c-.089-.107-.177-.213-.243-.341a1.293 1.293 0 0 1 0-.831c.066-.128.154-.235.243-.341l3.449-3.325-3.45-3.325c-.088-.106-.176-.213-.242-.34a1.329 1.329 0 0 1-.067-.427c-.001-.278.11-.546.31-.746a1.16 1.16 0 0 1 .796-.32c.132 0 .287.043.42.086.132.064.265.128.354.234l4.244 4.092a.924.924 0 0 1 .222.341.839.839 0 0 1 .088.405 1.2 1.2 0 0 1-.066.405 1.374 1.374 0 0 1-.244.34l-4.244 4.093c-.089.106-.222.17-.354.234a1.474 1.474 0 0 1-.42.085c-.155 0-.288-.042-.42-.085Z"/>
    </g>
</svg>
