<svg xmlns="http://www.w3.org/2000/svg" width="40" height="52" viewBox="0 0 40 52">
    <g fill="none" fill-rule="evenodd">
        <path fill="#E03303" d="M5 0h23l12 12.002V47a5 5 0 0 1-5 5H5a5 5 0 0 1-5-5V5a5 5 0 0 1 5-5Z"/>
        <path fill="#FFF" fill-opacity=".302" d="M28 0v12.002h12z"/>
        <path fill="#FFF" fill-rule="nonzero" d="M18.953 25.409A7.318 7.318 0 0 0 12 32.799c.064 3.936 3.261 7.152 7.193 7.2a7.272 7.272 0 0 0 7.384-6.943.331.331 0 0 0-.335-.352H19.64c-.192 0-.352-.16-.352-.336v-6.624a.328.328 0 0 0-.336-.335Zm1.758-1.072v6.607c0 .192.144.336.336.336h6.617c.192 0 .336-.16.336-.352a7.285 7.285 0 0 0-6.937-6.927.33.33 0 0 0-.352.336Z"/>
    </g>
</svg>
