<svg xmlns="http://www.w3.org/2000/svg" width="40" height="52" viewBox="0 0 40 52">
    <g fill="none" fill-rule="evenodd">
        <path fill="#E03303" d="M5 0h23l12 12.002V47a5 5 0 0 1-5 5H5a5 5 0 0 1-5-5V5a5 5 0 0 1 5-5Z"/>
        <path fill="#FFF" fill-opacity=".302" d="M28 0v12.002h12z"/>
        <path fill="#FFF" fill-rule="nonzero" d="M8 37v-9h3.99c.98 0 1.768.26 2.362.792.58.52.878 1.214.878 2.092 0 .867-.297 1.573-.878 2.093-.594.52-1.382.78-2.363.78h-1.6V37H8Zm2.388-5.2h1.33c.362 0 .633-.074.84-.235.193-.16.283-.396.283-.68 0-.298-.09-.52-.284-.681-.206-.161-.477-.248-.839-.248h-1.33v1.845Zm5.849 5.2v-9h3.989c.981 0 1.769.26 2.362.792.594.52.878 1.214.878 2.092 0 .867-.284 1.573-.878 2.093-.593.52-1.38.78-2.362.78h-1.588V37h-2.401Zm2.401-5.2h1.317c.361 0 .645-.074.839-.235.194-.16.297-.396.297-.68 0-.298-.103-.52-.297-.681-.194-.161-.478-.248-.84-.248h-1.316v1.845Zm8.275 5.2v-7.044h-2.672V28H32v1.956h-2.685V37h-2.402Z"/>
    </g>
</svg>
