<svg xmlns="http://www.w3.org/2000/svg" width="40" height="52" viewBox="0 0 40 52">
    <g fill="none" fill-rule="evenodd">
        <path fill="#0505DD" d="M5 0h23l12 12.002V47a5 5 0 0 1-5 5H5a5 5 0 0 1-5-5V5a5 5 0 0 1 5-5Z"/>
        <path fill="#FFF" fill-opacity=".302" d="M28 0v12.002h12z"/>
        <path fill="#FFF" d="M15.56 38.46v-3.9c.21.02.45.03.72.03 1.64 0 2.96-.43 3.82-1.25.71-.67 1.1-1.68 1.1-2.83 0-1.11-.46-2.12-1.28-2.77-.8-.64-1.97-.95-3.59-.95-1.4 0-2.58.08-3.52.24-.07.02-.13.08-.13.16v11.27c0 .09.07.16.16.16h2.56c.09 0 .16-.07.16-.16Zm10.28-5.22c-1.05-.37-1.23-.54-1.23-.8 0-.45.52-.51.82-.51.66 0 1.34.24 1.72.45.05.02.1.03.14.01.05-.02.08-.06.09-.11l.46-1.78c.02-.07-.01-.15-.08-.18-.48-.24-1.36-.49-2.41-.49-2.08 0-3.53 1.18-3.53 2.87-.02.82.4 1.95 2.46 2.64 1 .34 1.11.51 1.11.8 0 .13 0 .54-.94.54-.71 0-1.66-.32-2.14-.61a.17.17 0 0 0-.14-.01c-.05.02-.08.06-.09.11l-.46 1.85c-.02.07.01.14.08.18.7.37 1.7.59 2.75.59 2.31 0 3.75-1.09 3.75-2.84-.02-1.32-.74-2.15-2.36-2.71Zm-10.28-.99v-3.12c.16-.03.45-.07.91-.07 1.18 0 1.86.56 1.86 1.52 0 1.07-.77 1.71-2.07 1.71-.31 0-.53-.02-.7-.04Z"/>
    </g>
</svg>
