<svg xmlns="http://www.w3.org/2000/svg" width="40" height="52" viewBox="0 0 40 52">
    <g fill="none" fill-rule="evenodd">
        <path fill="#FA0000" d="M5 0h23l12 12.002V47a5 5 0 0 1-5 5H5a5 5 0 0 1-5-5V5a5 5 0 0 1 5-5Z"/>
        <path fill="#FFF" fill-opacity=".302" d="M28 0v12.002h12z"/>
        <path fill="#FFF" fill-rule="nonzero" d="M25 32.26a.543.543 0 0 0-.548-.561.549.549 0 0 0-.555.56c0 2.209-1.746 3.997-3.897 3.997-2.15 0-3.897-1.788-3.897-3.997 0-.315-.24-.56-.555-.56a.547.547 0 0 0-.548.56c0 2.623 1.911 4.824 4.452 5.105v1.507h-2.007a.549.549 0 0 0-.555.561c0 .323.24.568.555.568h5.11a.55.55 0 0 0 .555-.568c0-.315-.24-.56-.555-.56h-2v-1.508c2.534-.28 4.445-2.482 4.445-5.105ZM20 24c-1.692 0-3.068 1.41-3.068 3.141v5.104c0 1.746 1.376 3.142 3.068 3.163 1.692 0 3.075-1.417 3.075-3.149v-5.118C23.075 25.41 21.692 24 20 24Z"/>
    </g>
</svg>
