<svg xmlns="http://www.w3.org/2000/svg" width="40" height="52" viewBox="0 0 40 52">
    <g fill="none" fill-rule="evenodd">
        <path fill="#FF9100" d="M5 0h23l12 12.002V47a5 5 0 0 1-5 5H5a5 5 0 0 1-5-5V5a5 5 0 0 1 5-5Z"/>
        <path fill="#FFF" fill-opacity=".302" d="M28 0v12.002h12z"/>
        <path fill="#FFF" fill-rule="nonzero" d="M10.722 38.04c-.973 0-1.815-.297-2.538-.905C7.46 36.527 7.066 35.77 7 34.892l2.104-.635c.053.486.237.892.579 1.202.329.325.723.473 1.144.473.355 0 .644-.067.855-.23a.749.749 0 0 0 .329-.634.678.678 0 0 0-.25-.541 2.21 2.21 0 0 0-.684-.365c-.276-.094-.579-.189-.92-.284a7.767 7.767 0 0 1-1.026-.364 4.49 4.49 0 0 1-.921-.541 2.17 2.17 0 0 1-.67-.851 3.12 3.12 0 0 1-.264-1.298c0-.81.342-1.486 1-2.013.67-.54 1.486-.811 2.433-.811.933 0 1.749.23 2.446.703.697.473 1.13 1.08 1.302 1.838l-2.183.932a2.046 2.046 0 0 0-.553-1 1.486 1.486 0 0 0-1.012-.365c-.316 0-.553.054-.737.19a.605.605 0 0 0-.263.513c0 .203.119.365.355.5.237.135.526.23.881.284a7.67 7.67 0 0 1 1.145.31c.407.136.789.311 1.13.514.356.203.645.527.882.973.236.446.355.986.355 1.608 0 .905-.342 1.635-1.026 2.203-.684.554-1.591.838-2.71.838Zm14.453-.432L23.675 39l-1.288-1.419c-.684.31-1.407.46-2.183.46-1.434 0-2.63-.473-3.564-1.433-.947-.946-1.42-2.149-1.42-3.581 0-1.446.473-2.649 1.42-3.595.934-.959 2.13-1.432 3.564-1.432 1.42 0 2.604.473 3.538 1.432.933.946 1.407 2.15 1.407 3.595 0 1.27-.382 2.365-1.131 3.284l1.157 1.297Zm-4.984-1.703c.197 0 .407-.013.618-.067l-1.394-1.54 1.525-1.406 1.447 1.622c.224-.473.329-.973.329-1.487 0-.838-.237-1.527-.71-2.081-.474-.54-1.079-.81-1.815-.81a2.35 2.35 0 0 0-1.828.81c-.474.554-.71 1.243-.71 2.081 0 .824.236 1.514.71 2.068a2.35 2.35 0 0 0 1.828.81Zm6.207 2.027v-9.824h2.446v7.69H33v2.134h-6.602Z"/>
    </g>
</svg>
