<svg xmlns="http://www.w3.org/2000/svg" width="40" height="52" viewBox="0 0 40 52">
    <g fill="none" fill-rule="evenodd">
        <path fill="#F60" d="M5 0h23l12 12.002V47a5 5 0 0 1-5 5H5a5 5 0 0 1-5-5V5a5 5 0 0 1 5-5Z"/>
        <path fill="#FFF" fill-opacity=".302" d="M28 0v12.002h12z"/>
        <path fill="#FFF" fill-rule="nonzero" d="M10.697 37c-.96 0-1.806-.3-2.524-.906-.718-.606-1.109-1.351-1.173-2.235l2.09-.628c.05.482.235.884.576 1.205.334.314.711.475 1.138.475.355 0 .64-.08.86-.241a.752.752 0 0 0 .327-.628.72.72 0 0 0-.263-.548 1.957 1.957 0 0 0-.668-.358c-.278-.095-.59-.19-.925-.285a6.747 6.747 0 0 1-1.016-.358 5.166 5.166 0 0 1-.917-.533 2.162 2.162 0 0 1-.676-.862c-.17-.365-.256-.796-.256-1.293 0-.796.334-1.468.996-2.001.668-.534 1.471-.804 2.417-.804.931 0 1.749.234 2.438.701.697.46 1.13 1.074 1.301 1.826l-2.175.935c-.1-.416-.284-.752-.562-.993a1.426 1.426 0 0 0-1.002-.373c-.306 0-.548.059-.725.19a.587.587 0 0 0-.27.504c0 .212.12.38.355.504.235.132.526.227.874.293.349.058.733.16 1.138.299.412.139.79.307 1.138.519.348.204.64.526.874.964.235.445.355.979.355 1.6 0 .905-.34 1.636-1.023 2.198-.69.555-1.586.833-2.702.833Zm7.23-.11-3.355-9.78h2.474l2.026 6.764 2.055-6.764h2.46l-3.356 9.78h-2.303Zm10.395.11c-1.315 0-2.432-.438-3.356-1.308-.917-.876-1.38-2.103-1.38-3.688 0-1.074.235-1.995.712-2.769.469-.774 1.066-1.337 1.799-1.694A5.434 5.434 0 0 1 28.52 27c1.237 0 2.247.3 3.029.898.782.607 1.265 1.447 1.45 2.528l-2.396.497c-.1-.548-.341-.987-.725-1.308-.384-.329-.846-.49-1.38-.49-.746 0-1.343.256-1.805.775-.455.519-.69 1.22-.69 2.104 0 .884.228 1.585.683 2.103.455.512 1.045.775 1.77.775.554 0 1.017-.132 1.4-.402.377-.263.605-.614.676-1.037h-2.346v-1.958h4.593v5.405H30.56v-.862c-.184.293-.49.534-.895.709a3.35 3.35 0 0 1-1.344.263Z"/>
    </g>
</svg>
