<svg xmlns="http://www.w3.org/2000/svg" width="40" height="52" viewBox="0 0 40 52">
    <g fill="none" fill-rule="evenodd">
        <path fill="#251D36" d="M5 0h23l12 12.002V47a5 5 0 0 1-5 5H5a5 5 0 0 1-5-5V5a5 5 0 0 1 5-5Z"/>
        <path fill="#FFF" fill-opacity=".302" d="M28 0v12.002h12z"/>
        <path fill="#FFF" fill-rule="nonzero" d="M26.857 33.136H13.15a1.144 1.144 0 0 0 0 2.288h13.706a1.144 1.144 0 0 0 0-2.288Zm0 4.576H13.15a1.144 1.144 0 0 0 0 2.288h13.706a1.144 1.144 0 0 0 0-2.288ZM19.884 24h-6.733c-.64 0-1.151.496-1.151 1.136 0 .64.512 1.136 1.151 1.136h6.733c.64 0 1.151-.496 1.151-1.136 0-.64-.511-1.136-1.15-1.136Zm6.973 4.56H13.15a1.144 1.144 0 0 0 0 2.288h13.706a1.144 1.144 0 0 0 0-2.288Z"/>
    </g>
</svg>
