<svg xmlns="http://www.w3.org/2000/svg" width="40" height="52" viewBox="0 0 40 52">
    <g fill="none" fill-rule="evenodd">
        <path fill="#EB3023" d="M5 0h23l12 12.002V47a5 5 0 0 1-5 5H5a5 5 0 0 1-5-5V5a5 5 0 0 1 5-5Z"/>
        <path fill="#FFF" fill-opacity=".302" d="M28 0v12.002h12z"/>
        <path fill="#FFF" fill-rule="nonzero" d="M21.705 29.054h2.19v4.11c0 .457.228.692.689.692.33 0 .6-.207.806-.616.213-.408.323-.961.323-1.674 0-1.37-.454-2.435-1.35-3.197-.902-.76-2.08-1.141-3.532-1.141-1.646 0-2.983.477-4.009 1.439-1.019.955-1.529 2.2-1.529 3.736 0 1.591.503 2.885 1.516 3.875 1.012.996 2.327 1.487 3.946 1.487 1.474 0 2.947-.401 4.428-1.217l.758 2.283C24.08 39.613 22.298 40 20.583 40c-2.177 0-3.988-.72-5.427-2.159C13.716 36.395 13 34.583 13 32.403c0-2.124.744-3.895 2.231-5.3C16.72 25.7 18.58 25 20.831 25c2.052 0 3.76.623 5.124 1.868C27.318 28.113 28 29.678 28 31.566c0 1.384-.33 2.47-.992 3.259-.668.795-1.536 1.19-2.603 1.19-1.095 0-1.846-.367-2.252-1.1-.413.63-1.095.94-2.046.94-.964 0-1.742-.31-2.32-.933-.586-.616-.875-1.46-.875-2.519 0-1.065.282-1.903.84-2.525.558-.623 1.309-.927 2.245-.927.744 0 1.309.207 1.708.636v-.533Zm-2.272 4.498a1.27 1.27 0 0 0 1.005.442c.413 0 .744-.145.999-.435.248-.284.378-.672.378-1.156 0-.484-.13-.872-.378-1.162-.255-.29-.586-.436-.999-.436-.413 0-.744.152-1.005.443-.255.297-.386.685-.386 1.155s.13.858.386 1.149Z"/>
    </g>
</svg>
