<svg xmlns="http://www.w3.org/2000/svg" width="40" height="52" viewBox="0 0 40 52">
    <g fill="none" fill-rule="evenodd">
        <path fill="#F60" d="M5 0h23l12 12.002V47a5 5 0 0 1-5 5H5a5 5 0 0 1-5-5V5a5 5 0 0 1 5-5Z"/>
        <path fill="#FFF" fill-opacity=".302" d="M28 0v12.002h12z"/>
        <path fill="#FFF" fill-rule="nonzero" d="M29.17 34.32h-.57c-.19-2.76-1.78-5.2-4.09-6.54h2.03c.23.63.83 1.09 1.54 1.09.9 0 1.63-.74 1.63-1.64 0-.9-.73-1.64-1.63-1.64-.71 0-1.31.46-1.54 1.09h-4.46v-.54c0-.3-.25-.55-.55-.55h-2.18c-.3 0-.54.25-.54.55v.54h-4.47c-.22-.63-.82-1.09-1.53-1.09-.9 0-1.64.74-1.64 1.64 0 .9.74 1.64 1.64 1.64.71 0 1.31-.46 1.53-1.09h2.04c-2.32 1.34-3.91 3.78-4.09 6.54h-.57c-.3 0-.55.24-.55.54v2.19c0 .3.25.54.55.54h2.18c.3 0 .54-.24.54-.54v-2.19c0-.3-.24-.54-.54-.54h-.5A7.08 7.08 0 0 1 18.81 28v.32c0 .3.24.55.54.55h2.18c.3 0 .55-.25.55-.55V28c2.96.7 5.16 3.27 5.4 6.32h-.49a.54.54 0 0 0-.55.54v2.19c0 .3.24.54.55.54h2.18c.3 0 .54-.24.54-.54v-2.19c0-.3-.24-.54-.54-.54Z"/>
    </g>
</svg>
