<svg xmlns="http://www.w3.org/2000/svg" width="40" height="52" viewBox="0 0 40 52">
    <g fill="none" fill-rule="evenodd">
        <path fill="#FA0000" d="M5 0h23l12 12.002V47a5 5 0 0 1-5 5H5a5 5 0 0 1-5-5V5a5 5 0 0 1 5-5Z"/>
        <path fill="#FFF" fill-opacity=".302" d="M28 0v12.002h12z"/>
        <path fill="#FFF" fill-rule="nonzero" d="M29.664 27.431c-.179-.132-.447-.132-.649-.044l-4.453 2.202v-1.585a1.965 1.965 0 0 0-.59-1.424 2.031 2.031 0 0 0-1.447-.58h-9.489C11.918 26 11 26.88 11 28.004v7.992C11 37.12 11.918 38 13.036 38h9.49a2.031 2.031 0 0 0 1.446-.58c.383-.377.596-.89.59-1.424v-1.585l4.453 2.202a.709.709 0 0 0 .918-.309.696.696 0 0 0 .067-.308v-7.992a.655.655 0 0 0-.336-.573Zm-11.883 7.244c-1.5 0-2.708-1.21-2.708-2.686 0-1.475 1.208-2.664 2.708-2.664 1.5 0 2.708 1.189 2.708 2.664s-1.209 2.686-2.708 2.686Z"/>
    </g>
</svg>
