<svg xmlns="http://www.w3.org/2000/svg" width="40" height="52" viewBox="0 0 40 52">
    <g fill="none" fill-rule="evenodd">
        <path fill="#0263D1" d="M5 0h23l12 12.002V47a5 5 0 0 1-5 5H5a5 5 0 0 1-5-5V5a5 5 0 0 1 5-5Z"/>
        <path fill="#FFF" fill-opacity=".302" d="M28 0v12.002h12z"/>
        <path fill="#FFF" fill-rule="nonzero" d="M27.3 27.05H13.59c-.63 0-1.15-.51-1.15-1.14 0-.63.52-1.14 1.15-1.14H27.3a1.14 1.14 0 0 1 0 2.28Zm-4.57 13.71h-9.14c-.63 0-1.15-.51-1.15-1.14 0-.63.52-1.14 1.15-1.14h9.14a1.14 1.14 0 0 1 0 2.28Zm4.57-4.57H13.59c-.63 0-1.15-.51-1.15-1.14 0-.63.52-1.14 1.15-1.14H27.3a1.14 1.14 0 0 1 0 2.28Zm0-4.57H13.59c-.63 0-1.15-.51-1.15-1.14 0-.63.52-1.14 1.15-1.14H27.3a1.14 1.14 0 0 1 0 2.28Z"/>
    </g>
</svg>
