<svg xmlns="http://www.w3.org/2000/svg" width="40" height="52" viewBox="0 0 40 52">
    <g fill="none" fill-rule="evenodd">
        <path fill="#00733B" d="M5 0h23l12 12.002V47a5 5 0 0 1-5 5H5a5 5 0 0 1-5-5V5a5 5 0 0 1 5-5Z"/>
        <path fill="#FFF" fill-opacity=".302" d="M28 0v12.002h12z"/>
        <path fill="#FFF" fill-rule="nonzero" d="M16.662 38.882h-2.566l-1.755-3.006-1.756 3.006H8l3.048-5.226-2.681-4.538h2.585l1.389 2.357 1.37-2.357h2.585l-2.663 4.558 3.03 5.206Zm.907 0v-9.764h2.45v7.642h4.167v2.122H17.57ZM28.238 39a3.877 3.877 0 0 1-2.547-.923c-.714-.59-1.119-1.336-1.177-2.22l2.103-.63c.058.472.251.885.58 1.2.346.314.732.47 1.157.47.347 0 .636-.078.868-.235a.761.761 0 0 0 .328-.629c0-.216-.097-.393-.27-.55a2.439 2.439 0 0 0-.675-.353 8.803 8.803 0 0 0-.927-.275 6.384 6.384 0 0 1-1.022-.374 3.582 3.582 0 0 1-.926-.53c-.29-.197-.502-.491-.675-.865-.174-.353-.27-.785-.27-1.277 0-.805.328-1.473 1.003-2.003.675-.55 1.485-.806 2.43-.806.946 0 1.776.236 2.47.688.695.471 1.138 1.08 1.312 1.827l-2.2.943a1.964 1.964 0 0 0-.559-1.002 1.523 1.523 0 0 0-1.022-.373c-.309 0-.54.078-.733.196-.174.118-.251.295-.251.51 0 .197.115.374.347.512.232.117.54.216.887.275a6.948 6.948 0 0 1 2.296.825c.348.196.637.53.868.962.251.452.367.983.367 1.592 0 .904-.347 1.65-1.042 2.2-.694.55-1.601.845-2.72.845Z"/>
    </g>
</svg>
