<svg xmlns="http://www.w3.org/2000/svg" width="40" height="52" viewBox="0 0 40 52">
    <g fill="none" fill-rule="evenodd">
        <path fill="#FFB11F" d="M5 0h23l12 12.002V47a5 5 0 0 1-5 5H5a5 5 0 0 1-5-5V5a5 5 0 0 1 5-5Z"/>
        <path fill="#FFF" fill-opacity=".302" d="M28 0v12.002h12z"/>
        <path fill="#FFF" fill-rule="nonzero" d="M13.934 23.791v-3.176a.602.602 0 0 0-.598-.615h-1.67a.602.602 0 0 0-.598.615v3.176l-.932 2.804c-.264.787-.139 1.66.334 2.332A2.466 2.466 0 0 0 12.501 30a2.484 2.484 0 0 0 2.033-1.078 2.636 2.636 0 0 0 .332-2.327l-.932-2.804Zm-.219 3.619c-.55.787-1.874.787-2.44 0a1.487 1.487 0 0 1-.193-1.35l.355-1.06h2.117l.371 1.06c.146.45.08.964-.21 1.35ZM9 3.014v1.707c0 .336.25.602.566.602h2.145v2.546H9.566c-.316 0-.566.266-.566.602v1.315c0 .336.25.616.566.616h2.145v2.533H9.566c-.316 0-.566.266-.566.601v1.33c0 .335.25.601.566.601h2.145v1.931a.59.59 0 0 0 .578.602h3.145c.303 0 .566-.266.566-.602V16.07c0-.322-.263-.602-.566-.602h-2.158v-2.532h2.158c.303 0 .566-.266.566-.602v-1.33c0-.335-.263-.6-.566-.6h-2.158V7.868h2.158c.303 0 .566-.28.566-.615V5.938c0-.335-.263-.615-.566-.615h-2.158V3L9 3.014Z"/>
    </g>
</svg>
