<svg width="153" height="96" viewBox="0 0 153 96" fill="none" xmlns="http://www.w3.org/2000/svg">
<path d="M122.949 14.5787H19.2787C16.9979 14.5787 14.9937 16.583 14.9937 18.8637V90.189C14.9937 92.4698 16.9979 91.6404 19.2787 91.6404H122.673C124.953 91.6404 126.958 92.4698 126.958 90.189V18.8637C127.234 16.583 125.23 14.5787 122.949 14.5787Z" fill="#F1F3F9" stroke="#D6DCE8" stroke-width="2" stroke-miterlimit="10" stroke-linejoin="round"/>
<path d="M140.296 87.6318V89.9126C140.296 92.4698 138.016 94.7505 135.458 94.7505H6.83796C4.28075 94.7505 2 92.4698 2 89.9126V87.6318H140.296V87.6318Z" fill="white" stroke="#D6DCE8" stroke-width="2.1011" stroke-miterlimit="10"/>
<path d="M84.3837 87.6318V88.4612C84.3837 89.9126 83.2779 91.2949 81.55 91.2949H60.4704C59.019 91.2949 57.6367 90.189 57.6367 88.4612V87.6318H84.3837V87.6318Z" fill="#F1F3F9" stroke="#D6DCE8" stroke-width="2" stroke-miterlimit="10" stroke-linejoin="round"/>
<path d="M114.863 23.9091V80.444C114.725 82.7939 112.858 84.7291 110.44 84.7291H26.6738C24.1857 84.7291 22.2505 82.7939 22.2505 80.444V23.9091C22.2505 21.5592 24.1857 19.624 26.6738 19.624H110.509C112.997 19.624 114.863 21.5592 114.863 23.9091Z" fill="#F1F3F9" stroke="#D6DCE8" stroke-width="2.1011" stroke-miterlimit="10"/>
<path d="M27.2959 26.1206C28.1253 26.1206 28.8164 25.4295 28.8164 24.6001C28.8164 23.7707 28.1253 23.0796 27.2959 23.0796C26.4665 23.0796 25.7754 23.7707 25.7754 24.6001C25.7754 25.4295 26.4665 26.1206 27.2959 26.1206Z" fill="#D6DCE8"/>
<path d="M31.7881 26.1206C32.6174 26.1206 33.3086 25.4295 33.3086 24.6001C33.3086 23.7707 32.6174 23.0796 31.7881 23.0796C30.9587 23.0796 30.2676 23.7707 30.2676 24.6001C30.2676 25.4295 30.9587 26.1206 31.7881 26.1206Z" fill="#D6DCE8"/>
<path d="M36.4189 26.1206C37.2483 26.1206 37.9394 25.4295 37.9394 24.6001C37.9394 23.7707 37.2483 23.0796 36.4189 23.0796C35.5896 23.0796 34.8984 23.7707 34.8984 24.6001C34.8984 25.4295 35.5896 26.1206 36.4189 26.1206Z" fill="#F1F3F9"/>
<path opacity="0.4" d="M114.863 23.9091V78.7853H32.6176C30.1295 78.7853 28.1943 76.8501 28.1943 74.5003V19.624H110.44C112.997 19.624 114.863 21.5592 114.863 23.9091Z" fill="#D6DDE8"/>
<path d="M124.4 14.4406V70.9755C124.4 71.0446 124.4 71.1829 124.4 71.252C124.193 73.5327 122.327 75.2606 120.046 75.2606H36.2114C33.7233 75.2606 31.7881 73.3254 31.7881 70.9755V14.4406C31.7881 12.0907 33.7233 10.1555 36.2114 10.1555H120.046C122.534 10.1555 124.4 12.0216 124.4 14.4406Z" fill="#F1F3F9" stroke="#D6DCE8" stroke-width="2.1011" stroke-miterlimit="10"/>
<path d="M36.8335 16.6521C37.6629 16.6521 38.354 15.9609 38.354 15.1316C38.354 14.3022 37.6629 13.6111 36.8335 13.6111C36.0041 13.6111 35.313 14.3022 35.313 15.1316C35.313 15.9609 36.0041 16.6521 36.8335 16.6521Z" fill="#D6DCE8"/>
<path d="M41.3262 16.6521C42.1555 16.6521 42.8467 15.9609 42.8467 15.1316C42.8467 14.3022 42.1555 13.6111 41.3262 13.6111C40.4968 13.6111 39.8057 14.3022 39.8057 15.1316C39.8057 15.9609 40.4968 16.6521 41.3262 16.6521Z" fill="#D6DCE8"/>
<path d="M45.9565 16.6521C46.7859 16.6521 47.477 15.9609 47.477 15.1316C47.477 14.3022 46.7859 13.6111 45.9565 13.6111C45.1272 13.6111 44.436 14.3022 44.436 15.1316C44.436 15.9609 45.1272 16.6521 45.9565 16.6521Z" fill="#F1F3F9"/>
<path opacity="0.4" d="M124.4 14.4406V70.9756C124.4 71.0447 124.4 71.1829 124.4 71.252H42.7768C40.2887 71.252 38.3535 69.3168 38.3535 66.967V10.3629C38.3535 10.2938 38.3535 10.1555 38.3535 10.0864H119.977C122.534 10.1555 124.4 12.0216 124.4 14.4406Z" fill="#D6DDE8"/>
<path d="M134.214 62.82C134.076 65.1699 132.21 67.1051 129.791 67.1051H46.0248C43.5367 67.1051 41.6016 65.1699 41.6016 62.82V6.28505C41.6016 3.93518 43.5367 2 46.0248 2H129.86C132.348 2 134.283 3.93518 134.283 6.28505V62.82H134.214Z" fill="white" stroke="#D6DCE8" stroke-width="2.1011" stroke-miterlimit="10"/>
<path d="M41.6016 11.8833H134.076" stroke="#D6DCE8" stroke-width="2.1011" stroke-miterlimit="10"/>
<path d="M46.6475 8.56568C47.4768 8.56568 48.168 7.87454 48.168 7.04518C48.168 6.21582 47.4768 5.45557 46.6475 5.45557C45.8181 5.45557 45.127 6.1467 45.127 6.97607C45.127 7.80543 45.8181 8.56568 46.6475 8.56568Z" fill="#AAB2C5"/>
<path d="M51.1396 8.56568C51.969 8.56568 52.6601 7.87454 52.6601 7.04518C52.6601 6.21582 51.969 5.45557 51.1396 5.45557C50.3103 5.45557 49.6191 6.1467 49.6191 6.97607C49.6191 7.80543 50.3103 8.56568 51.1396 8.56568Z" fill="#AAB2C5"/>
<path d="M55.77 8.56568C56.5994 8.56568 57.2905 7.87454 57.2905 7.04518C57.2905 6.21582 56.5994 5.45557 55.77 5.45557C54.9407 5.45557 54.2495 6.1467 54.2495 6.97607C54.2495 7.80543 54.8715 8.56568 55.77 8.56568Z" fill="#AAB2C5"/>
<path d="M81.8103 27.5031C81.8103 29.1736 80.4561 30.5279 78.7855 30.5279C77.115 30.5279 75.7607 29.1736 75.7607 27.5031C75.7607 25.8325 77.115 24.4783 78.7855 24.4783C80.4561 24.4783 81.8103 25.8325 81.8103 27.5031Z" fill="#AAB2C5" stroke="white"/>
<path d="M98.6741 27.5031C98.6741 29.1736 97.3199 30.5279 95.6493 30.5279C93.9788 30.5279 92.6245 29.1736 92.6245 27.5031C92.6245 25.8325 93.9788 24.4783 95.6493 24.4783C97.3199 24.4783 98.6741 25.8325 98.6741 27.5031Z" fill="#AAB2C5" stroke="white"/>
<path d="M94.6122 45.6107H79.8218C77.472 45.6107 76.1588 42.9844 77.5411 41.0492C78.5778 39.5978 79.891 38.4229 81.4115 37.5244C83.1393 36.5568 85.1436 36.0039 87.217 36.0039C89.7051 36.0039 91.9859 36.7642 93.921 38.0773C95.096 38.9067 96.1327 39.8743 96.962 41.0492C98.2752 42.9844 96.962 45.6107 94.6122 45.6107Z" fill="#D6DCE8" stroke="#D6DCE8" stroke-width="1.7035" stroke-miterlimit="10"/>
<path d="M92.4006 45.6107H82.1026C82.0335 45.4724 82.0335 45.3342 82.1026 45.196C82.8629 43.0535 84.8672 41.533 87.2861 41.533C89.7051 41.533 91.7094 43.0535 92.4697 45.196C92.4697 45.3342 92.4697 45.4724 92.4006 45.6107Z" fill="#AAB2C5"/>
<path d="M93.9209 38.7685V39.3214C93.9209 39.7361 93.5754 40.0125 93.2298 40.0125H82.1716C81.7569 40.0125 81.4805 39.667 81.4805 39.3214V38.2156C83.2083 37.248 85.2126 36.6951 87.286 36.6951C89.705 36.6951 91.9857 37.4553 93.9209 38.7685Z" fill="white"/>
<path d="M61.4376 26.4621C61.4376 27.8467 60.3625 28.9543 59.0186 28.9543C57.6747 28.9543 56.5996 27.8467 56.5996 26.4621C56.5996 25.4098 58.051 22.253 58.6961 20.8684C58.8036 20.5915 59.1799 20.5915 59.3411 20.8684C59.9862 22.1976 61.4376 25.3544 61.4376 26.4621Z" fill="#D6DCE8"/>
<path d="M147.208 13.542C148.314 14.5787 148.452 16.3066 147.415 17.4815C146.379 18.5873 144.651 18.7256 143.476 17.6889C142.577 16.9286 141.057 13.3347 140.435 11.7451C140.297 11.4686 140.573 11.1231 140.919 11.1922C142.577 11.6069 146.309 12.7127 147.208 13.542Z" fill="#D6DCE8"/>
<path d="M146.793 25.7751C147.622 27.0883 147.277 28.747 145.964 29.5763C144.65 30.4057 142.992 30.0601 142.162 28.747C141.54 27.7794 140.987 23.909 140.78 22.1812C140.711 21.8356 141.126 21.6283 141.402 21.7665C142.854 22.665 146.171 24.7384 146.793 25.7751Z" fill="#D6DCE8"/>
<path d="M55.9088 32.6823C55.9088 34.0669 54.8337 35.1746 53.4898 35.1746C52.1459 35.1746 51.0708 34.0669 51.0708 32.6823C51.0708 31.63 52.5222 28.4732 53.1672 27.0886C53.2748 26.8117 53.651 26.8117 53.8123 27.0886C54.4574 28.4732 55.9088 31.63 55.9088 32.6823Z" fill="#D6DCE8"/>
<path d="M122.949 45.6107H137.601C138.499 45.6107 139.329 45.9563 139.951 46.5783L150.318 56.9454C150.94 57.5674 151.285 58.3967 151.285 59.2952V73.8782C151.285 74.7767 150.94 75.606 150.318 76.2281L140.089 86.4569C139.467 87.0789 138.638 87.4245 137.739 87.4245H122.949C122.05 87.4245 121.221 87.0789 120.599 86.4569L110.094 75.9516C109.472 75.3296 109.126 74.5002 109.126 73.6017V59.2952C109.126 58.3967 109.472 57.5674 110.094 56.9454L120.53 46.5783C121.221 45.9563 122.05 45.6107 122.949 45.6107Z" fill="#D6DCE8" stroke="#AAB2C5" stroke-width="2" stroke-miterlimit="10" stroke-linejoin="round"/>
<path d="M133.613 62.4744L133.615 62.4634L133.616 62.4524C133.694 61.8591 133.694 61.3419 133.694 60.8878V60.8695V53.9337C133.694 52.8125 132.736 52.2011 132.022 52.0874L131.944 52.075H131.865H128.616C127.623 52.075 126.718 52.8768 126.718 53.9337V60.8695L126.718 60.904C126.718 61.4075 126.718 61.934 126.798 62.4706L126.798 62.4744L127.559 67.4286L127.56 67.4386L127.562 67.4487C127.646 67.9304 127.925 68.3143 128.24 68.5678C128.556 68.8222 128.979 69.0035 129.446 69.0035H130.966C131.945 69.0035 132.699 68.3149 132.85 67.4487L132.851 67.4386L132.853 67.4286L133.613 62.4744Z" fill="white" stroke="#AAB2C5" stroke-width="2"/>
<path d="M128.478 79.4397H131.865C132.97 79.4397 133.901 78.5082 133.901 77.403V74.0164C133.901 72.9112 132.97 71.9797 131.865 71.9797H128.478C127.373 71.9797 126.441 72.9112 126.441 74.0164V77.403C126.441 78.5082 127.373 79.4397 128.478 79.4397Z" fill="white" stroke="#AAB2C5" stroke-width="2"/>
</svg>
