<svg width="180" height="140" viewBox="0 0 180 140" fill="none" xmlns="http://www.w3.org/2000/svg">
<path d="M94.9265 0L100.675 1.7122L97.8617 26.1722L94.8042 25.0715L94.9265 0Z" fill="#B8BFCD"/>
<path d="M94.5598 27.8844L97.3727 28.9851L97.0058 31.3088L94.1929 30.3304L94.5598 27.8844Z" fill="#B8BFCD"/>
<path d="M105.2 13.0861L110.948 14.676L108.257 30.3304L105.078 29.2297L105.2 13.0861Z" fill="#B8BFCD"/>
<path d="M104.833 31.9203L107.646 33.021L107.279 35.2224L104.466 34.244L104.833 31.9203Z" fill="#B8BFCD"/>
<path d="M134.796 121.322H59.5815C59.5815 121.322 63.7397 119.976 56.524 121.322C49.186 122.667 49.186 122.422 49.7975 117.775C50.409 113.128 54.8118 108.358 58.2362 103.221C57.8693 98.3293 59.4592 93.1927 65.2073 88.423C65.2073 88.3007 65.2073 88.1784 65.2073 88.0561C62.3944 60.0493 77.1927 69.2219 89.545 64.5745L87.9551 63.4738L106.056 55.6465C106.056 55.6465 111.192 56.9918 115.962 59.6824C119.509 61.7616 122.811 64.4522 123.3 67.8766C123.911 71.7902 123.3 76.9268 122.444 81.6965C121.71 85.977 120.854 89.8906 120.609 92.4589C120.609 92.9481 120.487 93.315 120.487 93.6819C121.343 97.7178 126.969 103.71 126.235 107.624C128.192 109.703 130.638 115.941 131.005 118.631C131.494 121.322 134.796 121.322 134.796 121.322Z" fill="#F1F3F9" stroke="#C5CCDA" stroke-width="1.5905" stroke-miterlimit="10"/>
<path opacity="0.1" d="M122.444 81.6965C121.71 85.977 120.854 89.8906 120.61 92.5812C118.775 95.8833 115.473 97.9624 110.948 100.531C109.969 101.142 108.746 101.631 107.646 101.998C106.056 102.488 104.466 102.977 102.876 103.221C97.984 104.2 92.9697 104.444 87.9554 103.466C83.7972 102.61 79.639 101.265 75.8477 99.0631C74.6247 98.3293 73.2794 97.4732 72.1787 96.4948C68.8766 93.6819 66.3083 91.2359 64.963 88.3007C63.74 85.8547 63.4954 83.0418 64.1069 79.2505C65.5745 71.1787 67.5313 65.0637 67.5313 65.0637C67.6536 64.4522 68.632 63.5961 68.9989 63.1069C69.6104 62.4954 69.9773 61.7616 70.5888 61.1501C71.5672 59.9271 72.7902 58.5818 73.7686 57.3588C76.2146 54.9128 78.9052 52.956 82.085 51.733C87.2216 49.8985 92.7251 50.1431 97.984 50.8769C101.775 51.3661 105.811 52.2222 109.236 54.179C111.804 55.6466 113.883 57.4811 115.718 59.8048C116.084 60.1717 116.329 60.6609 116.696 61.0278C118.775 64.0853 120.243 67.5097 121.955 70.8118C122.077 70.8118 122.444 75.3369 122.444 81.6965Z" fill="#AAB2C5"/>
<path d="M19.7119 121.444H178.824" stroke="#D6DCE8" stroke-width="1.5905" stroke-miterlimit="10" stroke-linecap="round" stroke-linejoin="round"/>
<path d="M1 121.444H11.1509" stroke="#D6DCE8" stroke-width="1.5905" stroke-miterlimit="10" stroke-linecap="round" stroke-linejoin="round"/>
<path d="M111.559 90.869C110.581 91.4805 109.358 91.9697 108.257 92.3366C106.789 92.8258 105.077 93.315 103.487 93.5596C98.5954 94.538 93.5811 94.7826 88.5668 93.6819C84.4086 92.8258 80.2503 91.4805 76.459 89.2791C75.1137 88.5453 73.8907 87.6892 72.79 86.7108C66.5527 81.4519 63.2506 77.5382 64.7182 69.4664C66.1858 61.3946 68.0203 55.4019 68.0203 55.4019C68.1426 54.7904 69.121 53.9343 69.4879 53.4451C70.0994 52.8336 70.4663 52.0998 71.0778 51.4883C72.0562 50.2653 73.1569 48.92 74.2576 47.697C76.7036 45.251 79.3942 43.2942 82.574 42.0712C87.7107 40.2367 93.2142 40.4813 98.4731 41.2151C102.387 41.7043 106.3 42.5604 109.725 44.5172C112.782 46.2294 115.106 48.5531 117.063 51.366C119.142 54.4235 120.609 57.8479 122.322 61.2723C122.322 61.2723 122.933 67.6319 122.688 75.826C122.688 84.0202 118.653 86.9554 111.559 90.869Z" fill="white" stroke="#C5CCDA" stroke-width="1.5905" stroke-miterlimit="10" stroke-linejoin="round"/>
<path d="M85.1424 70.078C83.9194 70.9341 82.0849 74.2362 76.9483 71.5456C69.7326 67.632 71.5671 57.848 76.0922 55.1574C84.164 50.3877 91.502 53.8121 91.8689 61.2724C92.2358 69.2219 87.7107 68.4881 85.1424 70.078Z" fill="#F1F3F9" stroke="#D6DCE8" stroke-width="1.5905" stroke-miterlimit="10"/>
<path d="M125.869 116.797C124.89 118.02 125.135 119.854 126.48 120.832C127.214 121.322 127.948 121.811 128.315 123.034C129.171 125.48 136.998 131.228 141.034 130.005C145.192 128.782 149.717 125.724 148.616 120.71C147.638 115.696 143.235 113.25 141.034 113.128C138.832 112.883 131.127 112.027 128.559 113.984C127.581 114.84 126.602 115.94 125.869 116.797Z" fill="#F1F3F9" stroke="#C5CCDA" stroke-width="1.5905" stroke-miterlimit="10"/>
<path d="M61.5384 116.797C62.5168 118.02 62.2722 119.854 60.9269 120.833C60.1931 121.322 59.4593 121.811 59.0924 123.034C58.2363 125.48 50.4091 131.228 46.3732 130.005C42.3373 128.782 37.6899 125.725 38.7906 120.71C39.769 115.696 44.1718 113.25 46.3732 113.128C48.5746 113.005 56.2795 112.027 58.8478 113.984C59.9485 114.84 60.9269 115.941 61.5384 116.797Z" fill="#F1F3F9" stroke="#C5CCDA" stroke-width="1.5905" stroke-miterlimit="10"/>
<path d="M80.9843 68.4881C84.1641 68.855 86.977 66.5313 87.3439 63.3515C87.7108 60.1717 85.3871 57.3588 82.2073 56.9919C79.0275 56.625 76.2146 58.9487 75.8477 62.1285C75.4808 65.3083 77.8045 68.1212 80.9843 68.4881Z" fill="white"/>
<path d="M86.61 63.9629C86.3654 66.4089 84.164 68.2434 81.718 67.9988C79.272 67.7542 77.4374 65.5528 77.682 63.1068C78.0489 63.4737 78.5381 63.8406 79.0273 63.9629C80.128 64.0852 81.1065 63.3514 81.2288 62.1284C81.3511 61.0277 80.6172 60.0493 79.5165 59.927C80.3726 59.3155 81.4734 59.0709 82.5741 59.1932C85.1424 59.3155 86.8546 61.3946 86.61 63.9629Z" fill="#989FB0"/>
<path d="M108.869 71.4233C112.048 71.7902 114.861 69.4665 115.228 66.2866C115.595 63.1068 113.271 60.2939 110.092 59.927C106.912 59.5601 104.099 61.8838 103.732 65.0636C103.365 68.3658 105.689 71.1787 108.869 71.4233Z" fill="white"/>
<path d="M104.221 65.7975C103.977 68.2435 105.811 70.4449 108.257 70.6895C110.703 70.9341 112.904 69.0996 113.149 66.6536C112.782 67.0205 112.171 67.2651 111.681 67.1428C110.581 67.0205 109.725 66.0421 109.847 64.9414C109.969 63.8406 110.948 63.1068 112.048 63.1068C111.315 62.373 110.336 61.8838 109.235 61.7615C106.789 61.5169 104.588 63.2292 104.221 65.7975Z" fill="#989FB0"/>
<path d="M84.5309 49.0424C82.4518 49.4093 80.6173 49.7762 79.1497 50.7546C77.6821 51.733 76.2145 53.3229 75.4807 55.1574C75.4807 55.2797 75.3584 55.2797 75.2361 55.2797C75.1138 55.2797 75.1138 55.1574 75.1138 55.1574C75.2361 54.179 75.7253 53.0783 76.3368 52.2222C76.826 51.2438 77.6821 50.51 78.6605 49.8985C79.6389 49.287 80.495 48.7978 81.5957 48.4309C82.6964 48.3086 83.7971 48.1863 84.7755 48.6755C84.6532 48.6755 84.8978 48.9201 84.5309 49.0424C84.6532 49.0424 84.6532 49.0424 84.5309 49.0424Z" fill="#989FB0"/>
<path d="M109.602 53.4451C111.437 54.1789 113.027 54.9128 114.372 56.1358C115.595 57.3588 116.573 59.1933 116.94 61.0278C116.94 61.1501 117.063 61.1501 117.185 61.1501C117.307 61.1501 117.307 61.0278 117.307 61.0278C117.43 60.0494 117.063 58.9487 116.818 58.0926C116.451 57.1142 115.962 56.1357 115.106 55.4019C114.372 54.6681 113.638 53.9343 112.66 53.4451C111.681 53.0782 110.581 52.8336 109.602 52.9559C109.48 53.0782 109.48 53.2005 109.602 53.4451C109.358 53.4451 109.602 53.4451 109.602 53.4451Z" fill="#989FB0"/>
<path d="M120.487 48.0639C118.286 45.1287 115.106 45.9848 116.329 49.4092C118.286 54.7904 121.955 57.3587 122.933 77.416C123.178 80.9627 135.041 73.3801 135.041 60.7831C135.041 58.4594 132.228 57.6033 132.228 57.6033C130.516 57.1141 124.034 52.589 120.487 48.0639Z" fill="#D6DCE8" stroke="#AAB2C5" stroke-width="1.5905" stroke-miterlimit="10"/>
<path d="M19.7116 57.6034C19.7116 57.6034 6.74776 53.8121 8.82686 58.0926C10.906 62.3731 16.6541 70.9341 25.8266 73.0132C34.9991 74.97 29.4956 66.8982 29.6179 67.0205C29.6179 67.0205 19.7116 57.6034 19.7116 57.6034Z" fill="#F1F3F9" stroke="#D6DCE8" stroke-width="2" stroke-miterlimit="10"/>
<path d="M6.01414 49.2869C9.31625 52.9559 23.1362 58.3371 34.3878 57.8479C35.9777 69.5887 37.2007 73.1354 39.2798 74.603C33.654 76.0706 18.4888 74.8476 16.4097 63.4737C5.76954 63.9629 6.01414 49.2869 6.01414 49.2869Z" fill="white" stroke="#D6DCE8" stroke-width="2" stroke-miterlimit="10" stroke-linejoin="round"/>
<path d="M152.163 92.7035C155.832 90.2575 162.436 78.8836 163.415 69.0996C173.81 69.0996 176.99 68.6104 178.702 66.8982C179.191 72.0348 178.213 84.6317 169.407 92.092C159.623 93.0704 152.163 92.7035 152.163 92.7035Z" fill="white" stroke="#D6DCE8" stroke-width="2" stroke-miterlimit="10" stroke-linejoin="round"/>
<path d="M124.645 132.696C107.646 135.508 104.588 135.998 98.1061 135.142C91.6242 134.285 82.574 133.185 79.5165 139.055C78.1712 131.35 75.1137 124.257 69.4879 118.876C69.8548 118.386 70.0994 117.653 70.0994 116.919C70.0994 115.451 69.2433 114.228 67.898 113.739C68.1426 113.25 68.2649 112.761 68.2649 112.271C68.2649 110.437 66.7973 108.847 64.8405 108.847C63.7398 108.847 62.7614 109.336 62.1499 110.192C62.2722 109.581 62.3945 109.092 62.3945 108.847C62.3945 107.013 60.9269 105.423 58.9701 105.423C57.9917 105.423 57.0133 105.912 56.4018 106.646C55.9126 105.912 55.1788 105.423 54.2004 105.423C52.7328 105.423 51.6321 106.523 51.6321 107.991C51.6321 108.236 51.6321 108.847 51.6321 109.581C42.9488 106.768 41.1143 106.646 41.1143 106.646C46.3732 96.2501 71.3224 81.0849 89.3005 83.8978C100.797 85.61 113.761 88.7898 120.365 101.387C119.998 101.264 119.631 101.142 119.264 101.142C119.142 101.142 118.897 101.142 118.653 101.264C118.041 100.408 117.063 99.9191 115.962 99.9191C114.25 99.9191 112.904 101.142 112.66 102.732C112.538 102.732 112.048 102.732 111.681 102.732C109.847 102.732 108.379 104.2 108.379 106.034C108.379 107.379 109.235 108.602 110.458 109.092C109.847 109.703 109.48 110.437 109.48 111.415C109.48 113.25 110.948 114.717 112.782 114.717C114.005 114.717 114.984 114.106 115.595 113.25C116.207 114.106 117.185 114.717 118.408 114.717C120.242 114.717 121.71 113.25 121.71 111.415C121.71 111.293 121.71 111.293 121.71 111.171C122.566 110.804 123.3 110.07 123.545 109.214C125.134 115.329 125.746 123.034 124.645 132.696Z" fill="white" stroke="#C5CCDA" stroke-width="1.5905" stroke-miterlimit="10" stroke-linejoin="round"/>
<path d="M81.9624 123.768C86.7321 122.3 107.034 117.775 118.652 119.12Z" fill="white"/>
<path d="M81.9624 123.768C86.7321 122.3 107.034 117.775 118.652 119.12" stroke="#D6DCE8" stroke-width="1.5905" stroke-miterlimit="10" stroke-linejoin="round"/>
<path d="M77.1929 117.286C81.1065 115.573 99.9407 111.66 109.48 111.293Z" fill="white"/>
<path d="M77.1929 117.286C81.1065 115.573 99.9407 111.66 109.48 111.293" stroke="#D6DCE8" stroke-width="1.5905" stroke-miterlimit="10" stroke-linejoin="round"/>
<path d="M72.668 110.07C88.2001 101.387 100.43 105.056 110.459 97.3508Z" fill="white"/>
<path d="M72.668 110.07C88.2001 101.387 100.43 105.056 110.459 97.3508" stroke="#D6DCE8" stroke-width="1.5905" stroke-miterlimit="10" stroke-linejoin="round"/>
<path d="M67.6533 104.567C74.2575 100.041 79.8833 97.9623 87.4659 97.3508Z" fill="white"/>
<path d="M67.6533 104.567C74.2575 100.041 79.8833 97.9623 87.4659 97.3508" stroke="#D6DCE8" stroke-width="1.5905" stroke-miterlimit="10" stroke-linejoin="round"/>
<path d="M108.624 86.7107C108.624 86.833 108.624 87.0776 108.624 87.1999V87.3222C108.624 87.4445 108.624 87.5668 108.502 87.6891C107.768 89.6459 104.588 91.9696 101.286 92.3365C97.9841 92.7034 94.5597 91.3581 93.0921 85.8546C89.5454 89.279 86.121 89.7682 83.3081 89.0344C79.6391 88.056 77.1931 85.1208 77.0708 84.2647C77.0708 83.8978 77.0708 83.5309 77.1931 83.164C78.0492 75.2145 85.7541 69.5887 94.4374 70.5671C103.121 71.6678 109.48 78.8835 108.624 86.7107Z" fill="#D6DCE8" stroke="#AAB2C5" stroke-width="1.59045" stroke-miterlimit="10"/>
<path d="M94.4374 71.7902C93.7036 71.6679 92.8475 71.6679 92.1137 71.7902C91.1353 72.0348 89.6677 72.2793 89.4231 73.5023C89.3008 75.0923 92.7252 76.9268 93.7036 77.0491C94.682 77.1714 98.4733 76.193 98.7179 74.6031C98.8402 73.0132 97.4949 72.4017 96.2719 72.0348C95.6604 71.9125 94.9266 71.6679 94.4374 71.7902Z" fill="#989FB0"/>
<path fill-rule="evenodd" clip-rule="evenodd" d="M93.4254 79.9801C93.3679 78.3497 93.1703 76.6447 93.0059 75.576L93.9942 75.424C94.1632 76.5219 94.3656 78.2669 94.4247 79.9449C94.4543 80.7836 94.4485 81.6156 94.3824 82.3466C94.3175 83.0642 94.1905 83.7371 93.9473 84.2236L93.0528 83.7764C93.2096 83.4629 93.3243 82.944 93.3865 82.2565C93.4474 81.5823 93.4541 80.7955 93.4254 79.9801Z" fill="#989FB0"/>
<path d="M74.013 47.4524L73.8907 48.7977C73.2792 49.4092 72.79 50.143 72.1785 50.8768C68.9987 55.1574 66.0634 60.7832 65.2073 67.8766C64.9627 67.0205 62.3944 57.848 61.9052 56.1358C61.7829 55.7689 61.6606 55.5243 61.6606 55.5243V52.9559L63.9843 47.8193L69.9771 44.7618L74.013 47.4524Z" fill="#B8BFCD" stroke="#AAB2C5" stroke-width="1.5905" stroke-miterlimit="10" stroke-linecap="round" stroke-linejoin="round"/>
<path d="M79.394 43.6612C77.6818 44.8842 75.725 46.5964 73.8905 48.7978C73.279 49.4093 72.7898 50.1431 72.1783 50.8769C71.9337 47.4525 67.8978 46.9633 67.8978 46.9633C67.4086 50.0208 64.718 53.4452 61.7828 56.1358C59.3368 58.3372 56.6462 59.9271 54.934 60.0494C54.4448 60.0494 54.0779 59.6825 54.3225 59.1933C55.5455 56.0135 55.1786 51.3661 55.5455 49.0424C56.0347 46.4741 63.3727 42.5605 67.164 41.0929C70.0992 39.9922 77.8041 41.5821 79.394 43.6612Z" fill="#D6DCE8" stroke="#AAB2C5" stroke-width="1.5905" stroke-miterlimit="10" stroke-linecap="round" stroke-linejoin="round"/>
</svg>
