<svg width="131" height="132" viewBox="0 0 131 132" fill="none" xmlns="http://www.w3.org/2000/svg">
<path d="M7.06903 19.1863C8.67545 18.6612 9.55445 16.9256 9.03232 15.3098C8.51019 13.694 6.78465 12.8099 5.17822 13.3351C3.5718 13.8603 2.6928 15.5959 3.21493 17.2116C3.73706 18.8274 5.4626 19.7115 7.06903 19.1863Z" fill="#EAEEF9"/>
<path d="M13.7456 9.14888C14.838 8.79176 15.4357 7.61157 15.0806 6.51284C14.7256 5.41412 13.5522 4.81292 12.4598 5.17004C11.3675 5.52715 10.7698 6.70734 11.1248 7.80607C11.4799 8.9048 12.6532 9.50599 13.7456 9.14888Z" fill="#EAEEF9"/>
<path d="M114.012 19.7084C115.908 17.9662 116.04 15.0084 114.308 13.102C112.576 11.1956 109.635 11.0625 107.74 12.8046C105.845 14.5468 105.712 17.5046 107.444 19.411C109.176 21.3174 112.117 21.4505 114.012 19.7084Z" fill="#EAEEF9"/>
<path d="M128.862 11.1828C129.66 10.4492 129.716 9.20385 128.986 8.40115C128.257 7.59845 127.019 7.54238 126.221 8.27593C125.423 9.00947 125.367 10.2548 126.096 11.0575C126.826 11.8602 128.064 11.9163 128.862 11.1828Z" fill="#EAEEF9"/>
<path d="M12.4435 120.49C13.2415 119.756 13.2973 118.511 12.568 117.708C11.8387 116.906 10.6005 116.85 9.80243 117.583C9.00438 118.317 8.94864 119.562 9.67794 120.365C10.4072 121.167 11.6454 121.223 12.4435 120.49Z" fill="#EAEEF9"/>
<path d="M61.8042 126.996C95.3855 126.996 122.608 99.6148 122.608 65.8382C122.608 32.0616 95.3855 4.68018 61.8042 4.68018C28.223 4.68018 1 32.0616 1 65.8382C1 99.6148 28.223 126.996 61.8042 126.996Z" fill="#F1F3F9" stroke="#D6DCE8" stroke-width="2" stroke-miterlimit="10"/>
<path d="M24.3672 58.0858L16.415 24.1228C15.8033 21.5387 17.3937 19.0776 19.8406 18.4623L72.3255 5.91077L102.055 26.2147L120.651 100.909C121.263 103.493 119.672 105.954 117.225 106.569L44.7984 123.797C42.2293 124.412 39.7824 122.812 39.1707 120.351L23.7555 55.5017" fill="white"/>
<path d="M24.3672 58.0858L16.415 24.1228C15.8033 21.5387 17.3937 19.0776 19.8406 18.4623L72.3255 5.91077L102.055 26.2147L120.651 100.909C121.263 103.493 119.672 105.954 117.225 106.569L44.7984 123.797C42.2293 124.412 39.7824 122.812 39.1707 120.351L23.7555 55.5017" stroke="#D6DCE8" stroke-width="2" stroke-miterlimit="10" stroke-linejoin="round"/>
<path d="M116.002 55.7477L87.9853 127.365C87.0065 129.826 84.315 130.934 81.8681 129.95L12.9893 101.647C10.5424 100.663 9.44136 97.9554 10.4201 95.4943L47.4899 3.94186C48.4686 1.48077 51.1602 0.373285 53.607 1.35772L103.645 21.9078L116.002 55.7477Z" fill="white" stroke="#D6DCE8" stroke-width="2" stroke-miterlimit="10" stroke-linejoin="round"/>
<path d="M108.783 113.583C108.783 116.168 106.704 118.26 104.134 118.26H29.7501C27.1809 118.26 25.1011 116.168 25.1011 113.583V14.6477C25.1011 12.0636 27.1809 9.97168 29.7501 9.97168H83.7031L107.927 36.6745L108.416 81.4663L108.783 113.583Z" fill="white" stroke="#D6DCE8" stroke-width="2" stroke-miterlimit="10" stroke-linejoin="round"/>
<path d="M95.0809 89.9568H50.4258C49.6918 89.9568 49.0801 89.3416 49.0801 88.6032C49.0801 87.8649 49.6918 87.2496 50.4258 87.2496H95.0809C95.8149 87.2496 96.4266 87.8649 96.4266 88.6032C96.3043 89.3416 95.8149 89.9568 95.0809 89.9568Z" fill="#D6DCE8"/>
<path d="M44.9208 89.9568H37.0909C36.3568 89.9568 35.7451 89.3416 35.7451 88.6032C35.7451 87.8649 36.3568 87.2496 37.0909 87.2496H44.9208C45.6549 87.2496 46.2666 87.8649 46.2666 88.6032C46.2666 89.3416 45.6549 89.9568 44.9208 89.9568Z" fill="#D6DCE8"/>
<path d="M94.9585 77.7745H75.0167C74.2826 77.7745 73.6709 77.1592 73.6709 76.4209C73.6709 75.6825 74.2826 75.0673 75.0167 75.0673H94.9585C95.6925 75.0673 96.3043 75.6825 96.3043 76.4209C96.1819 77.2822 95.6925 77.7745 94.9585 77.7745Z" fill="#D6DCE8"/>
<path d="M66.5751 77.7745H37.4576C36.7235 77.7745 36.1118 77.1592 36.1118 76.4209C36.1118 75.6825 36.7235 75.0673 37.4576 75.0673H66.5751C67.3091 75.0673 67.9209 75.6825 67.9209 76.4209C67.9209 77.2822 67.3091 77.7745 66.5751 77.7745Z" fill="#D6DCE8"/>
<path d="M95.3258 65.7151H87.6182C86.8842 65.7151 86.2725 65.0999 86.2725 64.3615C86.2725 63.6232 86.8842 63.0079 87.6182 63.0079H95.3258C96.0599 63.0079 96.6716 63.6232 96.6716 64.3615C96.6716 65.0999 96.0599 65.7151 95.3258 65.7151Z" fill="#D6DCE8"/>
<path d="M80.4 65.7151H37.8248C37.0907 65.7151 36.479 65.0999 36.479 64.3615C36.479 63.6232 37.0907 63.0079 37.8248 63.0079H80.4C81.134 63.0079 81.7457 63.6232 81.7457 64.3615C81.7457 65.0999 81.134 65.7151 80.4 65.7151Z" fill="#D6DCE8"/>
<path d="M61.3146 103.247H58.6231C57.8891 103.247 57.2773 102.631 57.2773 101.893C57.2773 101.155 57.8891 100.539 58.6231 100.539H61.3146C62.0487 100.539 62.6604 101.155 62.6604 101.893C62.5381 102.631 61.9264 103.247 61.3146 103.247Z" fill="#D6DCE8"/>
<path d="M53.7293 103.247H37.8248C37.0907 103.247 36.479 102.631 36.479 101.893C36.479 101.155 37.0907 100.539 37.8248 100.539H53.607C54.341 100.539 54.9527 101.155 54.9527 101.893C55.0751 102.631 54.4633 103.247 53.7293 103.247Z" fill="#D6DCE8"/>
<path d="M95.6929 53.6558H68.2881C67.5541 53.6558 66.9424 53.0405 66.9424 52.3022C66.9424 51.5639 67.5541 50.9486 68.2881 50.9486H95.6929C96.4269 50.9486 97.0386 51.5639 97.0386 52.3022C97.0386 53.0405 96.4269 53.6558 95.6929 53.6558Z" fill="#D6DCE8"/>
<path d="M59.4796 53.6558H38.192C37.4579 53.6558 36.8462 53.0405 36.8462 52.3022C36.8462 51.5639 37.4579 50.9486 38.192 50.9486H59.3572C60.0913 50.9486 60.703 51.5639 60.703 52.3022C60.703 53.0405 60.2136 53.6558 59.4796 53.6558Z" fill="#D6DCE8"/>
<path d="M74.4051 26.3379H38.6811C37.7023 26.3379 36.9683 25.5995 36.9683 24.6151C36.9683 23.6307 37.7023 22.8923 38.6811 22.8923H74.4051C75.3838 22.8923 76.1179 23.6307 76.1179 24.6151C76.1179 25.4765 75.2615 26.3379 74.4051 26.3379Z" fill="#D6DCE8"/>
<path d="M52.2611 34.9516H38.6811C37.7023 34.9516 36.9683 34.2133 36.9683 33.2289C36.9683 32.2444 37.7023 31.5061 38.6811 31.5061H52.3834C53.3622 31.5061 54.0962 32.2444 54.0962 33.2289C53.9739 34.0902 53.2398 34.9516 52.2611 34.9516Z" fill="#D6DCE8"/>
<path d="M83.7031 9.97156V31.1369C83.7031 34.0902 86.2723 36.5513 89.2085 36.5513H107.927" fill="#D6DCE8"/>
<path d="M83.7031 9.97156V31.1369C83.7031 34.0902 86.2723 36.5513 89.2085 36.5513H107.927" stroke="#D6DCE8" stroke-width="2" stroke-miterlimit="10" stroke-linejoin="round"/>
<path d="M89.36 63.4985C89.36 66.9745 88.7806 70.1608 87.4771 73.2023C84.5805 80.7336 78.3526 86.527 70.6765 89.134C68.0695 90.003 65.3176 90.4375 62.4209 90.4375C47.5031 90.4375 35.4819 78.4163 35.4819 63.4985C35.4819 48.5806 47.5031 36.5594 62.4209 36.5594C77.3388 36.5594 89.36 48.7255 89.36 63.4985Z" fill="#D6DCE8" stroke="#AAB2C5" stroke-width="2" stroke-miterlimit="10"/>
<path d="M67.9955 59.6333V54.4642C67.9955 51.6447 65.5855 49.2952 62.6936 49.2952C61.2476 49.2952 59.9623 49.9217 58.8377 50.8615C57.8737 51.8014 57.231 53.0545 57.231 54.6209V59.7899C55.7851 60.7298 54.6604 61.8262 53.6964 63.3926C52.8931 64.8024 52.4111 66.5254 52.4111 68.2484C52.4111 73.7307 56.9097 78.1166 62.5329 78.1166C68.1561 78.1166 72.6547 73.7307 72.6547 68.2484C72.8154 64.4891 70.8874 61.3563 67.9955 59.6333ZM63.8182 69.1882V71.8511C63.8182 72.1644 63.4969 72.4776 63.1756 72.4776H62.0509C61.7296 72.4776 61.4083 72.1644 61.4083 71.8511V70.1281V69.1882C60.4443 68.7183 59.9623 67.6218 60.123 66.5254C60.2836 65.5855 61.087 64.8024 62.0509 64.6457C63.6576 64.3324 65.1035 65.5856 65.1035 66.9953C65.1035 67.9351 64.6215 68.7183 63.8182 69.1882ZM65.4249 58.5368C64.4609 58.2236 63.6576 58.0669 62.5329 58.0669C61.5689 58.0669 60.605 58.2236 59.641 58.5368V54.6209C59.641 53.8377 59.9623 53.0545 60.4443 52.5846C60.9263 52.1147 61.7296 51.8014 62.5329 51.8014C64.1395 51.8014 65.4249 53.0545 65.4249 54.6209V58.5368Z" fill="white" stroke="#AAB2C5" stroke-width="2" stroke-miterlimit="10"/>
</svg>
