<svg width="203" height="118" viewBox="0 0 203 118" fill="none" xmlns="http://www.w3.org/2000/svg">
<path d="M106.907 28.0626L88.8709 51.3864C88.3044 52.2362 87.1712 52.3306 86.3214 51.6696L63.8474 34.0115C62.9976 33.445 62.9032 32.3118 63.5642 31.462L86.9824 1.71707C87.5489 0.867211 88.6821 0.772781 89.5319 1.43378L105.868 14.276L106.907 28.0626Z" fill="white" stroke="#D6DCE8" stroke-width="2" stroke-miterlimit="10"/>
<path d="M99.2578 16.8258L88.3985 8.32725C88.2097 8.1384 88.1153 7.85512 88.3041 7.4774C88.493 7.28855 88.7763 7.19411 89.154 7.38297L100.013 15.8815C100.202 16.0704 100.297 16.3537 100.108 16.7314C99.8244 17.0147 99.5411 17.0147 99.2578 16.8258Z" fill="#D6DCE8"/>
<path d="M90.5708 14.1817L86.5104 10.8767C86.3215 10.6878 86.2271 10.4045 86.4159 10.0268C86.6048 9.74355 86.8881 9.74355 87.2658 9.9324L91.3262 13.2374C91.5151 13.4262 91.6095 13.7095 91.4206 14.0872C91.1373 14.3705 90.7596 14.3705 90.5708 14.1817Z" fill="#D6DCE8"/>
<path d="M105.868 14.2762L100.863 20.6029C100.108 21.5472 100.391 22.8692 101.241 23.5302L107.001 28.0628" fill="#D6DCE8"/>
<path d="M99.9189 29.4792L94.2532 25.1355L88.3986 20.5085L83.0162 16.2592C82.4496 15.7871 81.5054 15.8815 81.0332 16.5425L73.2901 26.363C72.818 26.9296 72.9124 27.8739 73.4789 28.346L90.476 41.7548C91.0426 42.227 91.9869 42.1326 92.4591 41.4716L100.202 31.651C100.674 30.8012 100.58 30.0457 99.9189 29.4792ZM81.9775 29.3847L83.6772 27.1185L88.8708 31.1789L87.1711 33.4452L81.9775 29.3847ZM86.6989 34.1062L85.0936 36.1836L79.9001 32.1232L81.5054 30.0457L86.6989 34.1062ZM91.137 28.346L89.4373 30.6123L84.2438 26.5519L85.9435 24.2856L91.137 28.346ZM86.4156 23.6246L88.3042 21.3583L93.4978 25.4187L91.798 27.685L86.4156 23.6246ZM95.8585 35.617L90.0983 31.0844L91.798 28.8182L97.5582 33.3507L95.8585 35.617ZM83.5828 25.9853L78.0115 21.6416L79.7112 19.3753L85.2825 23.719L83.5828 25.9853ZM77.4449 22.3026L83.0162 26.6463L81.3165 28.9126L75.7452 24.5689L77.4449 22.3026ZM89.6262 31.7454L95.3863 36.278L93.6866 38.5443L87.9265 34.0117L89.6262 31.7454ZM99.5412 30.99L98.1248 32.7842L92.3646 28.2516L94.0643 25.9853L99.3523 30.1402C99.73 30.329 99.73 30.7067 99.5412 30.99ZM82.4496 16.7313L87.5488 20.7918L85.8491 23.058L80.2778 18.7143L81.6942 16.9202C81.8831 16.6369 82.2608 16.6369 82.4496 16.7313ZM73.9511 26.7407L75.1787 25.2299L80.7499 29.5736L79.1446 31.651L73.9511 27.5906C73.7622 27.4017 73.7622 26.9296 73.9511 26.7407ZM91.0426 40.8106L85.7546 36.6557L87.3599 34.5783L93.12 39.1109L91.798 40.7161C91.6092 41.0939 91.2315 41.0938 91.0426 40.8106Z" fill="#D5DDEA"/>
<path d="M150.86 42.9634H49.1547C47.0631 42.9634 45.2329 44.7941 45.2329 46.8865V112.533C45.2329 114.625 47.0631 113.84 49.1547 113.84H150.599C152.691 113.84 154.521 114.625 154.521 112.533V46.8865C154.782 44.7941 152.952 42.9634 150.86 42.9634Z" fill="#F1F3F9" stroke="#D6DCE8" stroke-width="2" stroke-miterlimit="10" stroke-linejoin="round"/>
<path d="M147.442 46.7781H52.7923C50.8458 46.7781 49.1426 48.4171 49.1426 50.2902V109.059C49.1426 110.932 50.8458 110.23 52.7923 110.23H147.199C149.146 110.23 150.849 110.932 150.849 109.059V50.2902C151.092 48.4171 149.389 46.7781 147.442 46.7781Z" fill="white"/>
<path d="M169.946 110.179V112.271C169.946 114.625 167.855 116.717 165.502 116.717H34.5131C32.16 116.717 30.0684 114.625 30.0684 112.271V110.179H169.946Z" fill="#F1F3F9" stroke="#D6DCE8" stroke-width="2" stroke-miterlimit="10" stroke-linejoin="round"/>
<path d="M112.165 110.179V110.963C112.165 112.271 111.119 113.579 109.551 113.579H90.2029C88.8956 113.579 87.5884 112.532 87.5884 110.963V110.179H112.165Z" fill="#F1F3F9" stroke="#D6DCE8" stroke-width="2" stroke-miterlimit="10" stroke-linejoin="round"/>
<path d="M110.335 77.2251H101.707V68.5943C101.707 67.5482 100.923 66.7635 99.8767 66.7635C98.8309 66.7635 98.0465 67.5482 98.0465 68.5943V77.2251H89.4186C88.3727 77.2251 87.5884 78.0097 87.5884 79.0558C87.5884 80.102 88.3727 80.8866 89.4186 80.8866H98.0465V89.5174C98.0465 90.5635 98.8309 91.3481 99.8767 91.3481C100.923 91.3481 101.707 90.5635 101.707 89.5174V80.8866H110.335C111.381 80.8866 112.165 80.102 112.165 79.0558C112.165 78.0097 111.381 77.2251 110.335 77.2251Z" fill="#D6DCE8" stroke="#AAB2C5" stroke-width="2" stroke-miterlimit="10" stroke-linejoin="round"/>
<path d="M169.692 76.3164L140.768 91.9739C139.096 92.8693 137.021 92.264 136.108 90.5882L121.16 62.893C120.266 61.2194 120.871 59.1426 122.546 58.2278L151.469 42.5704C153.141 41.675 155.216 42.2803 156.129 43.956L171.096 71.6534C171.99 73.327 171.364 75.421 169.692 76.3164Z" fill="#F1F3F9" stroke="#D6DCE8" stroke-width="2" stroke-miterlimit="10"/>
<path d="M165.853 73.0358L140.421 86.8011C139.71 87.1937 138.817 86.9171 138.425 86.2044L126.066 63.3032C125.674 62.5906 125.951 61.6969 126.663 61.3042L152.094 47.5389C152.806 47.1463 153.698 47.4229 154.091 48.1356L166.449 71.0368C166.841 71.7494 166.564 72.6431 165.853 73.0358Z" fill="white"/>
<path d="M148.967 70.9739L139.682 75.9967L141.472 68.2291L148.967 70.9739Z" fill="#B0B7C4"/>
<path d="M156.643 66.8141L143.278 74.057L145.862 62.8763L156.643 66.8141Z" fill="#CED6E2"/>
<path d="M138.135 67.1482C139.228 67.2702 140.214 66.4818 140.336 65.3872C140.458 64.2926 139.671 63.3064 138.577 63.1843C137.484 63.0623 136.499 63.8507 136.376 64.9453C136.254 66.0399 137.042 67.0261 138.135 67.1482Z" fill="#B0B7C4"/>
<path d="M172.862 82.2791L139.979 82.9295C138.082 82.9585 136.516 81.4693 136.473 79.5613L135.89 48.0951C135.863 46.1979 137.353 44.6299 139.26 44.5847L172.144 43.9342C174.04 43.9053 175.606 45.3944 175.649 47.3024L176.249 78.7794C176.276 80.6766 174.758 82.2501 172.862 82.2791Z" fill="#F1F3F9" stroke="#D6DCE8" stroke-width="2" stroke-miterlimit="10"/>
<path d="M170.955 77.6027L142.043 78.1733C141.23 78.1957 140.564 77.5405 140.542 76.7274L140.062 50.7089C140.04 49.8958 140.696 49.2284 141.509 49.2059L170.42 48.6353C171.233 48.6129 171.9 49.2681 171.921 50.0812L172.402 76.0997C172.423 76.9128 171.768 77.5802 170.955 77.6027Z" fill="white"/>
<path d="M156.895 68.0275L146.34 68.2331L151.493 62.1515L156.895 68.0275Z" fill="#B0B7C4"/>
<path d="M165.624 67.8511L150.425 68.1588L157.849 59.408L165.624 67.8511Z" fill="#CED6E2"/>
<path d="M149.023 59.6605C149.938 60.2703 151.176 60.0215 151.786 59.1048C152.397 58.1882 152.149 56.9507 151.234 56.3409C150.318 55.731 149.081 55.9798 148.47 56.8965C147.86 57.8132 148.107 59.0507 149.023 59.6605Z" fill="#B0B7C4"/>
<path d="M171.315 82.2912C172.048 82.7415 171.908 83.8453 171.086 84.0988L167.512 85.201C166.87 85.3988 166.602 86.1604 166.978 86.7167L171.217 92.9861C171.527 93.4436 171.406 94.0653 170.949 94.3747L168.079 96.3155C167.621 96.6248 166.999 96.5047 166.69 96.0472L162.451 89.7778C162.075 89.2215 161.268 89.1867 160.845 89.7085L158.491 92.6151C157.95 93.2834 156.873 93.0019 156.728 92.1542L153.503 73.2934C153.358 72.4458 154.28 71.8226 155.013 72.2729L171.315 82.2912Z" fill="#D6DCE8" stroke="#AAB2C5" stroke-width="2" stroke-miterlimit="10" stroke-linejoin="round"/>
<path d="M34.2073 48.7419L52.6707 70.0367C53.2921 70.7721 53.1575 71.8618 52.4061 72.4992L30.9567 90.694C30.2053 91.3314 29.0821 91.2512 28.489 90.5493L5.10158 62.8722C4.48018 62.1369 4.61479 61.0471 5.3662 60.4097L20.9067 47.2272L34.2073 48.7419Z" fill="white" stroke="#D6DCE8" stroke-width="2" stroke-miterlimit="10"/>
<path d="M20.8745 46.9954L25.9596 53.0016C26.6738 53.8451 27.9875 53.8915 28.831 53.1773L34.1624 48.6636" fill="#D6DCE8"/>
<g clip-path="url(#clip0)">
<path d="M16.0342 51.6171L14.7378 52.7147L15.4923 53.6059L16.7887 52.5083L16.0342 51.6171Z" fill="#D6DCE8"/>
<path d="M18.0977 51.4001L16.8013 52.4977L17.5558 53.3888L18.8522 52.2912L18.0977 51.4001Z" fill="#D6DCE8"/>
<path d="M17.5328 53.3869L16.2363 54.4845L16.9908 55.3757L18.2873 54.278L17.5328 53.3869Z" fill="#D6DCE8"/>
<path d="M19.5963 53.1697L18.2998 54.2673L19.0543 55.1585L20.3508 54.0609L19.5963 53.1697Z" fill="#D6DCE8"/>
<path d="M19.0416 55.1692L17.7451 56.2668L18.4996 57.158L19.7961 56.0604L19.0416 55.1692Z" fill="#D6DCE8"/>
<path d="M21.105 54.9521L19.8086 56.0497L20.5631 56.9408L21.8595 55.8432L21.105 54.9521Z" fill="#D6DCE8"/>
<path d="M20.5401 56.939L19.2437 58.0366L19.9981 58.9278L21.2946 57.8302L20.5401 56.939Z" fill="#D6DCE8"/>
<path d="M22.6036 56.7218L21.3071 57.8195L22.0616 58.7106L23.3581 57.613L22.6036 56.7218Z" fill="#D6DCE8"/>
<path d="M22.0489 58.7213L20.7524 59.819L21.5069 60.7101L22.8034 59.6125L22.0489 58.7213Z" fill="#D6DCE8"/>
<path d="M24.1124 58.5042L22.8159 59.6018L23.5704 60.493L24.8669 59.3953L24.1124 58.5042Z" fill="#D6DCE8"/>
<path d="M23.5474 60.4911L22.251 61.5887L23.0055 62.4799L24.3019 61.3823L23.5474 60.4911Z" fill="#D6DCE8"/>
<path d="M25.6109 60.274L24.3145 61.3716L25.0689 62.2627L26.3654 61.1651L25.6109 60.274Z" fill="#D6DCE8"/>
<path d="M25.0562 62.2735L23.7598 63.3711L24.5143 64.2623L25.8107 63.1646L25.0562 62.2735Z" fill="#D6DCE8"/>
<path d="M27.109 62.0437L25.8125 63.1414L26.567 64.0325L27.8635 62.9349L27.109 62.0437Z" fill="#D6DCE8"/>
<path d="M26.5548 64.0432L25.2583 65.1409L26.0128 66.032L27.3092 64.9344L26.5548 64.0432Z" fill="#D6DCE8"/>
<path d="M28.6182 63.8261L27.3218 64.9237L28.0763 65.8149L29.3727 64.7172L28.6182 63.8261Z" fill="#D6DCE8"/>
<path d="M26.7671 66.9232L30.2951 71.0904L32.9006 68.8844L29.3726 64.7173L26.7671 66.9232ZM32.181 68.8257L30.3559 70.3709L29.3358 69.1659L31.1609 67.6207L32.181 68.8257Z" fill="#D6DCE8"/>
<path d="M32.6537 80.0783L32.5894 77.9349C32.5975 77.5616 32.5978 77.2812 32.6166 76.9206L32.606 76.908L31.1836 78.1122L30.5142 77.3214L33.17 75.0729L33.6801 75.6754L33.7417 77.7135C33.7461 78.076 33.7525 78.4154 33.7125 78.751L33.7231 78.7635L35.2839 77.4421L35.964 78.2454L33.1319 80.6431L32.6537 80.0783Z" fill="#D6DCE8"/>
<path d="M34.2932 72.5708C34.527 72.8469 34.5043 73.254 34.177 73.5311C33.8624 73.7975 33.4571 73.7527 33.2233 73.4766C32.9663 73.1985 32.989 72.7915 33.3163 72.5144C33.6542 72.2499 34.0488 72.2821 34.2932 72.5708ZM36.7573 77.5741L34.0262 74.3483L35.0332 73.4958L37.7642 76.7216L36.7573 77.5741Z" fill="#D6DCE8"/>
<path d="M36.7523 73.8931C36.391 73.4663 36.0703 73.113 35.8133 72.835L36.6818 72.0996L37.1147 72.5089L37.1273 72.4982C37.0795 71.9569 37.2851 71.4595 37.7634 71.0546C38.4683 70.4578 39.6309 70.5294 40.5023 71.5586C41.5012 72.7385 41.2262 73.9195 40.4961 74.5375C40.1059 74.8679 39.6657 74.9605 39.3446 74.8875L39.332 74.8982L40.6923 76.5048L39.6853 77.3573L36.7523 73.8931V73.8931ZM38.4075 73.8062C38.4713 73.8815 38.5476 73.9462 38.6134 73.9983C38.9101 74.2211 39.3193 74.2195 39.6088 73.9744C40.0493 73.6014 39.9929 73.0243 39.5253 72.472C39.0896 71.9574 38.5336 71.7601 38.0805 72.1437C37.791 72.3888 37.7199 72.8153 37.912 73.1699C37.9419 73.2307 37.9825 73.3041 38.0356 73.3669L38.4075 73.8062V73.8062Z" fill="#D6DCE8"/>
</g>
<defs>
<clipPath id="clip0">
<rect width="11.4951" height="34.0431" fill="white" transform="translate(11.6792 55.3043) rotate(-40.2525)"/>
</clipPath>
</defs>
</svg>
