<svg width="311" height="16" viewBox="0 0 311 16" fill="none" xmlns="http://www.w3.org/2000/svg">
<path d="M148.728 0C146.833 0 144.769 0.970588 142.586 2.88235C141.551 3.78824 140.657 4.75882 139.986 5.53529C139.986 5.53529 139.986 5.53529 139.992 5.54118V5.53529C139.992 5.53529 141.051 6.68824 142.222 7.92353C142.851 7.17647 143.757 6.15882 144.798 5.24118C146.739 3.54118 148.004 3.18235 148.728 3.18235C151.451 3.18235 153.663 5.34118 153.663 7.99412C153.663 10.6294 151.445 12.7882 148.728 12.8059C148.604 12.8059 148.445 12.7882 148.245 12.7471C149.039 13.0882 149.892 13.3353 150.704 13.3353C155.692 13.3353 156.669 10.0824 156.733 9.84706C156.88 9.25294 156.957 8.62941 156.957 7.98824C156.957 3.58824 153.263 0 148.728 0Z" fill="url(#paint0_linear_1810_373)"/>
<path d="M131.304 15.9999C133.198 15.9999 135.262 15.0293 137.445 13.1175C138.48 12.2116 139.374 11.241 140.045 10.4646C140.045 10.4646 140.045 10.4646 140.039 10.4587V10.4646C140.039 10.4646 138.98 9.31163 137.81 8.07634C137.18 8.8234 136.274 9.84104 135.233 10.7587C133.292 12.4587 132.027 12.8175 131.304 12.8175C128.58 12.8116 126.368 10.6528 126.368 7.99987C126.368 5.36457 128.586 3.20575 131.304 3.1881C131.427 3.1881 131.586 3.20575 131.786 3.24693C130.992 2.90575 130.139 2.65869 129.327 2.65869C124.339 2.65869 123.368 5.91163 123.298 6.14104C123.151 6.74104 123.074 7.35869 123.074 7.99987C123.074 12.4116 126.768 15.9999 131.304 15.9999Z" fill="url(#paint1_linear_1810_373)"/>
<path d="M150.692 13.2647C148.139 13.2 145.486 11.1882 144.945 10.6882C143.545 9.39412 140.315 5.89412 140.063 5.61765C137.698 2.96471 134.492 0 131.304 0H131.298H131.292C127.421 0.0176471 124.168 2.64118 123.298 6.14118C123.363 5.91176 124.639 2.59412 129.321 2.71176C131.874 2.77647 134.539 4.81765 135.086 5.31765C136.486 6.61176 139.715 10.1118 139.968 10.3882C142.333 13.0353 145.539 16 148.727 16H148.733H148.739C152.61 15.9824 155.868 13.3588 156.733 9.85882C156.663 10.0882 155.38 13.3765 150.692 13.2647Z" fill="#29ABE2"/>
<path d="M0.89 11.9998C1.16614 11.9998 1.39 11.7759 1.39 11.4998V9.23977H3.64C3.91614 9.23977 4.14 9.01591 4.14 8.73977V8.46977C4.14 8.19362 3.91614 7.96977 3.64 7.96977H1.38V6.21977H3.98C4.25614 6.21977 4.48 5.99591 4.48 5.71977V5.40977C4.48 5.13362 4.25614 4.90977 3.98 4.90977H0.5C0.223858 4.90977 0 5.13362 0 5.40977V11.4998C0 11.7759 0.223858 11.9998 0.5 11.9998H0.89Z" fill="black"/>
<path d="M10.8534 12.1598C12.3734 12.1598 13.5834 11.2298 13.5834 9.48977V5.40977C13.5834 5.13362 13.3595 4.90977 13.0834 4.90977H12.7034C12.4272 4.90977 12.2034 5.13362 12.2034 5.40977V9.38977C12.2034 10.3198 11.6934 10.8098 10.8534 10.8098C10.0334 10.8098 9.51336 10.3198 9.51336 9.38977V5.40977C9.51336 5.13362 9.2895 4.90977 9.01336 4.90977H8.63336C8.35722 4.90977 8.13336 5.13362 8.13336 5.40977V9.48977C8.13336 11.2298 9.34336 12.1598 10.8534 12.1598Z" fill="black"/>
<path d="M21.7255 11.9998C22.0017 11.9998 22.2255 11.7759 22.2255 11.4998V11.1798C22.2255 10.9036 22.0017 10.6798 21.7255 10.6798H19.0655V5.40976C19.0655 5.13362 18.8417 4.90977 18.5655 4.90977H18.1855C17.9094 4.90977 17.6855 5.13362 17.6855 5.40977V11.4998C17.6855 11.7759 17.9094 11.9998 18.1855 11.9998H21.7255Z" fill="black"/>
<path d="M29.7529 11.9998C30.029 11.9998 30.2529 11.7759 30.2529 11.4998V11.1798C30.2529 10.9036 30.029 10.6798 29.7529 10.6798H27.0929V5.40976C27.0929 5.13362 26.869 4.90977 26.5929 4.90977H26.2129C25.9367 4.90977 25.7129 5.13362 25.7129 5.40977V11.4998C25.7129 11.7759 25.9367 11.9998 26.2129 11.9998H29.7529Z" fill="black"/>
<path d="M34.5434 9.01977V11.4998C34.5434 11.7759 34.7673 11.9998 35.0434 11.9998H35.4234C35.6996 11.9998 35.9234 11.7759 35.9234 11.4998V9.01977L37.9612 5.66961C38.1639 5.33641 37.9241 4.90977 37.5341 4.90977H37.165C36.9848 4.90977 36.8186 5.00671 36.7298 5.16353L35.2834 7.71977L33.837 5.16353C33.7483 5.00671 33.582 4.90977 33.4019 4.90977H32.9573C32.5685 4.90977 32.3284 5.33406 32.5287 5.66732L34.5434 9.01977Z" fill="black"/>
<path d="M47.3967 8.44977C47.3967 6.84977 48.5167 6.08977 49.6067 6.08977C50.7067 6.08977 51.8267 6.84977 51.8267 8.44977C51.8267 10.0498 50.7067 10.8098 49.6067 10.8098C48.5167 10.8098 47.3967 10.0498 47.3967 8.44977ZM45.9667 8.45977C45.9667 10.7398 47.6867 12.1498 49.6067 12.1498C51.5367 12.1498 53.2567 10.7398 53.2567 8.45977C53.2567 6.16977 51.5367 4.75977 49.6067 4.75977C47.6867 4.75977 45.9667 6.16977 45.9667 8.45977Z" fill="black"/>
<path d="M62.5422 11.9998C62.8183 11.9998 63.0422 11.7759 63.0422 11.4998V5.40977C63.0422 5.13362 62.8183 4.90977 62.5422 4.90977H62.1622C61.886 4.90977 61.6622 5.13362 61.6622 5.40977V9.59977L58.8592 5.14355C58.7677 4.99805 58.6079 4.90977 58.436 4.90977H57.4922C57.216 4.90977 56.9922 5.13362 56.9922 5.40977V11.4998C56.9922 11.7759 57.216 11.9998 57.4922 11.9998H57.8722C58.1483 11.9998 58.3722 11.7759 58.3722 11.4998V6.96977L61.4447 11.7693C61.5366 11.9129 61.6953 11.9998 61.8658 11.9998H62.5422Z" fill="black"/>
<path d="M69.897 9.61977V8.43977H66.997V9.61977H69.897Z" fill="black"/>
<path d="M77.0577 12.1498C78.7791 12.1498 79.7747 11.1619 80.1869 10.1897C80.2908 9.94458 80.1376 9.6793 79.8828 9.60224L79.5327 9.4964C79.2658 9.41573 78.9891 9.57332 78.8502 9.81498C78.5532 10.3316 77.9891 10.7998 77.0577 10.7998C75.9177 10.7998 74.8577 9.96977 74.8577 8.45977C74.8577 6.84977 75.9777 6.08977 77.0377 6.08977C77.9708 6.08977 78.5126 6.52147 78.794 7.02678C78.9341 7.27844 79.2196 7.44662 79.4943 7.35999L79.8416 7.25045C80.0926 7.17128 80.2431 6.90887 80.1427 6.66559C79.7317 5.67056 78.7452 4.75977 77.0377 4.75977C75.1377 4.75977 73.4277 6.19977 73.4277 8.45977C73.4277 10.7198 75.0777 12.1498 77.0577 12.1498Z" fill="black"/>
<path d="M89.2663 11.9998C89.5424 11.9998 89.7663 11.7759 89.7663 11.4998V5.40977C89.7663 5.13362 89.5424 4.90977 89.2663 4.90977H88.8763C88.6001 4.90977 88.3763 5.13362 88.3763 5.40977V7.75977H85.2862V5.40977C85.2862 5.13362 85.0624 4.90977 84.7862 4.90977H84.4063C84.1301 4.90977 83.9062 5.13362 83.9062 5.40977V11.4998C83.9062 11.7759 84.1301 11.9998 84.4062 11.9998H84.7862C85.0624 11.9998 85.2862 11.7759 85.2862 11.4998V9.05977H88.3763V11.4998C88.3763 11.7759 88.6001 11.9998 88.8763 11.9998H89.2663Z" fill="black"/>
<path d="M98.586 11.6709C98.6579 11.8683 98.8456 11.9998 99.0558 11.9998H99.4803C99.8305 11.9998 100.072 11.6491 99.9476 11.3218L97.6284 5.23182C97.5546 5.03792 97.3687 4.90977 97.1612 4.90977H96.2495C96.0424 4.90977 95.8568 5.03737 95.7827 5.23067L93.4463 11.3207C93.3207 11.6481 93.5624 11.9998 93.9131 11.9998H94.2958C94.5059 11.9998 94.6936 11.8683 94.7656 11.6709L95.2358 10.3798H98.1158L98.586 11.6709ZM96.6758 6.43977L97.6558 9.11977H95.6958L96.6758 6.43977Z" fill="black"/>
<path d="M104.533 11.9998C104.809 11.9998 105.033 11.7759 105.033 11.4998V5.40977C105.033 5.13362 104.809 4.90977 104.533 4.90977H104.133C103.857 4.90977 103.633 5.13362 103.633 5.40977V11.4998C103.633 11.7759 103.857 11.9998 104.133 11.9998H104.533Z" fill="black"/>
<path d="M114.739 11.9998C115.016 11.9998 115.239 11.7759 115.239 11.4998V5.40977C115.239 5.13362 115.016 4.90977 114.739 4.90977H114.359C114.083 4.90977 113.859 5.13362 113.859 5.40977V9.59977L111.057 5.14355C110.965 4.99805 110.805 4.90977 110.633 4.90977H109.689C109.413 4.90977 109.189 5.13362 109.189 5.40977V11.4998C109.189 11.7759 109.413 11.9998 109.689 11.9998H110.069C110.346 11.9998 110.569 11.7759 110.569 11.4998V6.96977L113.642 11.7693C113.734 11.9129 113.893 11.9998 114.063 11.9998H114.739Z" fill="black"/>
<path d="M164.974 11.24C165.25 11.24 165.474 11.0161 165.474 10.74V4.65C165.474 4.37386 165.25 4.15 164.974 4.15H164.574C164.298 4.15 164.074 4.37386 164.074 4.65V10.74C164.074 11.0161 164.298 11.24 164.574 11.24H164.974Z" fill="black"/>
<path d="M175.181 11.24C175.457 11.24 175.681 11.0161 175.681 10.74V4.65C175.681 4.37386 175.457 4.15 175.181 4.15H174.801C174.525 4.15 174.301 4.37386 174.301 4.65V8.84L171.498 4.38378C171.406 4.23829 171.247 4.15 171.075 4.15H170.131C169.855 4.15 169.631 4.37386 169.631 4.65V10.74C169.631 11.0161 169.855 11.24 170.131 11.24H170.511C170.787 11.24 171.011 11.0161 171.011 10.74V6.21L174.083 11.0096C174.175 11.1531 174.334 11.24 174.504 11.24H175.181Z" fill="black"/>
<path d="M184.546 5.46C184.822 5.46 185.046 5.23614 185.046 4.96V4.65C185.046 4.37386 184.822 4.15 184.546 4.15H179.676C179.4 4.15 179.176 4.37386 179.176 4.65V4.96C179.176 5.23614 179.4 5.46 179.676 5.46H181.416V10.74C181.416 11.0161 181.64 11.24 181.916 11.24H182.306C182.582 11.24 182.806 11.0161 182.806 10.74V5.46H184.546Z" fill="black"/>
<path d="M192.477 11.24C192.753 11.24 192.977 11.0161 192.977 10.74V10.44C192.977 10.1639 192.753 9.94 192.477 9.94H189.917V8.3H192.187C192.463 8.3 192.687 8.07614 192.687 7.8V7.57C192.687 7.29386 192.463 7.07 192.187 7.07H189.917V5.45H192.477C192.753 5.45 192.977 5.22614 192.977 4.95V4.65C192.977 4.37386 192.753 4.15 192.477 4.15H189.037C188.761 4.15 188.537 4.37386 188.537 4.65V10.74C188.537 11.0161 188.761 11.24 189.037 11.24H192.477Z" fill="black"/>
<path d="M200.189 10.9669C200.274 11.1345 200.447 11.24 200.635 11.24H201.042C201.417 11.24 201.659 10.8408 201.484 10.5079L200.348 8.34C201.278 8.07 201.858 7.32 201.858 6.33C201.858 5.1 200.978 4.15 199.598 4.15H197.328C197.052 4.15 196.828 4.37386 196.828 4.65V10.74C196.828 11.0161 197.052 11.24 197.328 11.24H197.718C197.994 11.24 198.218 11.0161 198.218 10.74V8.51H198.938L200.189 10.9669ZM198.218 7.32V5.35H199.338C200.038 5.35 200.448 5.74 200.448 6.34C200.448 6.92 200.038 7.32 199.338 7.32H198.218Z" fill="black"/>
<path d="M211.177 11.24C211.453 11.24 211.677 11.0161 211.677 10.74V4.65C211.677 4.37386 211.453 4.15 211.177 4.15H210.797C210.521 4.15 210.297 4.37386 210.297 4.65V8.84L207.494 4.38378C207.402 4.23829 207.243 4.15 207.071 4.15H206.127C205.851 4.15 205.627 4.37386 205.627 4.65V10.74C205.627 11.0161 205.851 11.24 206.127 11.24H206.507C206.783 11.24 207.007 11.0161 207.007 10.74V6.21L210.079 11.0096C210.171 11.1531 210.33 11.24 210.501 11.24H211.177Z" fill="black"/>
<path d="M219.782 11.24C220.058 11.24 220.282 11.0161 220.282 10.74V10.44C220.282 10.1639 220.058 9.94 219.782 9.94H217.222V8.3H219.492C219.768 8.3 219.992 8.07614 219.992 7.8V7.57C219.992 7.29386 219.768 7.07 219.492 7.07H217.222V5.45H219.782C220.058 5.45 220.282 5.22614 220.282 4.95V4.65C220.282 4.37386 220.058 4.15 219.782 4.15H216.342C216.066 4.15 215.842 4.37386 215.842 4.65V10.74C215.842 11.0161 216.066 11.24 216.342 11.24H219.782Z" fill="black"/>
<path d="M228.833 5.46C229.109 5.46 229.333 5.23614 229.333 4.96V4.65C229.333 4.37386 229.109 4.15 228.833 4.15H223.963C223.687 4.15 223.463 4.37386 223.463 4.65V4.96C223.463 5.23614 223.687 5.46 223.963 5.46H225.703V10.74C225.703 11.0161 225.927 11.24 226.203 11.24H226.593C226.869 11.24 227.093 11.0161 227.093 10.74V5.46H228.833Z" fill="black"/>
<path d="M240.634 11.39C242.355 11.39 243.351 10.4022 243.763 9.42997C243.867 9.18481 243.714 8.91953 243.459 8.84247L243.109 8.73663C242.842 8.65597 242.565 8.81356 242.426 9.05521C242.129 9.57184 241.565 10.04 240.634 10.04C239.494 10.04 238.434 9.21 238.434 7.7C238.434 6.09 239.554 5.33 240.614 5.33C241.547 5.33 242.089 5.76171 242.37 6.26702C242.51 6.51867 242.796 6.68686 243.07 6.60022L243.418 6.49068C243.669 6.41151 243.819 6.14911 243.719 5.90583C243.308 4.91079 242.321 4 240.614 4C238.714 4 237.004 5.44 237.004 7.7C237.004 9.96 238.654 11.39 240.634 11.39Z" fill="black"/>
<path d="M248.492 7.69C248.492 6.09 249.612 5.33 250.702 5.33C251.802 5.33 252.922 6.09 252.922 7.69C252.922 9.29 251.802 10.05 250.702 10.05C249.612 10.05 248.492 9.29 248.492 7.69ZM247.062 7.7C247.062 9.98 248.782 11.39 250.702 11.39C252.632 11.39 254.352 9.98 254.352 7.7C254.352 5.41 252.632 4 250.702 4C248.782 4 247.062 5.41 247.062 7.7Z" fill="black"/>
<path d="M265.498 11.24C265.774 11.24 265.998 11.0161 265.998 10.74V4.65C265.998 4.37386 265.774 4.15 265.498 4.15H264.454C264.251 4.15 264.068 4.2733 263.991 4.46181L262.038 9.27L260.036 4.45795C259.958 4.27149 259.776 4.15 259.574 4.15H258.588C258.312 4.15 258.088 4.37386 258.088 4.65V10.74C258.088 11.0161 258.312 11.24 258.588 11.24H258.908C259.184 11.24 259.408 11.0161 259.408 10.74V6.31L261.32 10.9312C261.397 11.1181 261.58 11.24 261.782 11.24H262.263C262.465 11.24 262.648 11.1175 262.725 10.9299L264.638 6.27V10.74C264.638 11.0161 264.862 11.24 265.138 11.24H265.498Z" fill="black"/>
<path d="M271.548 7.38V5.35H272.638C273.328 5.35 273.748 5.74 273.748 6.37C273.748 6.98 273.328 7.38 272.638 7.38H271.548ZM272.808 8.57C274.208 8.57 275.138 7.65 275.138 6.36C275.138 5.08 274.208 4.15 272.808 4.15H270.658C270.382 4.15 270.158 4.37386 270.158 4.65V10.74C270.158 11.0161 270.382 11.24 270.658 11.24H271.038C271.314 11.24 271.538 11.0161 271.538 10.74V8.57H272.808Z" fill="black"/>
<path d="M281.373 11.4C282.893 11.4 284.103 10.47 284.103 8.73V4.65C284.103 4.37386 283.879 4.15 283.603 4.15H283.223C282.947 4.15 282.723 4.37386 282.723 4.65V8.63C282.723 9.56 282.213 10.05 281.373 10.05C280.553 10.05 280.033 9.56 280.033 8.63V4.65C280.033 4.37386 279.809 4.15 279.533 4.15H279.153C278.877 4.15 278.653 4.37386 278.653 4.65V8.73C278.653 10.47 279.863 11.4 281.373 11.4Z" fill="black"/>
<path d="M292.905 5.46C293.181 5.46 293.405 5.23614 293.405 4.96V4.65C293.405 4.37386 293.181 4.15 292.905 4.15H288.035C287.759 4.15 287.535 4.37386 287.535 4.65V4.96C287.535 5.23614 287.759 5.46 288.035 5.46H289.775V10.74C289.775 11.0161 289.999 11.24 290.275 11.24H290.665C290.941 11.24 291.165 11.0161 291.165 10.74V5.46H292.905Z" fill="black"/>
<path d="M300.836 11.24C301.113 11.24 301.336 11.0161 301.336 10.74V10.44C301.336 10.1639 301.113 9.94 300.836 9.94H298.276V8.3H300.546C300.823 8.3 301.046 8.07614 301.046 7.8V7.57C301.046 7.29386 300.823 7.07 300.546 7.07H298.276V5.45H300.836C301.113 5.45 301.336 5.22614 301.336 4.95V4.65C301.336 4.37386 301.113 4.15 300.836 4.15H297.396C297.12 4.15 296.896 4.37386 296.896 4.65V10.74C296.896 11.0161 297.12 11.24 297.396 11.24H300.836Z" fill="black"/>
<path d="M308.548 10.9669C308.634 11.1345 308.806 11.24 308.994 11.24H309.401C309.777 11.24 310.018 10.8408 309.844 10.5079L308.708 8.34C309.638 8.07 310.217 7.32 310.217 6.33C310.217 5.1 309.338 4.15 307.958 4.15H305.688C305.411 4.15 305.188 4.37386 305.188 4.65V10.74C305.188 11.0161 305.411 11.24 305.688 11.24H306.077C306.354 11.24 306.577 11.0161 306.577 10.74V8.51H307.298L308.548 10.9669ZM306.577 7.32V5.35H307.697C308.397 5.35 308.807 5.74 308.807 6.34C308.807 6.92 308.397 7.32 307.697 7.32H306.577Z" fill="black"/>
<defs>
<linearGradient id="paint0_linear_1810_373" x1="144.444" y1="1.05498" x2="155.632" y2="12.6414" gradientUnits="userSpaceOnUse">
<stop offset="0.21" stop-color="#F15A24"/>
<stop offset="0.6841" stop-color="#FBB03B"/>
</linearGradient>
<linearGradient id="paint1_linear_1810_373" x1="135.587" y1="14.9449" x2="124.399" y2="3.3585" gradientUnits="userSpaceOnUse">
<stop offset="0.21" stop-color="#ED1E79"/>
<stop offset="0.8929" stop-color="#522785"/>
</linearGradient>
</defs>
</svg>
