<svg xmlns="http://www.w3.org/2000/svg" width="85" height="80" viewBox="0 0 85 80">
    <g fill="none" fill-rule="evenodd">
        <path fill="#FB8C00" d="M31.672 11.552c.438-2.176 2.796-5.382 4.166-6.606 1.207 9.143 6.224 16.034 11.752 19.031.51.278.885.727 1.326 1.071-6.276-1.671-11.499-3.977-15.81-6.505-1.451-1.653-1.987-4.233-1.434-6.991"/>
        <path fill="#FFA726" d="M73.608 37.448c-4.586-4.193-11-6.459-22.364-2.853 1.571-1.508 3.655-3.036 6.576-3.714C23 25.483 16.371 9.736 15.009 4.747c-3.855.638-4.687 7.823-4.687 9.192 0 3.792 2.677 18.443 29.297 18.455a1.992 1.992 0 0 1 1.236 3.647c-6.77 4.484-11.173 11.499-13.497 18.62a40.482 40.482 0 0 0-1.129 4.172 38.33 38.33 0 0 0-.863 6.994c2.628 2.139 15.368 8.451 33.208.447.098-.074 4.416-1.214 4.51-1.29-.461-1.946-2.416-9.086.049-8.996.252.008.504.016.752.016.678 0 1.336-.036 1.984-.091 6.19-.523 11.776-1.621 13.811-6.346-.916-5.405-3.229-9.32-6.072-12.119"/>
        <path fill="#FB8C00" d="M15.009 4.747c-1.899 2.668-1.605 9.471.332 12.348-.388-1.881-.056-4.371.72-5.754.793 2.951 6.511 19.525 25.639 19.73-6.499 2.639-21.104 1.901-27.52-7.466-4.279-7.672-4.906-14.923.829-18.858"/>
        <path fill="#353535" d="M65.813 43.445a3.245 3.245 0 1 0 .001-6.49 3.245 3.245 0 0 0-.001 6.49"/>
        <path fill="#353535" d="M4.404 66.481c-.41-3.979 3.125-7.609 5.571-9.279C-.562 61.67-.941 67.384 3.553 71.437c2.962 2.671 8.039 4.621 13.724 5.017-9.284-2.908-12.521-6.568-12.873-9.973"/>
        <path fill="#353535" d="M31.696 36.529c-5.285-.436-17.075-2.866-22.212-13.454.815 7.406 7.945 15.681 22.212 13.454"/>
        <path fill="#FB8C00" d="M51.576 46.101c-.959 3.612.127 7.766 3.604 10.012.205 2.595.885 6.275 1.045 7.175-3.541 1.106-16.745 3.061-22.425-4.832-.812 3.54-.148 6.307.811 7.782-4.757-2.655-6.595-20.399 7.73-31.333-4.854 1.903-15.917 7.287-18.572 31.333 7.966 8.04 28.387 8.21 39.137-.29.217-.172-1.414-8.052-1.689-8.689 16.305 1.773 18.246-8.819 18.246-8.819-3.434 5.443-19.035 7.822-27.887-2.339"/>
        <path fill="#353535" d="M33 10.225c.438-2.177 1.468-4.055 2.838-5.279 3.57 8.493 8.996 14.268 13.08 17.704.442.373.885.726 1.326 1.071-6.276-1.671-11.5-3.978-15.81-6.505-1.45-1.653-1.988-4.235-1.434-6.991Zm27.639 54.499c-.094.076-.197.148-.295.222-4.705 2.647-17.198 4.675-24.533-.774-.074.952.762 2.919 2.873 4.661-4.781-.666-8.92-2.194-11.547-4.334.059-2.225.344-4.588.861-6.994.151-.693.319-1.389.507-2.086.188-.695.396-1.391.622-2.086 2.325-7.121 6.729-14.135 13.497-18.619a1.994 1.994 0 0 0 .787-2.3 1.997 1.997 0 0 0-2.021-1.349c-5.062.056-17.009-1.972-24.445-12.367-.087 2.242.559 4.315 1.741 6.149-4.446-3.729-6.594-8.443-6.594-12.237 0-1.368.236-5.521 2.917-7.863 2.17 3.225 6.091 8.06 12.388 12.66a58.962 58.962 0 0 0 4.746 3.117c.019.014.041.025.06.037 8.258 4.885 17.963 7.989 28.944 9.235.05.007.099.012.15.016 6.154.424 17.039 4.398 19.311 16.548-2.038 4.725-6.778 7.702-12.967 8.225-.649.055-1.307.092-1.987.092-.248 0-.5-.008-.752-.016a21.807 21.807 0 0 1-10.964-3.471c.101.467.246.906.41 1.33a8.723 8.723 0 0 0 1.162 2.086 9.417 9.417 0 0 0 2.439 2.246c.455.296.934.551 1.428.77a70.046 70.046 0 0 0 1.262 7.102Zm11.117-6.931a22.454 22.454 0 0 0 3.127-.927 17.472 17.472 0 0 0 2.965-1.451c.101-.063.201-.129.301-.193.718-.477 1.394-1 2.021-1.568 2.125-1.962 3.463-4.349 4.477-6.86a1.985 1.985 0 0 0-.014-.533C82.594 33.727 72.527 27.165 62.986 25.98l-.003-.002c-4.598-.577-18.572-8.76-24.286-24.66A1.99 1.99 0 0 0 36.065.15c-3.434 1.417-6.104 4.976-6.97 9.29a14.244 14.244 0 0 0-.235 4.043C22.299 8.478 18.765 3.382 17.328.972a1.992 1.992 0 0 0-2.56-.782C10.598 2.159 8.11 6.802 8.11 12.61c0 5.286 2.929 10.937 7.839 15.116 3.674 3.128 10.018 6.808 19.857 7.359-3.093 2.946-5.583 6.405-7.513 10.072-1.307 2.575-2.461 5.535-3.369 8.934a53.91 53.91 0 0 0-.951 4.236 65.592 65.592 0 0 0-.808 5.822l-.002.023c-.466-1.562-.82-3.384-1.009-5.388a34.543 34.543 0 0 1-.144-4.023c-9.102 2.306-15.627 6.097-15.627 11.244 0 .258.018.512.051.764 1.062 4.154 10.535 9.705 26.712 10.458 6.546.305 14.188-.175 22.817-1.855l.033-.006-.006.002c-.808.602-2.431 1.455-4.703 2.346-1.861.732-4.162 1.488-6.822 2.154.239.002.478.004.716.004 18.809 0 38.8-4.861 38.8-13.867 0-2.497-1.538-4.674-4.159-6.518-.894.257-1.806.455-2.724.605a26.894 26.894 0 0 1-3.905.337c-3.835.05-7.408-.698-9.667-1.848a45.244 45.244 0 0 0 3.464-.113 32.338 32.338 0 0 0 4.766-.675Z"/>
    </g>
</svg>
