<?xml version="1.0" encoding="UTF-8"?>
<svg version="1.1" viewBox="0 0 153 103" xmlns="http://www.w3.org/2000/svg" xmlns:xlink="http://www.w3.org/1999/xlink">
    <defs>
        <polygon id="b" points="0.328 0.438 74.191 0.438 74.191 75.808 0.328 75.808"/>
    </defs>
    <g fill="none" fill-rule="evenodd">
        <g transform="translate(-221)">
            <path d="m287.19 11.339c0.413-2.054 2.639-5.079 3.932-6.234 1.139 8.627 5.873 15.13 11.089 17.959 0.481 0.262 0.835 0.686 1.251 1.01-5.922-1.577-10.85-3.753-14.918-6.138-1.369-1.56-1.875-3.995-1.354-6.597" fill="#fb8c00"/>
            <path d="m326.76 35.775c-4.327-3.957-10.38-6.094-21.104-2.692 1.483-1.423 3.448-2.865 6.205-3.505-32.856-5.093-39.111-19.952-40.397-24.66-3.637 0.602-4.423 7.382-4.423 8.673 0 3.579 2.526 17.404 27.646 17.415 0.852-0.056 1.634 0.465 1.908 1.271 0.273 0.81-0.032 1.7-0.743 2.17-6.387 4.233-10.543 10.852-12.736 17.572-0.214 0.656-0.41 1.311-0.588 1.966-0.177 0.659-0.337 1.316-0.476 1.97-0.49 2.27-0.758 4.5-0.815 6.6 2.481 2.018 14.501 7.974 31.336 0.422 0.092-0.071 4.167-1.146 4.256-1.217-0.436-1.837-2.28-8.575 0.046-8.489 0.237 6e-3 0.475 0.014 0.709 0.014 0.64 0 1.262-0.034 1.873-0.086 5.842-0.493 11.111-1.529 13.032-5.987-0.863-5.101-3.046-8.795-5.729-11.437" fill="#ffa726"/>
            <path d="m271.47 4.918c-1.793 2.518-1.514 8.936 0.313 11.651-0.365-1.774-0.052-4.125 0.679-5.429 0.748 2.785 6.144 18.424 24.195 18.618-6.133 2.49-19.915 1.794-25.969-7.046-4.039-7.239-4.629-14.081 0.782-17.794" fill="#fb8c00"/>
            <g transform="translate(263)">
                <mask id="a" fill="white">
                    <use xlink:href="#b"/>
                </mask>
                <path d="m42.975 43.94c-0.906 3.409 0.119 7.329 3.4 9.449 0.192 2.448 0.835 5.921 0.985 6.77-3.341 1.043-15.8 2.888-21.16-4.559-0.766 3.339-0.139 5.951 0.766 7.342-4.49-2.504-6.225-19.249 7.294-29.566-4.58 1.795-15.021 6.876-17.527 29.566 7.518 7.587 26.788 7.748 36.933-0.273 0.204-0.162-1.335-7.599-1.595-8.199 15.386 1.673 17.217-8.323 17.217-8.323-3.24 5.137-17.962 7.381-26.313-2.207" fill="#fb8c00" mask="url(#a)"/>
                <path d="m25.445 10.086c0.412-2.054 1.385-3.826 2.678-4.981 3.369 8.014 8.489 13.464 12.342 16.707 0.418 0.352 0.835 0.684 1.252 1.01-5.922-1.577-10.852-3.754-14.919-6.138-1.368-1.561-1.875-3.996-1.353-6.598zm26.08 51.428c-0.088 0.071-0.186 0.139-0.277 0.21-4.441 2.497-16.229 4.411-23.151-0.731-0.069 0.899 0.719 2.754 2.712 4.399-4.511-0.629-8.417-2.072-10.897-4.09 0.057-2.1 0.324-4.329 0.813-6.601 0.142-0.654 0.3-1.309 0.478-1.968 0.177-0.656 0.373-1.312 0.587-1.968 2.194-6.72 6.35-13.338 12.736-17.57 0.712-0.471 1.016-1.362 0.744-2.17-0.275-0.808-1.057-1.327-1.908-1.272-4.776 0.052-16.05-1.862-23.067-11.671-0.082 2.116 0.527 4.071 1.643 5.803-4.196-3.519-6.223-7.967-6.223-11.547 0-1.291 0.223-5.21 2.753-7.42 2.048 3.043 5.747 7.604 11.689 11.946 1.437 1.049 2.934 2.026 4.479 2.942 0.018 0.012 0.039 0.023 0.057 0.035 7.792 4.609 16.95 7.538 27.312 8.714 0.048 7e-3 0.094 0.01 0.141 0.014 5.808 0.402 16.08 4.151 18.222 15.617-1.921 4.458-6.395 7.266-12.235 7.76-0.612 0.052-1.234 0.087-1.874 0.087-0.235 0-0.473-8e-3 -0.709-0.014-2.327-0.087-4.987-0.607-7.635-1.799-0.911-0.41-1.819-0.898-2.713-1.477 0.096 0.441 0.232 0.855 0.387 1.254 0.282 0.724 0.652 1.38 1.097 1.97 0.639 0.847 1.424 1.555 2.301 2.119 0.431 0.278 0.881 0.519 1.348 0.727 0.278 2.289 0.755 4.864 1.19 6.701zm10.492-6.54c1.071-0.242 2.053-0.533 2.95-0.875 1.002-0.381 1.901-0.823 2.711-1.315 0.029-0.017 0.057-0.036 0.087-0.055 0.096-0.058 0.189-0.121 0.284-0.182 0.679-0.449 1.315-0.943 1.907-1.479 2.005-1.851 3.268-4.104 4.224-6.473 0.018-0.167 0.014-0.336-0.013-0.503-1.923-11.827-11.423-18.02-20.426-19.139-2e-3 0-4e-3 -2e-3 -4e-3 -2e-3 -4.339-0.543-17.524-8.265-22.916-23.268-0.174-0.485-0.536-0.875-1.007-1.083-0.468-0.209-1.002-0.215-1.477-0.02-3.24 1.337-5.76 4.695-6.577 8.767-0.261 1.302-0.329 2.588-0.222 3.814-6.191-4.724-9.526-9.532-10.882-11.806-0.495-0.832-1.541-1.15-2.416-0.737-3.934 1.858-6.283 6.238-6.283 11.72 0 4.987 2.766 10.32 7.398 14.263 3.466 2.952 9.454 6.424 18.738 6.945-2.919 2.78-5.269 6.044-7.09 9.504-1.232 2.43-2.322 5.223-3.179 8.43-0.173 0.647-0.336 1.31-0.488 1.993-0.148 0.651-0.282 1.321-0.409 2.005-0.322 1.726-0.58 3.553-0.763 5.494 0 7e-3 -2e-3 0.014-2e-3 0.021-0.439-1.474-0.773-3.193-0.952-5.084-0.058-0.616-0.102-1.246-0.124-1.895-0.022-0.62-0.025-1.255-0.012-1.902-8.589 2.177-14.746 5.754-14.746 10.611 0 0.243 0.017 0.482 0.048 0.72 1.003 3.92 9.941 9.159 25.206 9.87 6.177 0.287 13.389-0.167 21.531-1.752 0.011-1e-3 0.022-3e-3 0.033-4e-3 -2e-3 0-4e-3 1e-3 -6e-3 1e-3 -0.763 0.568-2.296 1.373-4.439 2.213-1.757 0.692-3.928 1.405-6.437 2.034 0.225 2e-3 0.451 3e-3 0.675 3e-3 17.749 0 36.613-4.587 36.613-13.085 0-2.357-1.451-4.41-3.924-6.151-0.844 0.242-1.705 0.43-2.571 0.571-1.232 0.199-2.472 0.301-3.685 0.318-3.618 0.047-6.989-0.659-9.123-1.744 1.157 6e-3 2.243-0.033 3.27-0.107 1.659-0.118 3.151-0.336 4.498-0.636z" fill="#353535" mask="url(#a)"/>
            </g>
            <path d="m319.41 41.435c1.693 0 3.064-1.372 3.064-3.063s-1.371-3.062-3.064-3.062c-1.69 0-3.061 1.371-3.061 3.062s1.371 3.063 3.061 3.063" fill="#353535"/>
            <path d="m261.46 63.172c-0.388-3.755 2.948-7.18 5.256-8.756-9.944 4.216-10.301 9.607-6.061 13.432 2.795 2.521 7.586 4.361 12.951 4.735-8.76-2.744-11.815-6.198-12.146-9.411" fill="#353535"/>
            <path d="m287.22 34.908c-4.987-0.412-16.113-2.704-20.961-12.695 0.769 6.988 7.497 14.797 20.961 12.695" fill="#353535"/>
            <path d="m230.16 88.887c-0.49-0.373-1.352-0.559-2.612-0.559l-0.117 4.245h0.886c0.864 0 1.494-0.187 1.913-0.537 0.42-0.35 0.63-0.862 0.63-1.515 0-0.701-0.233-1.237-0.7-1.634zm-4.969-3.965c1.074-0.024 2.17-0.024 3.267-0.024 0.909 0 1.796 0.094 2.636 0.304s1.586 0.513 2.239 0.956c0.629 0.444 1.143 1.003 1.539 1.68 0.397 0.7 0.583 1.54 0.583 2.496 0 0.582-0.07 1.119-0.233 1.609-0.163 0.491-0.396 0.91-0.676 1.307-0.304 0.395-0.63 0.723-1.003 1.002-0.398 0.28-0.793 0.514-1.236 0.724l2.496 4.082 1.003-0.117 0.42 2.798-4.83 0.444-2.706-6.461h-1.212v6.134h-4.269l-0.257-14.159-1.049-0.21v-2.448c1.119-0.07 2.216-0.094 3.288-0.117z" fill="#353535"/>
            <path d="m247.91 95.605-1.307-5.948h-0.092l-1.913 5.948h3.312zm1.493-10.939 3.825 13.879h0.84l0.536 3.219-5.248 0.373-0.7-3.126h-5.154l-0.981 3.033-4.547-0.678 5.201-13.133-1.4-0.163 0.491-2.961 7.137-0.443z" fill="#353535"/>
            <path d="m262.16 98.545h0.373c0.373 0 0.723-0.025 1.072-0.07 0.351-0.047 0.63-0.14 0.887-0.281 0.257-0.139 0.443-0.349 0.607-0.606 0.139-0.257 0.21-0.583 0.21-1.027 0-0.769-0.234-1.305-0.701-1.632-0.466-0.326-1.025-0.49-1.702-0.49-0.163 0-0.373 0.023-0.606 0.046-0.234 0.025-0.42 0.071-0.583 0.094l0.046 3.941c0.07 0.025 0.211 0.025 0.397 0.025zm-0.327-6.976h0.163c0.771 0 1.423-0.139 1.913-0.419 0.49-0.256 0.723-0.77 0.723-1.516 0-0.63-0.163-1.05-0.513-1.306-0.35-0.233-0.769-0.35-1.26-0.35-0.21 0-0.42 0-0.653 0.023-0.232 0.023-0.489 0.047-0.746 0.069l0.163 3.477c0.07 0.022 0.14 0.022 0.21 0.022zm-3.686-6.81c0.724-0.047 1.423-0.093 2.053-0.117 0.63-0.023 1.19-0.046 1.703-0.071 0.489-0.022 0.909-0.022 1.237-0.022 2.145 0 3.708 0.373 4.711 1.119 0.98 0.747 1.47 1.796 1.47 3.126 0 0.56-0.07 1.05-0.234 1.47-0.163 0.443-0.396 0.816-0.676 1.12-0.304 0.326-0.63 0.582-1.003 0.792-0.396 0.21-0.793 0.397-1.236 0.513v0.093c1.166 0.164 2.098 0.584 2.822 1.214 0.7 0.629 1.05 1.563 1.05 2.775 0 0.748-0.14 1.447-0.42 2.077-0.303 0.63-0.746 1.189-1.354 1.656-0.606 0.489-1.376 0.862-2.308 1.119-0.956 0.28-2.076 0.421-3.382 0.421-0.351 0-0.771 0-1.214-0.024-0.466 0-0.932 0-1.423-0.023-0.489-0.023-0.979-0.048-1.468-0.07-0.491-0.024-0.934-0.024-1.331-0.047v-13.599l-1.212 0.187-0.094-3.546c0.794-0.07 1.563-0.116 2.309-0.163z" fill="#353535"/>
            <path d="m277.96 98.545h0.373c0.373 0 0.723-0.025 1.072-0.07 0.351-0.047 0.63-0.14 0.887-0.281 0.257-0.139 0.443-0.349 0.607-0.606 0.139-0.257 0.21-0.583 0.21-1.027 0-0.769-0.234-1.305-0.7-1.632-0.466-0.326-1.026-0.49-1.703-0.49-0.163 0-0.373 0.023-0.606 0.046-0.234 0.025-0.42 0.071-0.583 0.094l0.047 3.941c0.069 0.025 0.21 0.025 0.396 0.025zm-0.327-6.976h0.163c0.771 0 1.423-0.139 1.913-0.419 0.49-0.256 0.724-0.77 0.724-1.516 0-0.63-0.163-1.05-0.514-1.306-0.35-0.233-0.769-0.35-1.26-0.35-0.21 0-0.42 0-0.653 0.023-0.232 0.023-0.489 0.047-0.746 0.069l0.163 3.477c0.07 0.022 0.141 0.022 0.21 0.022zm-3.686-6.81c0.724-0.047 1.423-0.093 2.053-0.117 0.63-0.023 1.19-0.046 1.703-0.071 0.49-0.022 0.909-0.022 1.237-0.022 2.145 0 3.709 0.373 4.711 1.119 0.98 0.747 1.47 1.796 1.47 3.126 0 0.56-0.07 1.05-0.233 1.47-0.163 0.443-0.397 0.816-0.677 1.12-0.303 0.326-0.63 0.582-1.003 0.792-0.396 0.21-0.793 0.397-1.236 0.513v0.093c1.166 0.164 2.099 0.584 2.822 1.214 0.7 0.629 1.05 1.563 1.05 2.775 0 0.748-0.14 1.447-0.42 2.077-0.303 0.63-0.746 1.189-1.353 1.656-0.606 0.489-1.377 0.862-2.309 1.119-0.956 0.28-2.076 0.421-3.382 0.421-0.35 0-0.771 0-1.214-0.024-0.466 0-0.932 0-1.423-0.023-0.489-0.023-0.979-0.048-1.468-0.07-0.491-0.024-0.934-0.024-1.331-0.047v-13.599l-1.212 0.187-0.094-3.546c0.794-0.07 1.563-0.116 2.309-0.163z" fill="#353535"/>
            <polyline points="288.96 101.86 288.4 84.876 293.65 84.456 293.07 101.86 288.96 101.86" fill="#353535"/>
            <polyline points="305.78 101.86 301.07 101.86 301.07 89.027 296.47 89.308 296.1 84.898 310.19 84.898 309.82 88.841 305.34 88.841 305.78 101.86" fill="#353535"/>
            <polyline points="318.21 84.876 317.96 91.732 322.53 91.732 322.46 84.852 327.66 84.852 326.96 101.86 322.57 101.86 322.41 95.419 318.14 95.419 317.93 101.86 313.36 101.86 312.75 84.876 318.21 84.876" fill="#353535"/>
            <path d="m339.98 97.075c0.396-0.816 0.606-2.054 0.606-3.756 0-1.446-0.21-2.589-0.63-3.452-0.443-0.84-1.12-1.259-2.054-1.259-0.442 0-0.837 0.116-1.142 0.372-0.326 0.257-0.607 0.63-0.817 1.074-0.209 0.443-0.372 0.979-0.465 1.562-0.117 0.607-0.164 1.237-0.164 1.913 0 1.517 0.233 2.683 0.723 3.498 0.467 0.841 1.119 1.261 1.959 1.261 0.91 0 1.586-0.396 1.984-1.213zm0.932-11.827c0.91 0.42 1.679 1.004 2.356 1.75 0.653 0.77 1.167 1.679 1.54 2.729 0.373 1.074 0.559 2.263 0.559 3.569 0 1.377-0.186 2.589-0.537 3.686-0.349 1.095-0.862 2.029-1.515 2.798-0.654 0.771-1.423 1.377-2.332 1.796-0.911 0.421-1.937 0.631-3.056 0.631-1.097 0-2.076-0.21-2.986-0.653-0.911-0.444-1.703-1.05-2.356-1.82-0.677-0.77-1.19-1.703-1.562-2.776-0.374-1.073-0.561-2.239-0.561-3.499 0-1.188 0.163-2.309 0.49-3.382 0.326-1.05 0.817-1.982 1.446-2.799 0.629-0.816 1.4-1.447 2.333-1.936 0.932-0.466 2.006-0.7 3.196-0.7 1.072 0 2.075 0.21 2.985 0.606z" fill="#353535"/>
            <polyline points="348.14 87.627 347.06 87.394 347.06 84.992 353.22 84.852 352.85 98.381 356.46 98.172 356.46 96.444 359.61 96.444 359.24 101.97 348.7 102.25 348.14 87.627" fill="#353535"/>
            <polyline points="373.38 84.619 372.91 88.654 366.84 88.538 366.84 91.732 371.23 91.569 370.95 95.372 366.84 95.302 366.84 98.288 372.91 98.031 372.56 102.07 362.46 101.72 362.13 88.421 360.97 88.328 361.01 84.992 373.38 84.619" fill="#353535"/>
        </g>
    </g>
</svg>
