<svg width="80px" height="76px" viewBox="0 0 80 76" version="1.1" xmlns="http://www.w3.org/2000/svg" xmlns:xlink="http://www.w3.org/1999/xlink">
    <g id="black" fill="#000105" fill-rule="nonzero">
        <path d="M30.3564447,9.64851968 C30.7684447,7.59451968 31.7414447,5.82151968 33.0344447,4.66751968 C36.4034447,12.6815197 41.5234447,18.1315197 45.3764447,21.3735197 C45.7944447,21.7265197 46.2114447,22.0585197 46.6284447,22.3845197 C40.7064447,20.8075197 35.7764447,18.6305197 31.7094447,16.2455197 C30.3414447,14.6855197 29.8344447,12.2495197 30.3564447,9.64851968 Z M56.4364447,61.0755197 C56.3484447,61.1475197 56.2504447,61.2155197 56.1594447,61.2855197 C51.7184447,63.7825197 39.9304447,65.6965197 33.0084447,60.5555197 C32.9394447,61.4535197 33.7274447,63.3095197 35.7204447,64.9535197 C31.2094447,64.3245197 27.3034447,62.8825197 24.8234447,60.8635197 C24.8804447,58.7645197 25.1474447,56.5345197 25.6364447,54.2635197 C25.7784447,53.6095197 25.9364447,52.9535197 26.1144447,52.2955197 C26.2914447,51.6395197 26.4874447,50.9835197 26.7014447,50.3265197 C28.8954447,43.6075197 33.0514447,36.9885197 39.4374447,32.7575197 C40.1494447,32.2855197 40.4534447,31.3955197 40.1814447,30.5875197 C39.9064447,29.7785197 39.1244447,29.2605197 38.2734447,29.3155197 C33.4974447,29.3665197 22.2234447,27.4525197 15.2064447,17.6445197 C15.1244447,19.7605197 15.7334447,21.7155197 16.8494447,23.4465197 C12.6534447,19.9285197 10.6264447,15.4805197 10.6264447,11.9005197 C10.6264447,10.6095197 10.8494447,6.69051968 13.3794447,4.48051968 C15.4274447,7.52351968 19.1264447,12.0845197 25.0684447,16.4265197 C26.5054447,17.4755197 28.0024447,18.4515197 29.5474447,19.3675197 C29.5654447,19.3805197 29.5864447,19.3915197 29.6044447,19.4025197 C37.3964447,24.0125197 46.5544447,26.9415197 56.9164447,28.1165197 C56.9644447,28.1235197 57.0104447,28.1275197 57.0574447,28.1315197 C62.8654447,28.5325197 73.1374447,32.2815197 75.2794447,43.7475197 C73.3584447,48.2055197 68.8844447,51.0145197 63.0444447,51.5085197 C62.4324447,51.5605197 61.8104447,51.5955197 61.1704447,51.5955197 C60.9354447,51.5955197 60.6974447,51.5875197 60.4614447,51.5805197 C58.1344447,51.4935197 55.4744447,50.9745197 52.8264447,49.7815197 C51.9154447,49.3715197 51.0074447,48.8845197 50.1134447,48.3055197 C50.2094447,48.7455197 50.3454447,49.1595197 50.5004447,49.5595197 C50.7824447,50.2825197 51.1524447,50.9395197 51.5974447,51.5285197 C52.2364447,52.3765197 53.0214447,53.0845197 53.8984447,53.6485197 C54.3294447,53.9265197 54.7794447,54.1675197 55.2464447,54.3745197 C55.5244447,56.6635197 56.0014447,59.2385197 56.4364447,61.0755197 Z M66.9284447,54.5355197 C67.9994447,54.2945197 68.9814447,54.0035197 69.8784447,53.6605197 C70.8804447,53.2795197 71.7794447,52.8385197 72.5894447,52.3465197 C72.6184447,52.3285197 72.6464447,52.3105197 72.6764447,52.2915197 C72.7724447,52.2335197 72.8654447,52.1705197 72.9604447,52.1095197 C73.6394447,51.6595197 74.2754447,51.1655197 74.8674447,50.6305197 C76.8724447,48.7785197 78.1354447,46.5265197 79.0914447,44.1565197 C79.1094447,43.9895197 79.1054447,43.8205197 79.0784447,43.6535197 C77.1554447,31.8265197 67.6554447,25.6345197 58.6524447,24.5155197 C58.6504447,24.5155197 58.6484447,24.5135197 58.6484447,24.5135197 C54.3094447,23.9705197 41.1244447,16.2475197 35.7324447,1.24451968 C35.5584447,0.76051968 35.1964447,0.36951968 34.7254447,0.16151968 C34.2574447,-0.0474803204 33.7234447,-0.0534803204 33.2484447,0.14251968 C30.0084447,1.47951968 27.4884447,4.83751968 26.6714447,8.90851968 C26.4104447,10.2115197 26.3424447,11.4965197 26.4494447,12.7235197 C20.2584447,7.99951968 16.9234447,3.19151968 15.5674447,0.91751968 C15.0724447,0.0855196796 14.0264447,-0.23248032 13.1514447,0.18051968 C9.21744471,2.03751968 6.86844471,6.41851968 6.86844471,11.9005197 C6.86844471,16.8875197 9.63444471,22.2205197 14.2664447,26.1625197 C17.7324447,29.1145197 23.7204447,32.5875197 33.0044447,33.1085197 C30.0854447,35.8885197 27.7354447,39.1525197 25.9144447,42.6115197 C24.6824447,45.0425197 23.5924447,47.8355197 22.7354447,51.0425197 C22.5624447,51.6895197 22.3994447,52.3525197 22.2474447,53.0345197 C22.0994447,53.6865197 21.9654447,54.3565197 21.8384447,55.0395197 C21.5164447,56.7665197 21.2584447,58.5935197 21.0754447,60.5335197 C21.0754447,60.5405197 21.0734447,60.5485197 21.0734447,60.5555197 C20.6344447,59.0815197 20.3004447,57.3615197 20.1214447,55.4715197 C20.0634447,54.8555197 20.0194447,54.2255197 19.9974447,53.5755197 C19.9754447,52.9565197 19.9724447,52.3205197 19.9854447,51.6745197 C11.3964447,53.8515197 5.23944471,57.4285197 5.23944471,62.2845197 C5.23944471,62.5275197 5.25644471,62.7675197 5.28744471,63.0055197 C6.29044471,66.9255197 15.2284447,72.1635197 30.4934447,72.8745197 C36.6704447,73.1615197 43.8824447,72.7085197 52.0244447,71.1235197 C52.0354447,71.1215197 52.0464447,71.1195197 52.0574447,71.1185197 C52.0554447,71.1185197 52.0534447,71.1195197 52.0514447,71.1195197 C51.2884447,71.6885197 49.7554447,72.4925197 47.6124447,73.3335197 C45.8554447,74.0255197 43.6844447,74.7375197 41.1754447,75.3665197 C41.4004447,75.3685197 41.6264447,75.3695197 41.8504447,75.3695197 C59.5994447,75.3695197 78.4634447,70.7825197 78.4634447,62.2845197 C78.4634447,59.9285197 77.0124447,57.8745197 74.5394447,56.1345197 C73.6954447,56.3765197 72.8344447,56.5645197 71.9684447,56.7045197 C70.7364447,56.9035197 69.4964447,57.0065197 68.2834447,57.0235197 C64.6654447,57.0695197 61.2944447,56.3635197 59.1604447,55.2785197 C60.3174447,55.2845197 61.4034447,55.2455197 62.4304447,55.1725197 C64.0894447,55.0545197 65.5814447,54.8365197 66.9284447,54.5355197 L66.9284447,54.5355197 Z" id="Fill-21"></path>
        <path d="M61.3184447,40.9965197 C63.0114447,40.9965197 64.3824447,39.6255197 64.3824447,37.9345197 C64.3824447,36.2425197 63.0114447,34.8715197 61.3184447,34.8715197 C59.6284447,34.8715197 58.2574447,36.2425197 58.2574447,37.9345197 C58.2574447,39.6255197 59.6284447,40.9965197 61.3184447,40.9965197" id="Fill-22"></path>
        <path d="M3.37344471,62.7345197 C2.98544471,58.9795197 6.32144471,55.5545197 8.62944471,53.9785197 C-1.31455529,58.1945197 -1.67155529,63.5855197 2.56844471,67.4095197 C5.36344471,69.9315197 10.1544447,71.7715197 15.5194447,72.1455197 C6.75944471,69.4015197 3.70444471,65.9465197 3.37344471,62.7345197" id="Fill-23"></path>
        <path d="M29.1264447,34.4705197 C24.1394447,34.0585197 13.0134447,31.7665197 8.16544471,21.7755197 C8.93444471,28.7635197 15.6624447,36.5715197 29.1264447,34.4705197" id="Fill-24"></path>
    </g>
</svg>