<?xml version="1.0" encoding="UTF-8"?>
<svg width="80px" height="104px" viewBox="0 0 80 104" version="1.1" xmlns="http://www.w3.org/2000/svg" xmlns:xlink="http://www.w3.org/1999/xlink">
    <!-- Generator: Sketch 61.2 (89653) - https://sketch.com -->
    <title></title>
    <desc>Created with Sketch.</desc>
    <g id="file-ppt" stroke="none" stroke-width="1" fill="none" fill-rule="evenodd">
        <g>
            <path d="M0,2.00767737 C0,0.898867775 0.890373829,0 2.00662552,0 L62.9848633,0 L80,17.0219727 L80,101.999033 C80,103.104137 79.1015625,104 78.0025017,104 L1.99749826,104 C0.894310431,104 0,103.100914 0,101.992323 L0,2.00767737 Z" id="Path" fill="#FFFFFF" fill-rule="nonzero"></path>
            <path d="M61.8183669,1.108773 L61.8183669,14.9935781 C61.8183669,16.6577438 63.1593613,18 64.8135617,18 L78,18" id="Path" stroke="#C4C6CD" stroke-width="2" stroke-linejoin="round" fill-rule="nonzero"></path>
            <path d="M1,3.93045901 C1,2.31274751 2.2927349,1 3.90629424,1 L62.253492,1 L79,17.9567167 L79,100.075993 C79,101.686754 77.7029138,103 76.1023766,103 L3.89762335,103 C2.29348793,103 1,101.684031 1,100.069541 L1,3.93045901 Z" id="Path" stroke="#C4C6CD" stroke-width="2" stroke-linejoin="round"></path>
            <g id="Style/Icons/32px/Media" transform="translate(16.000000, 32.000000)">
                <g>
                    <rect id="Bounding-area" x="0" y="0" width="48" height="48"></rect>
                    <path d="M44,37.7076923 C44,40.2566988 41.9336219,42.3230769 39.3846154,42.3230769 L8.61538462,42.3230769 C6.06637808,42.3230769 4,40.2566988 4,37.7076923 L4,10.0153846 C4,7.46637808 6.06637808,5.4 8.61538462,5.4 L39.3846154,5.4 C41.9336219,5.4 44,7.46637808 44,10.0153846 L44,37.7076923 Z M40.923,16.169 L7.076,16.169 L7.07692308,37.7076923 C7.07692308,38.5573612 7.76571577,39.2461538 8.61538462,39.2461538 L39.3846154,39.2461538 C40.2342842,39.2461538 40.9230769,38.5573612 40.9230769,37.7076923 L40.923,16.169 Z M22.520625,19.7457437 L30.3212584,24.920754 C31.18428,25.4699496 31.6923077,26.4197405 31.6923077,27.4195802 C31.6923077,28.3877067 31.2141272,29.3223323 30.4018768,29.8907858 L22.6938089,35.1482217 C22.1811168,35.575465 21.5350388,35.775972 20.8954068,35.775972 C20.4207968,35.775972 19.9680074,35.6832263 19.5314266,35.4691606 C18.5114081,34.9881763 17.9247768,33.9956627 17.8461538,32.7654573 L17.8461538,22.228656 C17.8461538,21.1338752 18.4471266,20.1680261 19.5146753,19.5534335 C20.5049265,19.0963945 21.6091093,19.1380617 22.520625,19.7457437 Z M20.923028,22.378325 L20.9196763,32.6423207 L28.5439378,27.4337847 L20.923028,22.378325 Z M39.3846154,8.47692308 L8.61538462,8.47692308 C7.76571577,8.47692308 7.07692308,9.16571577 7.07692308,10.0153846 L7.076,13.092 L40.923,13.092 L40.9230769,10.0153846 C40.9230769,9.16571577 40.2342842,8.47692308 39.3846154,8.47692308 Z" id="Icon_Media" fill="#C4C6CD" fill-rule="nonzero"></path>
                </g>
            </g>
        </g>
    </g>
</svg>
