<?xml version="1.0" encoding="UTF-8"?>
<svg width="80px" height="104px" viewBox="0 0 80 104" version="1.1" xmlns="http://www.w3.org/2000/svg" xmlns:xlink="http://www.w3.org/1999/xlink">
    <!-- Generator: Sketch 61.2 (89653) - https://sketch.com -->
    <title></title>
    <desc>Created with Sketch.</desc>
    <g id="file-pdf" stroke="none" stroke-width="1" fill="none" fill-rule="evenodd">
        <g>
            <path d="M0,2.00767737 C0,0.898867775 0.890373829,0 2.00662552,0 L62.9848633,0 L80,17.0219727 L80,101.999033 C80,103.104137 79.1015625,104 78.0025017,104 L1.99749826,104 C0.894310431,104 0,103.100914 0,101.992323 L0,2.00767737 Z" id="Path" fill="#FFFFFF" fill-rule="nonzero"></path>
            <path d="M61.8183669,1.108773 L61.8183669,14.9935781 C61.8183669,16.6577438 63.1593613,18 64.8135617,18 L78,18" id="Path" stroke="#C4C6CD" stroke-width="2" stroke-linejoin="round" fill-rule="nonzero"></path>
            <path d="M1,3.93045901 C1,2.31274751 2.2927349,1 3.90629424,1 L62.253492,1 L79,17.9567167 L79,100.075993 C79,101.686754 77.7029138,103 76.1023766,103 L3.89762335,103 C2.29348793,103 1,101.684031 1,100.069541 L1,3.93045901 Z" id="Path" stroke="#C4C6CD" stroke-width="2" stroke-linejoin="round"></path>
            <path d="M23.6322334,80.8094003 C23.6320713,80.8094003 23.6320713,80.8094003 23.6319093,80.8094003 C23.0289619,80.8094003 22.4496787,80.6137666 21.9564613,80.2440562 C20.1516713,78.8903421 19.9093578,77.3837842 20.0239502,76.3579633 C20.3388767,73.5372396 23.827543,70.5832839 30.3954547,67.5745443 C33.001419,61.8634012 35.4814452,54.8252878 36.9601249,48.9450926 C35.2305413,45.1803996 33.5503929,40.2971746 34.7754133,37.4322023 C35.204446,36.4287488 35.9591026,35.7223927 36.9576936,35.3894751 C37.3534994,35.2575398 37.7400664,35.1905997 38.1065352,35.1905997 C38.9803226,35.1905997 39.7610746,35.5723042 40.3051859,36.2655316 C40.8168807,36.9174279 42.3568277,38.8794379 40.0392083,48.6343802 C42.375143,53.4586072 45.6845458,58.3731142 48.8563406,61.7384355 C51.1284147,61.3269078 53.083131,61.1186316 54.6757548,61.1186316 C57.389504,61.1186316 59.0346426,61.7515642 59.7045301,63.0535739 C60.2595009,64.1317475 60.0319369,65.3909673 59.0281593,66.7960615 C58.0632815,68.146858 56.7327453,68.8608319 55.180318,68.8608319 C53.0725957,68.8608319 50.6196373,67.5291612 47.882062,64.9009915 C42.9647995,65.927947 37.223347,67.7620739 32.5829217,69.7911862 C31.1339031,72.8657313 29.7456655,75.3421916 28.4532188,77.157679 C26.680197,79.6490509 25.14803,80.8094003 23.6322334,80.8094003 Z M28.2444563,71.927273 C24.5402202,74.0084137 23.0309069,75.7183853 22.9232841,76.6818044 C22.9056171,76.8409695 22.8587752,77.2601152 23.6695124,77.881702 C23.92771,77.7998503 25.4360509,77.1122958 28.2444563,71.927273 Z M51.5965093,64.2633585 C53.0082489,65.3496362 54.2567712,65.943669 55.1806422,65.943669 C55.586497,65.943669 56.1207213,65.8478782 56.6546215,65.1005152 C56.9131432,64.7385848 57.0137965,64.505672 57.0528585,64.3818409 C56.8402061,64.2683831 56.2168363,64.0362808 54.676079,64.0362808 C53.801157,64.0362808 52.7612349,64.1135942 51.5965093,64.2633585 Z M38.9318599,52.8214604 C37.6919279,57.109356 36.056028,61.7377872 34.2977558,65.9302162 C37.9191677,64.5239874 41.8569649,63.2981566 45.555366,62.4290696 C43.2157034,59.7120787 40.8784721,56.3190412 38.9318599,52.8214604 Z M38.0478613,38.1142459 C38.0094477,38.120405 37.9545017,38.1327233 37.88043,38.1573599 C37.7110536,38.2139267 37.574418,38.3071242 37.4580427,38.579423 C37.0123155,39.6221005 37.3638727,41.6027501 38.0465646,43.731219 C38.612233,40.0631273 38.3117318,38.5055133 38.0478613,38.1142459 Z" id="Shape" fill="#E5252A" fill-rule="nonzero"></path>
        </g>
    </g>
</svg>
