<?xml version="1.0" encoding="UTF-8"?>
<svg width="80px" height="104px" viewBox="0 0 80 104" version="1.1" xmlns="http://www.w3.org/2000/svg" xmlns:xlink="http://www.w3.org/1999/xlink">
    <!-- Generator: Sketch 61.2 (89653) - https://sketch.com -->
    <title></title>
    <desc>Created with Sketch.</desc>
    <g id="file-doc" stroke="none" stroke-width="1" fill="none" fill-rule="evenodd">
        <g>
            <path d="M0,2.00767737 C0,0.898867775 0.890373829,0 2.00662552,0 L62.9848633,0 L80,17.0219727 L80,101.999033 C80,103.104137 79.1015625,104 78.0025017,104 L1.99749826,104 C0.894310431,104 0,103.100914 0,101.992323 L0,2.00767737 Z" id="Path" fill="#FFFFFF" fill-rule="nonzero"></path>
            <path d="M61.8183669,1.108773 L61.8183669,14.9935781 C61.8183669,16.6577438 63.1593613,18 64.8135617,18 L78,18" id="Path" stroke="#C4C6CD" stroke-width="2" stroke-linejoin="round" fill-rule="nonzero"></path>
            <path d="M1,3.93045901 C1,2.31274751 2.2927349,1 3.90629424,1 L62.253492,1 L79,17.9567167 L79,100.075993 C79,101.686754 77.7029138,103 76.1023766,103 L3.89762335,103 C2.29348793,103 1,101.684031 1,100.069541 L1,3.93045901 Z" id="Path" stroke="#C4C6CD" stroke-width="2" stroke-linejoin="round"></path>
            <g id="Style/Icons/32px/Text" transform="translate(16.000000, 32.000000)" fill="#0263D1">
                <g transform="translate(3.000000, 9.000000)" id="Icon_Text">
                    <path d="M39.1818182,25 C40.1859723,25 41,25.8954305 41,27 C41,28.1045695 40.1859723,29 39.1818182,29 L2.81818182,29 C1.81402773,29 1,28.1045695 1,27 C1,25.8954305 1.81402773,25 2.81818182,25 L39.1818182,25 Z M31,17 C32.1045695,17 33,17.8954305 33,19 C33,20.1045695 32.1045695,21 31,21 L3,21 C1.8954305,21 1,20.1045695 1,19 C1,17.8954305 1.8954305,17 3,17 L31,17 Z M39.1818182,9 C40.1859723,9 41,9.8954305 41,11 C41,12.1045695 40.1859723,13 39.1818182,13 L2.81818182,13 C1.81402773,13 1,12.1045695 1,11 C1,9.8954305 1.81402773,9 2.81818182,9 L39.1818182,9 Z M31,1 C32.1045695,1 33,1.8954305 33,3 C33,4.1045695 32.1045695,5 31,5 L3,5 C1.8954305,5 1,4.1045695 1,3 C1,1.8954305 1.8954305,1 3,1 L31,1 Z" fill-rule="nonzero"></path>
                </g>
            </g>
        </g>
    </g>
</svg>
