<?xml version="1.0" encoding="UTF-8"?>
<svg width="80px" height="104px" viewBox="0 0 80 104" version="1.1" xmlns="http://www.w3.org/2000/svg" xmlns:xlink="http://www.w3.org/1999/xlink">
    <!-- Generator: Sketch 61.2 (89653) - https://sketch.com -->
    <title></title>
    <desc>Created with Sketch.</desc>
    <g id="file-xls" stroke="none" stroke-width="1" fill="none" fill-rule="evenodd">
        <g>
            <path d="M0,2.00767737 C0,0.898867775 0.890373829,0 2.00662552,0 L62.9848633,0 L80,17.0219727 L80,101.999033 C80,103.104137 79.1015625,104 78.0025017,104 L1.99749826,104 C0.894310431,104 0,103.100914 0,101.992323 L0,2.00767737 Z" id="Path" fill="#FFFFFF" fill-rule="nonzero"></path>
            <path d="M61.8183669,1.108773 L61.8183669,14.9935781 C61.8183669,16.6577438 63.1593613,18 64.8135617,18 L78,18" id="Path" stroke="#C4C6CD" stroke-width="2" stroke-linejoin="round" fill-rule="nonzero"></path>
            <path d="M1,3.93045901 C1,2.31274751 2.2927349,1 3.90629424,1 L62.253492,1 L79,17.9567167 L79,100.075993 C79,101.686754 77.7029138,103 76.1023766,103 L3.89762335,103 C2.29348793,103 1,101.684031 1,100.069541 L1,3.93045901 Z" id="Path" stroke="#C4C6CD" stroke-width="2" stroke-linejoin="round"></path>
            <g id="Style/Icons/32px/Table" transform="translate(16.000000, 32.000000)">
                <g>
                    <rect id="Bounding-area" x="0" y="0" width="48" height="48"></rect>
                    <path d="M44,37.5 C44,39.9852814 41.9336219,42 39.3846154,42 L8.61538462,42 C6.06637808,42 4,39.9852814 4,37.5 L4,10.5 C4,8.01471863 6.06637808,6 8.61538462,6 L39.3846154,6 C41.9336219,6 44,8.01471863 44,10.5 L44,37.5 Z M16.307,33.749 L7.076,33.749 L7.07692308,37.5 C7.07692308,38.3284271 7.76571577,39 8.61538462,39 L16.307,39 L16.307,33.749 Z M28.615,33.749 L19.384,33.749 L19.384,39 L28.615,39 L28.615,33.749 Z M40.923,33.749 L31.692,33.749 L31.692,39 L39.3846154,39 C40.2342842,39 40.9230769,38.3284271 40.9230769,37.5 L40.923,33.749 Z M16.307,25.5 L7.076,25.5 L7.076,30.749 L16.307,30.749 L16.307,25.5 Z M28.615,25.5 L19.384,25.5 L19.384,30.749 L28.615,30.749 L28.615,25.5 Z M40.923,25.5 L31.692,25.5 L31.692,30.749 L40.923,30.749 L40.923,25.5 Z M16.307,17.249 L7.076,17.249 L7.076,22.5 L16.307,22.5 L16.307,17.249 Z M28.615,17.249 L19.384,17.249 L19.384,22.5 L28.615,22.5 L28.615,17.249 Z M40.923,17.249 L31.692,17.249 L31.692,22.5 L40.923,22.5 L40.923,17.249 Z M39.3846154,9 L8.61538462,9 C7.76571577,9 7.07692308,9.67157288 7.07692308,10.5 L7.076,14.249 L40.923,14.249 L40.9230769,10.5 C40.9230769,9.67157288 40.2342842,9 39.3846154,9 Z" id="Icon_Table" fill="#00733B" fill-rule="nonzero"></path>
                </g>
            </g>
        </g>
    </g>
</svg>
